<svg xmlns="http://www.w3.org/2000/svg" xmlns:xlink="http://www.w3.org/1999/xlink" width="773" height="602"><g><svg xmlns="http://www.w3.org/2000/svg" xmlns:xlink="http://www.w3.org/1999/xlink" width="773" height="602"/><svg xmlns="http://www.w3.org/2000/svg" width="773" height="602" version="1.0"><g fill="#fafafa" transform="matrix(.1 0 0 -.1 0 602)"><path d="M0 3010V0h7730v6020H0V3010z"/></g></svg><svg xmlns="http://www.w3.org/2000/svg" width="773" height="602" version="1.0"><g fill="#837b7b" transform="matrix(.1 0 0 -.1 0 602)"><path d="M1845 5849c-315-41-595-260-713-560-17-42-38-110-46-152l-16-76V1043l25-98c84-331 311-559 660-662l60-18 2010-3 2009-2 89 15c351 61 635 332 720 688l22 92v3990l-18 87c-70 346-336 620-685 706l-67 16-1990 2c-1135 1-2020-2-2060-7zm4140-62c33-9 105-39 160-66 217-107 366-285 442-528l28-88V1025l-19-70c-86-323-333-561-654-633l-77-17H1855l-90 23c-332 84-569 335-639 675l-16 76v3956l19 90c35 170 113 317 232 435 124 124 264 201 429 235l65 13 2035-1 2035-2 60-18zm-3689-459c-40-42-79-94-95-127l-26-56 1-130 1-130 32-135 33-135-4-100-4-100-38-95c-31-75-39-112-42-175-5-87 3-83 30 16 19 66 64 132 107 155l32 16 26-20c14-10 35-38 46-61 11-22 24-41 29-41s6 37 4 83c-5 86-13 113-96 313-97 236-130 443-89 561 21 61 79 117 139 135l37 11 68-22c149-49 275-153 403-331 88-124 167-180 255-180h20l-38 31c-41 34-47 49-18 49 10 0 24 7 31 15l12 15-13 4c-8 2-34 7-59 10-58 8-134 60-184 125-21 28-76 86-122 130l-84 80-159 80c-88 45-161 81-163 81-2-1-34-33-72-72zm2904-9l-162-81-92-92c-50-51-117-120-148-153-58-62-118-93-178-93-15 0-30-3-33-7-11-10 13-33 34-33 11 0 19-5 19-10 0-10-10-20-55-55l-20-16 44 6c91 12 151 58 236 179 119 171 250 279 398 327l68 22 37-11c53-16 116-74 137-124 46-110 9-349-90-583-78-185-88-216-93-302-5-92 5-105 33-43 10 22 26 47 36 56 59 53 145-27 185-173 9-34 21-60 26-57 17 11-6 131-45 234l-40 105-4 95-5 95 33 145 33 145 1 120v120l-20 54c-15 40-40 75-97 133l-76 78-162-81zm-2640-341c0-38 78-131 153-181l38-26-36-17c-19-9-45-29-56-45s-19-29-17-29 35 11 73 25c81 28 104 30 131 11l19-14-24-26-24-26h16c9 0 34 16 56 35 21 19 46 35 55 35 43 0-9 48-102 94-29 15-71 45-92 66-22 22-42 40-44 40-3 0 0-14 5-32 5-17 7-33 5-36-2-2-38 29-80 68-42 40-76 66-76 58zm2576-19c-28-33-118-110-123-106-1 2 1 18 6 35 5 18 8 32 5 32-2 0-22-18-44-40-21-21-63-51-92-66-93-46-145-94-102-94 9 0 34-16 55-35 22-19 46-35 54-35h14l-17 30-17 30 15 10c23 15 48 12 123-14 37-12 67-20 67-16 0 16-33 49-66 65l-36 17 39 25c62 42 113 95 139 146 28 54 18 62-20 16zm-1661-108c-119-20-205-56-324-136-77-52-186-148-203-178l-11-21 27 17c104 68 212 120 309 148 147 42 388 34 540-19l52-19 52 19c143 49 391 60 528 23 75-20 204-78 274-122 101-65 71-16-54 87-141 115-253 171-396 196-104 18-209 14-333-11l-72-15-69 15c-87 18-253 27-320 16zm-170-277c-121-26-209-75-305-173-79-79-190-234-177-247 3-3 35 17 72 45 82 63 242 142 350 173l80 23h350l85-24c105-29 107-29 205-1 64 18 113 23 240 27l160 4 100-25c121-31 295-115 383-186 37-30 62-44 62-36 0 30-122 195-194 263-89 86-183 134-306 159-115 23-306 14-444-20l-100-24-105 25c-136 32-351 40-456 17zm-621-243c-27-21-148-105-269-187-372-250-424-295-480-418-47-102-64-182-76-344-13-196-47-328-120-474-16-32-29-60-29-64 0-3 20 6 45 19 25 14 45 22 45 18 0-21-53-168-89-246-23-48-41-91-41-96 0-7 63 26 108 58l22 15v-21c0-46-34-168-61-223-16-32-29-60-29-64 0-10 63 8 120 35 36 17 79 51 125 99 38 41 78 78 89 84l18 10-3-125-4-124 28 9c15 6 60 41 101 79l73 68 6-74c3-41 8-79 12-85 9-14 58 13 112 63l45 41 16-12c57-40 165-86 232-98 82-15 230-19 230-6 0 4-27 27-60 51-79 58-123 107-158 178-39 78-50 133-56 291l-5 134-47 101c-84 183-117 284-118 362l-1 70 42 85c24 47 59 114 79 150l36 65-5 57c-8 89-67 192-67 117 0-39-44-105-127-191-49-51-92-107-105-135l-21-47 6-101c9-134 33-223 110-401 69-160 87-224 87-310v-54l-27 6c-72 16-185 79-232 129l-49 52-30 95c-17 52-36 126-43 163-14 82-7 259 15 385 39 220 85 298 261 445 146 121 212 187 263 263 39 57 86 142 79 142-3 0-26-17-53-39zm2336-18c68-122 148-209 326-356 180-148 224-234 260-512 22-165 15-300-24-430-36-123-49-149-104-202-40-39-133-92-185-107-13-3-32-9-43-12l-20-5v48c0 88 20 162 86 316 77 179 102 269 111 394 9 139-2 166-114 285-91 97-133 158-133 197 0 38-18 31-41-17-15-32-23-66-23-107l-1-60 33-60c135-247 141-279 89-437-20-58-56-150-82-204-50-107-64-176-65-319 0-44-5-100-11-124-25-109-110-228-209-291-28-18-50-36-50-41 0-12 130-11 208 1 85 14 141 34 213 76l60 35 47-41c61-54 101-76 107-58 13 42 23 118 18 139l-6 24 64-61c58-55 114-94 136-94 4 0 6 55 5 122l-4 121 29-18c15-10 54-47 87-82 32-35 79-74 105-87 54-27 120-50 127-43 2 2-9 33-26 68-30 64-65 195-58 223 2 11 16 7 61-21 31-20 60-34 62-31 3 3-13 45-35 93-37 80-90 227-90 248 0 4 20-4 45-19 25-14 45-23 45-20 0 4-11 29-25 56-74 146-111 290-124 485-12 167-27 236-76 342-57 124-106 166-476 414-118 79-238 163-266 186-29 24-55 43-59 43-3 0 9-26 26-57zm-1667-31c-29-10-70-31-91-46-45-31-187-174-180-181 2-3 42 9 89 26 204 75 403 78 609 9l85-28 85 28c209 70 401 67 614-11 44-16 82-27 85-24 12 13-176 182-231 209-102 50-250 45-453-13l-100-28-45 14c-114 35-213 54-310 59l-105 5-52-19zm197-283c-60-10-181-67-188-88-3-10 1-12 14-7 11 4 48 10 84 13 79 6 172-14 279-61 121-53 124-53 249-2 138 57 228 74 314 59 35-6 65-8 68-6 18 17-120 79-203 93-68 11-117 5-236-29l-63-17-107 27c-114 30-127 31-211 18zm-600-144c-19-20-69-59-110-86-100-67-171-137-208-207-49-92-63-232-30-296 6-10 41-60 79-110 69-90 99-157 99-218 0-43 16-34 30 17 18 64 7 144-30 223-44 93-62 157-64 225l-1 59 28 24c61 52 149 18 242-94 73-86 108-112 198-141 42-14 73-31 82-45 10-15 18-70 24-161 5-75 14-142 20-148 8-8 11 1 11 33 0 24 12 109 26 189 29 162 27 206-10 278-31 61-68 96-131 125l-50 23h-361l-27 18c-34 22-34 50-1 76 32 25 55 26 93 6 41-21 112-35 129-26 10 6 5 13-22 29-20 12-39 29-43 37-3 9 11 52 32 95 46 99 44 126-5 75zm140-366c0-34 18-57 55-69l34-11 36 17c50 24 68 6 31-31l-27-27-55 4c-43 4-61 11-85 34-35 33-46 68-29 89 18 22 40 18 40-6zm1654 376c4-16 21-60 38-97s28-74 24-83c-3-9-19-23-36-33-63-36-24-51 56-22 91 33 106 34 137 10 32-26 34-50 6-76l-21-19-167 2c-187 3-240-7-309-57-48-35-99-117-108-176-3-24 3-89 17-165 12-68 24-152 27-186 2-35 8-63 12-63 10 0 17 55 26 185 3 56 12 109 20 121 8 14 39 30 79 43 90 29 130 58 198 141 64 79 101 106 159 115 130 22 153-103 58-307-45-95-57-163-41-232 7-31 16-56 20-56 5 0 11 21 15 46 9 68 39 128 108 217 87 113 100 159 78 278-22 118-99 218-231 304-39 25-93 67-121 93l-51 47 7-30zm-66-367c20-20 14-53-15-80-40-36-66-48-110-48-48 0-83 23-83 56 0 27 12 31 29 10 20-23 66-29 99-12 31 16 42 34 42 67 0 21 20 25 38 7zm-435 320c-33-37-82-114-105-165-17-38-22-67-22-138 0-140 29-247 147-545 45-114 99-288 112-364 8-51 8-269 0-298-5-16-4-20 3-13 19 19 43 120 49 210 8 119-7 202-73 410-67 211-87 307-82 393 4 73 35 146 89 215 33 41 28 45-30 21-51-20-79-15-103 17l-20 26 12 79c7 43 20 100 30 127 10 26 17 47 16 47s-12-10-23-22zm-1098-172c-5-3-27-7-47-11-44-7-51-25-10-25 80 0 209-62 255-123 64-84 70-128 43-304-9-57-16-135-16-175 0-68 24-194 40-211 4-5 10 67 13 160l5 168 26 105c14 58 26 128 26 156 0 112-54 195-153 232-52 20-161 36-182 28zm-195-683c0-5-19-39-41-74-52-80-71-135-67-191l4-43 12 30c17 38 60 95 73 95 16 0 10-44-17-126-27-80-44-215-28-213 5 0 37 57 72 127 74 150 77 175 33 306-26 81-41 113-41 89zm1816-4c-2-8-16-50-30-94s-26-101-26-127v-46l68-133 67-132 3 53c2 36-7 86-28 162-17 60-29 117-26 125l6 16 20-18c11-10 30-38 42-64l23-46 3 53c2 41-3 65-22 105-42 85-95 163-100 146zm-2795-576c-103-125-146-346-106-538 28-132 75-212 297-504 43-56 94-132 115-169 47-83 56-60 19 48-26 73-32 84-123 241-120 206-130 331-43 524 18 39 38 93 46 120 15 53 19 185 6 185-4 0-15-21-24-47-18-49-100-163-118-163-6 0-10 15-10 33s-7 58-16 88c-11 38-15 79-12 136 2 46 3 83 2 83s-16-16-33-37zm3753 17c16-88 16-106-3-183-11-45-22-95-23-112l-3-30-41 43c-38 40-94 136-94 161 0 6-5 11-11 11-8 0-10-26-7-87 6-88 11-105 79-268l33-80 1-100v-100l-47-98c-26-53-67-130-91-169-24-40-55-101-70-136-26-61-45-142-34-142 3 0 21 28 40 63 32 56 70 109 250 345 62 81 129 204 154 281 23 71 28 262 10 348-18 84-68 190-115 242l-32 36 4-25zm-3286-183c5-88-17-210-58-332-50-147-37-238 46-335 93-109 128-172 149-270l12-55 13 30c7 17 13 64 13 105v75l-44 130-44 130 1 80c0 93 18 139 86 222 38 46 130 126 184 160l19 12h-36c-53 1-131-25-186-62l-49-33-12 48c-10 45-77 168-91 168-4 0-5-33-3-73zm2817 26c-37-59-64-121-64-152l-1-24-23 21c-36 34-132 73-194 79l-58 6 82-62c88-66 148-134 185-209 18-37 23-64 23-127v-80l-44-130c-47-143-58-241-32-303l14-34 18 73c22 85 48 131 129 230 98 121 112 202 61 356-44 132-64 244-59 330 3 40 2 73-1 73s-19-21-36-47zm-2235 7c0-28 31-79 70-114 45-41 241-141 262-134 7 3 0 13-17 23-59 38-251 183-274 209-26 27-41 33-41 16zm1620-41c-30-28-104-85-163-126-60-41-106-77-103-80 7-7 129 42 186 74 80 45 150 124 150 168 0 23-11 18-70-36zm-2313-4c-9-26-43-91-76-144-93-150-114-203-119-297-8-143 14-186 203-413l60-72 3 26c7 55-29 191-80 298l-51 108 5 72c4 56 14 94 48 172l43 100v81c0 44-5 89-10 99l-10 18-16-48zm3048 14c-18-82-8-153 39-272l46-115v-128l-40-82c-50-104-78-195-85-280l-6-67 23 26c129 146 207 251 230 313 20 52 26 156 13 217-9 41-54 133-103 209-45 70-92 164-92 184 0 29-19 26-25-5zm-1749-17c-3-5 23-16 57-26 34-9 90-30 124-47l62-31 37 22c20 13 75 35 123 51 112 35 88 45-58 25l-111-16-100 15c-116 17-127 18-134 7zm-230-18c27-75 178-221 317-306 104-64 127-87 127-129 0-60-97-92-261-87-60 1-109 0-109-4 0-14 58-47 119-68 146-49 407-49 553 1 69 23 121 56 112 70-3 5-9 7-14 4-21-13-207-5-260 11-67 19-90 39-90 73 0 42 23 65 132 132 57 34 132 90 167 123 66 63 155 175 146 184-3 3-32-20-64-51l-60-57-59 1c-32 1-68-4-80-10-23-12-52-60-52-85 0-32-60-51-155-51-95 1-155 20-155 51 0 26-29 73-53 85-12 7-48 12-79 11l-58-2-65 61c-36 34-62 53-59 43zm-638-136c-87-86-132-165-148-261-19-106-4-166 84-342 47-92 82-178 93-223 23-97 37-79 37 50l1 103-40 110-39 110v110c-1 123 21 225 74 342 17 36 30 67 30 69 0 15-29-6-92-68zm2129 55c3-10 9-22 13-28 16-22 59-155 75-235 24-119 15-219-33-363l-37-112 1-90c0-49 5-98 10-108l10-18 18 76c11 48 44 126 92 219 88 172 106 246 85 348-20 99-73 189-155 264-73 66-90 76-79 47zm-1877-23c0-36 38-86 93-121 64-42 239-103 322-113l50-7-175 88c-96 49-195 102-220 119-65 44-70 47-70 34zm1650-29c-30-19-134-75-230-124l-175-88 50 6c79 10 255 71 317 110 56 35 103 92 96 118-2 10-19 3-58-22zm-1788-54c-32-68-54-173-47-221 4-23 25-79 48-126l41-85 7-160c5-126 11-173 27-219 20-55 98-173 109-163 2 3 0 31-6 63-16 87-13 182 9 269 23 91 54 148 122 228l49 57h-45c-157 0-268 123-284 316l-7 89-23-48zm1955-39c-6-102-30-167-81-225-50-57-105-84-183-91l-62-5 50-56c100-112 147-255 135-415-3-50-9-104-13-121l-6-30 17 14c29 24 74 95 97 152l22 54 6 165 7 165 44 90 44 89v66c-1 62-39 199-62 222-5 5-11-25-15-74zm-1807-62c0-46 131-124 245-145 72-14 323-27 313-17-3 4-62 21-130 37-138 33-324 92-380 120-44 23-48 23-48 5zm1612-16c-71-33-258-90-377-115-105-23-116-35-32-35 104 0 251 19 314 41 101 34 173 87 173 126 0 17-5 16-78-17zm-1262-249c-101-31-183-122-231-257-15-43-21-84-22-151 0-51 2-96 6-99 4-4 15 0 24 8 26 24 114 68 123 63 4-3 11-20 14-40 9-47 24-53 51-19l23 29 10-40c6-22 14-53 18-68l7-28 33 32c24 24 35 28 38 18 2-8 10-31 16-51 6-21 15-38 20-38s22 11 38 25c17 14 32 25 35 25 2 0 7-18 11-40 7-45 20-50 52-19l23 21 26-53c15-30 29-56 32-59 2-2 15 9 28 25l25 30 26-30c14-16 35-49 45-72 11-24 22-43 24-43s13 19 24 43c11 23 32 56 45 72l25 30 26-27c14-16 28-28 30-28s15 25 29 57l26 56 23-21c31-29 45-28 53 6 12 54 12 55 48 27 20-15 39-24 44-21 6 3 13 23 17 43 10 55 14 57 45 28 29-28 50-27 50 3 0 9 5 35 11 56l11 39 24-27c32-34 40-33 48 7 3 17 10 38 15 45l8 14 34-17c19-10 48-28 66-41 17-13 34-24 37-24 2 0 7 28 11 63 13 124-42 281-129 369-42 42-125 88-161 88h-19l37-37c21-20 44-48 51-62 19-37 35-122 29-152l-5-25-46 23-47 24-7-18c-3-10-7-30-7-45l-1-27-34 6-33 5-7-32c-4-23-10-31-21-26-8 3-22 9-30 12-11 4-19-3-26-25-12-35-17-37-45-16-27 20-30 19-44-15s-19-36-46-15c-27 20-44 18-44-5s-4-24-33-8c-31 17-144 18-158 1-16-19-39-16-39 5 0 30-11 33-38 12-33-26-37-25-52 10s-13 35-46 13l-26-16-9 14c-5 8-9 22-9 33 0 18-10 19-52 1-12-5-18 1-23 25l-7 32-29-6c-19-4-31-1-33 7-2 6-8 26-12 44l-9 32-47-23-47-23-3 26c-4 36 11 120 27 152 8 15 28 40 45 55 43 42 41 50-10 35z"/></g></svg><svg xmlns="http://www.w3.org/2000/svg" width="773" height="602" version="1.0"><g fill="#070707" transform="matrix(.1 0 0 -.1 0 602)"><path d="M2297 5318c-37-38-78-89-90-111l-22-42v-300l34-130 33-130-5-90c-4-71-13-113-45-200-22-60-42-135-46-165l-6-55 24 63c45 117 98 177 153 170 21-2 37-16 62-53l33-50-4 85-4 85-43 100c-133 309-174 498-140 654 13 61 38 94 98 132 79 51 171 33 314-61 95-61 169-136 246-249 81-119 126-155 217-177l29-7-29 32c-16 17-28 32-25 34 2 2 18 9 34 16l30 14-55 11c-30 7-66 18-80 25s-92 82-175 166l-150 152-151 76c-84 43-156 77-160 76-5 0-40-32-77-71zm2898-6l-150-77-95-95c-52-52-116-118-141-147-54-60-93-82-169-99l-55-11 30-14c17-7 32-14 34-16 3-2-9-17-25-34l-29-32 30 7c90 21 131 58 244 214 152 214 395 347 517 284 53-27 90-69 109-121 21-62 19-207-4-306-24-97-84-272-116-334-39-78-65-178-65-250l1-66 14 32c20 46 60 83 89 83 51 0 105-68 147-185 11-30 18-41 18-28 2 40-21 127-57 218l-36 90-1 110v110l30 110 30 110v300l-24 44c-23 45-150 181-167 181-5 0-76-35-159-78zm-2620-361c24-48 92-118 142-148 45-26 55-43 26-43-19 0-83-47-83-61 0-5 14-2 32 7s60 19 95 22l63 5 6-16c3-8 1-25-6-36-16-32 2-25 40 14 19 19 41 35 49 35 25 0-15 33-84 70-33 18-77 48-97 68-37 35-49 31-28-9 24-43-29-11-114 70l-58 56 17-34zm2545-17c-47-48-130-111-130-97 1 4 7 19 15 33 23 41 17 44-17 7-18-18-67-52-109-75s-82-49-89-57l-12-15h14c8 0 29-16 48-35 38-39 56-46 40-14-7 11-9 28-6 36l6 16 63-5c35-3 77-13 95-22s32-12 32-7c0 14-49 50-77 57-32 8-29 15 21 47 51 32 117 101 140 146 9 17 15 31 13 31-1 0-23-21-47-46zm-1696-99c-76-16-191-69-264-120-65-46-192-156-187-162 2-2 35 15 73 37 138 80 308 130 447 130 87 0 237-24 314-51l55-18 82 23c274 80 518 51 751-90 32-19 60-33 62-30 6 6-119 114-184 159-77 53-187 103-265 122-83 19-261 18-363-3l-80-17-85 17c-101 21-268 22-356 3zm-34-251c-93-17-174-41-229-68-103-49-253-203-312-319l-20-38 68 49c263 191 562 245 894 161l77-19 75 19c126 33 233 44 346 38 205-12 369-72 544-199l68-49-20 38c-59 116-212 274-314 322-105 50-184 65-337 64l-135-1-114-29-114-30-116 29c-112 27-298 44-361 32zm-730-278c-30-24-150-107-267-185s-247-169-290-202c-153-117-213-251-238-537-18-200-42-306-101-431-24-51-44-96-44-98 0-3 20 7 45 21 25 15 45 23 45 18 0-22-55-173-91-251-21-46-39-85-39-88 0-6 84 38 103 55 9 8 20 12 24 9 12-12-18-142-51-225l-33-82h16c45 0 140 61 223 144 48 47 91 86 96 86 6 0 9-50 8-124l-1-124 35 18c19 10 62 46 95 79 33 34 63 61 68 61s6-12 3-27c-6-25 8-130 18-141 8-7 50 21 98 66l48 45 38-25c102-68 212-98 354-97h83l-25 17c-182 124-236 229-250 480-8 157-8 157-88 338-63 143-85 224-80 302 4 69 11 87 107 267l43 80-5 60c-3 33-13 78-22 100l-18 40-17-53c-19-58-24-65-126-172-117-124-127-149-113-301 10-112 39-215 91-334 73-162 99-244 105-328l6-80-44 7c-107 17-239 108-284 196-30 60-62 179-75 283-19 152 22 441 80 564 42 91 84 139 203 235 138 112 234 211 285 298 24 40 42 73 40 75s-28-16-58-39zm2353 31c3-9 27-48 53-88 56-85 140-171 269-274 116-93 156-139 202-230 61-121 104-417 83-580-13-100-43-212-74-273-46-91-175-181-283-198l-43-7v50c0 75 32 185 94 325 67 152 93 244 105 370 14 151 6 173-116 300-77 80-133 167-133 207 0 26-17-2-35-58-27-83-18-133 49-250 31-55 63-119 71-142 34-96 10-217-85-429-60-132-69-170-70-280-1-224-58-349-212-465l-60-45h87c139 0 245 30 348 98l38 25 42-40c43-41 86-73 99-73 12 0 30 109 23 140-4 17-3 30 1 30s37-29 73-63c36-35 80-71 96-79l30-16v124c0 68 3 124 8 124s47-39 95-87c64-63 104-94 149-115 93-42 95-40 57 54-32 80-62 213-50 225 3 4 14-1 23-9 19-17 103-61 103-55 0 3-18 42-40 89-43 92-96 246-87 254 3 3 22-6 43-20s39-24 41-22c2 1-15 41-37 88-59 126-88 248-105 438-20 224-42 304-117 415-52 77-121 133-397 317-124 83-253 172-285 197-33 25-57 38-53 28zm-1692-77c-44-21-90-56-147-112-46-45-83-83-81-84 2-2 27 6 57 17 108 41 220 62 335 62 116 1 181-10 306-49l76-24 44 16c108 38 215 57 329 57h115l110-27c61-16 123-35 138-43 16-8 31-13 33-11s-31 39-74 82c-55 55-97 87-149 113l-72 36-118-5c-91-4-145-12-237-37l-119-33-139 36-140 36h-203l-64-30zm209-274c-54-12-134-47-144-64-3-5 18-5 47-1 51 6 163-3 202-17 11-4 61-24 111-46 50-21 104-38 119-38s69 17 119 38c50 22 100 42 110 46 40 14 144 23 199 17 31-4 57-4 57-1 0 14-80 50-141 65-89 21-128 19-242-12l-99-26-103 26c-112 29-152 32-235 13zm-581-142c-13-14-69-57-124-95-117-80-169-137-203-222-29-73-40-178-23-230 7-20 42-75 77-123 79-106 91-128 105-196l12-53 9 25c18 47 3 159-32 234-17 39-41 105-52 148l-19 78 11 34c16 50 43 69 94 69 75-2 131-40 215-151 39-50 94-84 172-107 31-8 65-25 75-36l18-20 8-131c4-72 9-133 12-135 2-2 7 20 11 49s16 95 26 147c27 131 25 195-7 258-54 109-148 158-293 152-198-7-246-4-274 14-32 21-37 65-9 90 23 21 83 22 120 3 15-8 46-17 67-21l40-8-40 35-39 35 31 69c32 71 47 114 40 114-2 0-14-12-28-26zm143-362c15-56 78-80 126-46 49 34 73-18 26-55-50-39-137-21-187 39-28 32-29 57-4 88 15 19 30 9 39-26zm1663 368c4-14 20-51 36-84 34-69 31-95-14-121-43-26-15-32 44-9 104 39 169 25 169-37 0-61-45-70-303-60-143 5-236-44-291-153l-29-57 7-82c3-45 17-136 29-202l24-120 6 55c4 30 7 87 7 125 0 97 20 128 97 150 88 25 136 58 200 137 68 85 123 120 189 121h45l27-27 27-27-2-52c-1-53-31-155-77-262-26-61-34-156-17-200 7-16 11-8 20 36 13 60 49 124 112 200 54 65 79 123 79 189 0 152-69 267-223 371-51 34-109 78-131 98l-38 36 7-25zm-65-363l15-26-21-27c-33-45-70-67-121-71l-48-5-27 22c-49 38-26 91 24 56 12-9 35-16 51-16 32 0 77 39 77 68 0 41 27 40 50-1zm-489 263c-22-33-49-86-61-118l-22-57 5-95c7-116 37-228 112-420 119-303 145-400 153-580l6-125 12 50c31 129 11 309-59 510-80 233-101 406-60 497 12 26 36 69 54 94 26 38 28 46 13 40-76-31-129-23-140 21-9 36 2 150 19 201 8 23 13 42 12 42-2 0-21-27-44-60zm-1101-119l-25-7 71-18c127-31 207-94 251-196 17-40 14-105-12-270-17-108-16-173 7-270l13-55 6 145c5 110 13 172 34 255 62 244 15 365-160 410-61 16-142 18-185 6zm-181-739c-54-83-66-111-73-167l-6-50 13 19c43 64 68 96 77 96 17 0 11-74-11-136-18-53-39-206-27-194 3 3 32 56 63 119l58 114v51c1 33-9 79-27 129-16 42-29 77-30 77 0 0-17-26-37-58zm1826-18c-18-48-27-95-27-128v-53l61-119 60-119v52c1 29-10 86-24 130-25 80-33 153-15 153 9 0 28-25 78-96l13-19-7 50c-3 27-13 63-21 80-18 34-85 145-88 145-1 0-15-34-30-76zm-2779-509c-96-126-135-350-92-530 21-90 82-211 149-300 29-38 91-121 139-183 47-62 100-138 117-170l32-57-5 39c-6 45-56 154-115 252-101 166-139 286-125 388 3 28 31 112 60 187 39 98 55 156 60 207 4 41 3 72-2 72s-19-24-32-53c-23-54-99-147-120-147-8 0-12 18-12 48 0 27-7 70-16 96-12 34-15 68-12 117 3 38 4 69 3 69-2 0-15-16-29-35zm3772-35c3-46-1-85-12-116-9-26-16-69-16-96 0-30-4-48-12-48-21 0-95 90-119 145-13 30-28 55-33 55s-6-31-3-70c4-51 20-106 60-207 30-76 58-162 62-191 15-109-18-201-158-447-52-91-96-200-84-211 2-2 21 25 42 60s82 122 137 193c173 221 214 291 247 415 45 170 32 328-39 473-21 45-47 88-57 98l-19 16 4-69zm-3291-105c8-69-14-198-55-315-28-82-36-119-35-170 1-83 18-120 94-211 68-81 118-176 126-240 10-72 28-26 27 69v87l-44 130-44 130v143l34 66c36 72 101 144 186 207 30 22 54 42 54 44 0 3-15 2-32-1-68-12-130-37-173-69l-43-34-6 16c-3 8-6 22-6 31 0 24-54 134-73 150l-16 14 6-47zm2803-2c-28-44-41-77-54-135l-6-28-45 34c-42 33-105 58-172 70-18 3-33 4-33 2s26-23 57-47c89-67 150-135 186-208l32-66v-70c0-53-9-96-37-180-58-175-67-237-46-310l11-40 8 44c13 71 61 160 129 241 71 85 87 116 96 192l6 53-35 105c-46 139-60 208-61 307-1 46-2 83-4 83-1 0-16-21-32-47zm-2220 7c0-40 87-118 187-167 51-26 95-44 98-41s-31 31-75 63c-45 31-110 81-146 111l-64 55v-21zm1650 5c-19-23-126-108-208-165-34-23-60-45-58-48 7-6 131 53 187 89 52 33 103 98 97 125l-3 17-15-18zm-2353-47c-10-24-43-85-74-134-109-172-140-284-110-397 20-74 52-128 135-224 37-43 77-92 89-108l22-30 1 44c0 66-27 156-78 261l-46 95v70l-1 70 44 110c46 115 60 194 44 254l-9 35-17-46zm3050 6c-13-76-6-114 40-236l48-123v-140l-48-98c-50-104-80-208-75-262l3-33 95 114c52 63 108 142 125 177l29 62 1 80c0 102-18 154-102 292-36 59-76 130-88 157l-22 50-6-40zm-1667-17c36-13 84-34 108-46l43-22 82 34c45 19 96 40 112 46l30 11-60-8c-77-9-243-9-320 1l-60 7 65-23zm-273-47c48-71 170-180 262-235 99-59 138-93 147-129 11-44-17-73-96-97l-70-21-100 4-101 3 21-17c113-92 534-103 700-18 21 11 41 23 43 27 3 5-40 6-94 5l-99-4-70 21c-79 24-107 53-96 97 9 36 48 70 147 129 92 55 215 165 262 235l30 45-44-42c-53-50-83-63-135-57-54 7-96-21-112-73l-12-40-41-19c-57-25-170-25-227 0l-42 19-10 37c-15 56-42 75-109 76-31 1-61 2-67 3-7 0-36 22-65 49l-53 47 31-45zm-684-96c-83-85-119-149-135-242-19-113-4-176 87-356 41-83 81-175 88-204s16-49 20-46c4 4 7 45 7 91v83l-37 107-36 108-5 110-4 110 21 87c11 48 32 115 46 149s23 65 20 67c-2 3-35-26-72-64zm2152 50c4-10 24-64 44-119l36-100-1-150v-150l-37-103-37-104v-78c0-114 10-126 31-40 11 43 48 128 88 204 80 154 96 210 88 314-9 118-87 251-190 324l-31 22 9-20zm-1881-33c26-48 65-81 151-121 71-34 221-81 257-80 7 0-52 32-130 71-79 38-167 84-196 103-28 18-62 38-74 45l-23 12 15-30zm1650 2c-21-15-118-67-214-115s-167-88-159-88c65 0 265 74 340 126 29 20 91 104 76 104-2 0-22-12-43-27zm-1814-100c-12-32-25-88-27-124l-6-67 40-88c22-49 44-98 48-109s9-83 10-160l3-140 21-59c24-68 62-136 87-157l17-14-8 35c-16 68-8 240 14 310 23 73 78 170 122 216l30 31-52 7c-70 9-109 27-158 71-53 48-88 125-102 222-6 43-12 79-14 81s-13-23-25-55zm1972-20c-25-180-111-279-260-299l-53-7 30-31c46-48 100-144 124-221 23-74 31-249 14-310l-8-29 19 17c66 60 118 238 107 367-7 89 9 160 57 252 42 82 48 152 19 245-31 102-36 104-49 16zm-1790-65c31-41 131-92 206-107 32-6 110-13 173-16l114-5-155 40c-85 23-199 59-254 81-54 21-100 39-103 39s6-14 19-32zm1568-4c-41-18-145-51-230-74-85-22-159-43-165-45-21-10 226 5 275 17 74 17 169 68 198 106 31 40 19 40-78-4zm-1275-253c-116-53-215-232-215-387 0-97 2-98 76-53 36 22 69 37 74 34s12-21 16-40c9-48 22-53 48-20s29 30 47-48l12-58 27 26c14 14 31 25 37 25s16-20 23-45 15-45 18-45 20 11 38 25 35 25 37 25c3 0 10-21 16-46l12-47 28 27c15 14 30 26 33 26s16-25 28-55 26-55 30-55 15 11 24 25 21 25 26 25 29-29 53-65l44-65 41 65c23 36 46 65 51 65 6 0 18-11 27-25s20-25 24-25 15 19 25 43c26 65 34 71 61 46 28-26 41-19 50 26 3 19 8 35 11 35s18-11 35-25c16-14 33-25 37-25 5 0 14 20 21 45s16 48 20 50 18-7 30-20c13-14 27-25 31-25s13 24 19 53c17 71 18 72 50 42l28-27 12 39c7 21 16 41 19 46 7 7 116-47 127-64 14-23 24 8 24 76 0 178-102 355-233 404-48 19-50 12-10-33 45-51 63-101 63-173 0-58-7-69-30-48-9 8-31 18-48 21l-32 7v-24c0-38-15-53-43-45l-26 6-7-36c-7-36-11-38-55-20-12 5-19-1-27-23-12-35-19-37-46-16-24 18-36 19-36 2 0-7-6-22-14-32l-13-18-31 22-31 22-7-26c-7-27-23-32-42-12-18 17-139 18-153 0-18-21-36-15-43 12l-7 26-29-21c-30-21-50-20-50 3 0 7-4 18-9 26l-9 14-27-17c-29-19-41-14-47 19-2 12-11 19-21 18-9-2-24-4-34-5-11-2-19 7-25 30l-9 32-25-6c-30-8-44 7-44 49 0 33-4 33-58 2l-43-24-6 15c-10 26 4 129 22 165 9 19 31 49 48 67 35 37 23 41-38 13z"/></g></svg></g></svg>