<svg xmlns="http://www.w3.org/2000/svg" xmlns:xlink="http://www.w3.org/1999/xlink" width="773" height="602"><g><svg xmlns="http://www.w3.org/2000/svg" xmlns:xlink="http://www.w3.org/1999/xlink" width="773" height="602"/><svg xmlns="http://www.w3.org/2000/svg" width="773" height="602" version="1.0"><g fill="#fdfdfd" transform="matrix(.1 0 0 -.1 0 602)"><path d="M0 3010V0h7730v6020H0V3010z"/></g></svg><svg xmlns="http://www.w3.org/2000/svg" width="773" height="602" version="1.0"><g fill="#9a9a9a" transform="matrix(.1 0 0 -.1 0 602)"><path d="M2839 4689c-369-40-663-298-746-654l-18-80V1905l23-90c28-111 55-171 120-267 115-170 267-282 469-345l88-28 1010-3c739-2 1030 0 1085 8 344 54 605 289 698 629l27 96v2040l-14 60c-78 348-314 591-654 671l-72 18-970 2c-533 1-1004-2-1046-7zm2106-103c88-26 212-89 277-140 120-96 223-253 265-406l18-65V1885l-23-75c-85-272-306-479-569-535l-68-15H2813l-79 20c-251 63-455 254-542 505l-27 80-3 1038-3 1038 21 85c67 282 305 512 589 569l66 13 1025-2 1025-2 60-18zm-2077-280c-29-32-51-68-58-96-15-53-8-163 16-253 23-86 21-170-5-242-29-78-40-140-30-157 6-9 9-7 9 8 0 39 50 124 78 131 25 6 33 0 70-53l13-19-5 62c-3 44-18 97-51 178-90 224-92 375-5 420s215-28 338-193c38-53 66-79 96-93 58-26 75-25 47 5l-22 23 23 7 23 6-53 19-52 18-93 94-92 95-96 47c-53 26-98 47-100 46s-25-24-51-53zm1770 3l-97-50-85-91-85-91-52-17-51-18 18-11 19-11-24-20-23-20h18c48 0 104 42 164 124 63 86 127 142 201 175 66 31 103 27 146-13l38-34 3-74c5-89-12-161-69-303-28-67-43-122-46-165l-5-65 24 35c13 19 33 36 44 38 28 4 63-38 85-100l18-53v43c1 24-10 69-24 104-38 93-41 147-14 258 27 113 31 250 9 291-18 32-97 119-108 118-4 0-51-23-104-50zm-1598-215c0-10 25-42 55-70l55-53-20-6c-11-3-25-15-30-26-13-22-4-24 30-4 26 15 72 20 83 8 4-3 2-12-5-20-21-26-1-23 35 6l36 28-17 15c-9 8-39 27-65 42-27 15-51 35-55 44l-6 17-6-24-5-23-43 42c-32 32-42 38-42 24zm1545-24c-44-46-56-50-48-17l6 22-25-27c-14-14-40-34-59-43-19-10-44-26-57-36l-23-17 19-6c11-4 27-15 37-26 23-26 39-26 25-1-5 11-10 22-10 25 0 11 51 6 87-9 48-20 50-19 23 10-13 14-30 25-38 25s3 13 25 29c38 27 91 97 81 106-2 3-22-13-43-35zm-1047-59c-92-30-233-125-259-173l-11-21 28 20c136 96 321 126 480 78l52-15 88 21c153 37 291 15 429-67l60-36-25 28c-68 76-163 138-253 166l-69 21-92-8c-109-9-140-9-271-1l-100 6-57-19zm-35-151c-74-16-136-49-191-103-50-49-119-143-111-152 2-2 36 18 74 44 135 90 303 121 476 86l86-16 76 15c192 40 379-1 515-111 52-43 53-29 3 46-56 82-129 144-203 172l-63 24h-105c-71-1-125-7-166-19l-61-18-54 17c-64 19-217 28-276 15zm-398-156c-16-13-101-73-189-132-179-121-230-166-257-226-28-65-49-155-49-216 0-78-25-182-60-258-16-35-30-66-30-68 0-3 13 2 30 11l30 15-30-81c-16-45-37-93-45-105-24-36-18-38 31-9l46 27-5-18c-3-11-9-35-13-54-3-19-15-54-25-77l-18-43 27 6c45 11 65 24 125 82l57 56 2-49c0-28 0-63-1-78l-2-28 23 11c13 7 41 30 63 51l40 38 2-46c2-65 14-71 60-30l39 36 62-31c43-21 84-33 131-37 103-10 110-3 51 44-36 28-60 58-80 100l-28 60-6 99c-4 77-11 111-32 155-41 88-74 191-74 230 0 23 18 72 50 135 51 101 53 113 28 179-14 35-24 34-32-4-3-17-29-55-59-87-80-85-87-98-87-167 0-77 19-151 71-273 45-104 64-212 38-212-30 0-116 49-145 83-18 19-40 59-50 89l-19 53v145c1 227 27 291 168 408 94 79 151 141 185 201 26 47 20 51-23 15zm1435-14c24-43 110-135 237-250 46-42 65-68 81-112 49-133 56-312 17-437l-26-80-38-33c-38-32-129-73-139-63-17 17 4 110 48 215 51 120 80 258 66 313-3 15-38 63-76 108-39 44-70 89-70 99 0 35-18 30-34-10-23-58-21-69 31-167l47-88v-55c0-43-10-79-49-170l-49-115-7-100c-9-143-35-194-134-267l-40-30 91 4 91 3 63 32 63 33 26-26c32-32 58-47 65-36 3 5 7 28 8 50 3 48 11 52 34 17 13-20 72-65 85-65 2 0 4 33 4 74v74l17-9c9-5 30-25 46-45 28-34 111-84 139-84 10 0 9 9-6 38-14 29-41 123-41 147 0 2 20-8 45-21l44-25-33 73c-19 40-39 90-44 111l-11 39 25-17c14-9 27-15 29-13s-10 32-27 66c-31 67-51 157-67 309-12 117-46 197-110 256-25 24-122 95-215 157-92 63-178 122-189 130l-21 15 24-45zm-1047-25c-47-24-141-111-131-121 3-2 31 6 64 18l59 21h120c94 0 132-4 174-19l53-20 57 20c82 29 261 28 351-2 35-11 66-20 67-18 9 8-106 111-141 127-55 25-141 23-246-5l-85-22-89 23c-120 31-188 30-253-2zm111-169c-23-7-51-20-63-28l-22-16 78 1h78l79-32 79-33 86 34c68 26 100 33 154 32 37 0 67 1 67 3 0 1-18 12-41 23-59 31-126 36-201 15l-63-17-62 16c-72 19-113 19-169 2zm-329-76c-11-12-40-36-65-53-106-71-149-133-157-226l-5-56 29-41c15-23 41-60 56-82 16-22 31-59 34-82 8-55 26-37 27 27 1 32-8 69-27 110-15 34-31 85-34 112l-6 49 27 17 26 17 32-11c18-6 60-40 93-74 48-50 70-66 107-75 58-15 68-31 69-114 1-35 4-74 8-87 9-33 46 207 38 248-17 84-95 134-200 130-145-5-177 2-177 37 0 27 39 37 81 20 22-9 49-16 62-16h22l-29 24-30 23 23 52c26 61 24 82-4 51zm85-228c0-10 5-23 12-30 15-15 60-16 75-1 7 7 13 7 17 1 9-14-21-42-45-42-27 0-75 26-82 45-7 18 1 45 14 45 5 0 9-8 9-18zm1010 233c0-4 10-29 22-57l22-51-30-23-29-24h23c12 0 39 7 59 15 20 9 44 13 54 10 24-8 32-36 15-53-14-15-47-17-166-13-77 3-126-15-163-59-44-51-49-90-27-202 11-55 20-109 20-120 0-12 3-19 6-15 3 3 9 47 12 98l7 93 25 12c101 46 121 60 147 97 31 45 101 82 134 72 46-15 44-80-6-202-25-63-30-111-15-148l8-20 7 30c13 56 27 84 71 141 24 31 45 68 45 83 6 104-28 183-103 240-87 67-138 102-138 96zm-35-232c8-22-45-73-76-73-29 0-59 18-59 35 0 18 5 19 29 4 27-18 70-3 77 26s19 32 29 8zm-299 165c-45-69-57-121-45-206 12-83 11-79 70-235 67-172 92-282 87-376l-4-74 13 32c36 88 27 183-34 376-27 82-36 129-37 185l-1 76 32 49c18 27 30 51 28 53s-13-2-25-8-33-9-46-6l-24 6v51c0 27 7 66 15 86 23 55 11 51-29-9zm-684-77c-9-5-2-10 23-14 56-9 118-43 146-79l24-33v-60c0-33-4-94-9-135-6-54-5-92 5-135l13-60 7 100c3 55 14 135 23 178 31 134 3 207-91 235-46 14-122 16-141 3zm-105-457c-27-42-37-69-37-99v-40l22 38c36 62 50 44 24-31-19-53-31-132-20-132 14 1 84 152 84 180 0 14-9 51-19 84l-18 58-36-58zm1119-3c-24-75-18-117 28-201l36-65v40c0 22-7 62-15 89-25 83-14 98 26 32l19-31v34c0 20-14 59-35 98-20 34-37 63-38 63s-11-27-21-59zm-1700-318c-74-112-83-266-23-397 13-28 63-103 111-166s97-133 109-155l21-40 4 22c3 23-21 77-97 216-32 57-44 92-48 135l-5 57 34 90c40 102 52 157 42 187l-6 20-20-43c-10-24-29-54-41-67l-21-23-18 63c-10 38-15 78-11 101 3 20 3 37-1 37-3 0-17-17-30-37zm2302-4c2-22-2-67-9-99l-13-60-24 23c-14 12-33 41-44 65-10 23-22 42-25 42-15 0 9-123 38-195 24-59 32-96 32-140 0-64-3-74-96-248-26-48-47-100-47-115v-27l25 43c13 23 61 90 105 147s95 135 113 172l32 68v230l-36 64c-42 78-56 86-51 30zm-2004-102c-1-47-11-99-28-152-41-127-35-164 47-268 27-35 50-77 58-107 8-32 16-46 21-38 16 26 8 116-18 189-32 92-34 160-6 214 20 40 84 107 132 139l24 16h-34c-19 0-57-11-83-25l-47-26-6 18c-15 45-26 70-42 90l-17 23-1-73zm1728 61c-18-24-52-97-52-114v-17l-18 16c-24 22-86 47-117 47h-26l53-43c119-97 140-170 93-317-28-89-36-183-16-203 8-8 11-5 11 14 1 36 34 104 79 157 69 82 74 116 35 237-18 55-27 104-28 157 0 43-2 78-2 78-1 0-6-6-12-12zm-1372-26c0-31 57-82 128-115 35-16 65-27 68-25 2 3-24 25-58 49-35 24-80 59-100 78l-38 33v-20zm985-19c-22-19-69-55-105-79-75-51-67-56 23-16 61 28 127 89 127 117 0 19 2 20-45-22zm-1408 5c-4-12-29-61-56-108-28-46-56-108-62-137l-12-54 16-52c11-35 39-80 84-135l68-82 3 27c5 34-10 86-50 177-35 80-34 114 7 213 25 62 32 136 16 161-6 11-10 8-14-10zm1860 15c-17-17-6-116 20-176 37-86 35-144-7-226-22-45-34-84-37-125l-4-61 23 30c13 16 40 49 61 73 56 65 77 113 77 175 0 67-13 104-64 187-22 36-45 80-51 98s-15 29-18 25zm-1207-43c23-42 132-145 191-178 66-37 82-54 77-79-6-32-66-53-153-53h-80l30-20c86-57 369-56 437 0l23 19-75 1c-92 0-145 22-145 60v24l90 61c79 54 175 149 175 175 0 5-17-7-37-25-29-27-47-35-75-35-40 0-78-27-78-55 0-23-34-35-95-35s-95 12-95 35c0 29-38 55-80 55h-40l-42 38-41 37 13-25zm202-8c35-13 72-24 83-24s48 11 83 24l63 24h-292l63-24zm-597-69c-62-62-88-121-88-198v-60l51-103c28-57 54-119 58-138 3-19 10-34 15-34 18 0 9 118-17 201-31 103-29 188 9 299 14 41 24 76 22 78-1 2-24-19-50-45zm1321-13c49-121 53-225 14-335-27-73-31-105-22-155l8-45 17 55c9 30 37 95 62 143l45 88v62c0 79-26 137-88 200-25 26-49 47-53 47s4-27 17-60zm-1166 31c0-20 46-63 91-86 42-22 155-55 184-54 6 0-45 28-113 63s-128 68-135 75c-13 13-27 15-27 2zm1024-1c-6-6-66-39-135-75-68-35-121-65-117-65 26-1 123 27 174 50 54 24 104 68 104 91 0 12-14 11-26-1zm-1108-49c-10-19-20-60-23-91l-5-56 27-54 28-55 7-110c6-110 20-154 64-210l16-20-6 76-7 77 22 69c14 49 33 84 62 116l41 47h-37c-90 0-156 73-165 185l-5 60-19-34zm1194-6c0-118-73-205-171-205h-31l32-37c68-77 101-197 82-296l-10-48 21 18c39 35 61 102 67 213l6 105 27 56c31 64 33 99 11 166-22 66-34 76-34 28zm-1100-53c0-19 61-62 110-76 47-14 240-34 230-23-3 2-59 19-124 36-66 18-131 38-145 45-41 21-71 28-71 18zm963-13c-24-11-93-33-154-49s-114-32-117-35c-17-17 206 10 257 31 55 23 104 76 69 73-7 0-32-9-55-20zm-781-160c-82-41-130-145-123-271l1-27 42 24c45 26 58 25 58-6 0-10 7-19 15-19s15 5 15 10c0 25 20 6 26-25 7-40 10-41 35-19l17 15 7-30c7-34 16-38 35-16 17 20 30 19 30-3 0-28 11-34 31-16l18 16 16-37 15-38 18 17 19 16 15-17c9-10 21-29 28-42l12-24 23 36c30 51 32 52 54 33l18-17 13 31c13 31 24 37 35 20s24-11 31 15c7 29 11 30 36 8l18-16 11 32 11 32 17-15c25-22 28-20 36 20l6 36 18-17 19-16 11 32 11 31 45-26 45-27v60c0 111-63 220-144 251-32 12-50 4-23-11 26-15 47-63 47-109v-41l-29 16-30 15-3-23c-2-14-11-23-25-25-15-2-23-10-23-23 0-22-11-24-28-7-10 10-14 8-18-10-5-17-11-21-29-16-15 4-24 0-28-11-5-12-11-14-26-5-16 8-22 7-29-6-6-11-11-13-16-5-9 15-93 14-102-1-5-7-11-5-21 7-10 15-16 16-25 7-17-17-25-15-31 10l-6 21-16-13-16-13-13 18c-8 11-20 16-30 12s-16-1-16 9c0 8-11 19-25 24s-25 17-25 25c0 13-7 15-35 9l-35-6v21c0 30 27 92 52 118 27 29 15 29-40 2z"/></g></svg><svg xmlns="http://www.w3.org/2000/svg" width="773" height="602" version="1.0"><g fill="#080808" transform="matrix(.1 0 0 -.1 0 602)"><path d="M2787 4680c-325-56-588-291-679-607l-23-78V1865l28-90c49-155 136-289 255-391 139-119 288-182 474-203 123-14 1855-15 1984-1 169 18 319 79 451 185 145 116 252 289 293 474l21 93-3 1032-3 1031-28 90c-89 284-296 487-589 577l-73 23-1030 1c-566 1-1052-2-1078-6zm2206-106c127-46 190-87 297-194l95-96 43-84c23-47 51-121 62-164l20-79V1913l-20-79c-69-272-270-476-546-556l-79-23H2825l-65 14c-289 64-501 271-587 571l-18 65v2040l18 76c32 135 101 260 201 361 100 102 220 171 361 209l70 18 1050-2 1050-2 88-31zm-2126-274c-72-80-80-156-36-345 26-109 24-156-11-255-17-46-30-96-30-110l1-25 13 37c19 54 43 87 73 101l25 11 17-21c9-11 22-29 29-39l13-19-6 55c-4 30-18 82-32 115-84 200-112 357-76 424 40 76 105 92 197 47 69-34 125-84 189-171 51-68 106-115 135-115h14l-12 15-13 16 17 12 17 13-45 12-46 12-91 95-92 94-87 46c-49 25-95 45-103 45s-35-23-60-50zm1768 2l-90-46-95-97-95-97-39-8-39-7 19-14 19-14-19-15-20-14h20c35 0 83 39 134 109 81 111 161 174 254 200l39 10 34-16c18-8 42-26 53-40 48-61 30-210-47-398-26-63-47-133-50-165l-6-55 25 35c13 19 32 36 41 38 25 5 75-53 91-107 12-36 15-40 15-19 1 15-10 58-24 95-37 101-41 170-16 285 24 113 27 224 7 273-15 36-91 115-110 115-6-1-51-22-101-48zm-1588-217c15-28 54-69 87-90l27-18-32-19c-34-20-34-37-1-19 12 6 37 11 58 11h36l-5-19c-3-14-1-18 9-14 8 3 14 9 14 14s10 13 22 18l22 8-50 28c-27 16-62 40-78 54l-28 26 6-22c10-32 2-29-51 20-25 23-41 33-36 22zm1529-30c-45-40-62-45-45-12l12 22-29-26c-16-14-50-38-77-53l-47-27 29-25c35-29 41-30 34-3l-6 21 44-4c24-3 53-8 64-12l20-8-24 21c-13 12-30 21-39 21-12 0-9 5 8 17 36 23 80 65 91 86 13 23 10 22-35-18zm-989-36c-76-11-181-67-254-135l-58-54 57 34c32 18 89 43 128 56l70 23 108-5c59-3 126-12 148-20l42-15 68 18c105 27 241 25 328-6 39-13 93-38 120-55l51-30-60 55c-119 111-253 154-409 133-98-13-83-13-186 1-46 6-87 10-90 10-3-1-31-5-63-10zm-124-174c-96-29-187-108-244-208l-23-42 39 31c62 48 124 80 200 104 90 28 240 31 334 6l63-17 67 17c89 23 238 23 316 0 67-20 141-55 203-98 23-16 42-25 42-21s-23 38-50 75c-60 79-147 141-220 157s-196 14-284-5l-76-16-70 16c-83 19-239 20-297 1zm-512-253c-102-69-206-146-231-171-60-58-88-133-101-261s-35-225-64-289c-30-64-30-64-4-51 11 7 23 10 25 7 5-5-41-138-63-181l-15-29 36 21c21 12 40 22 42 22 10 0-8-85-27-129-23-53-23-51-2-51 25 0 98 46 116 74 9 13 30 34 47 46l32 23-4-77c-2-52 1-76 8-76s35 21 63 46l51 46v-45c0-25 5-49 11-52 6-4 28 7 49 24s42 31 45 31c4 0 19-9 35-20 37-26 131-50 199-50h54l-39 29c-93 68-125 133-132 271l-4 95-47 105-46 105v150l39 65c45 75 54 121 33 170l-14 35-16-37c-8-20-43-66-76-102-70-75-78-102-62-205 11-70 18-92 79-241 17-41 34-99 38-127l7-53h-25c-35 0-124 47-153 81-31 37-65 144-72 229-7 81 11 225 38 294 25 69 59 112 144 182 39 32 83 72 98 89 34 37 105 137 95 134-2-1-86-58-187-127zm1589 108c30-59 85-122 170-194 146-124 170-169 190-361 16-152-15-300-75-360-36-35-113-75-146-75h-22l7 57c4 31 18 84 32 117 71 169 90 248 85 357-1 18-24 52-70 103-42 46-72 89-77 109l-7 32-13-30c-24-56-17-99 32-192l46-88-4-55c-3-36-20-91-50-160l-45-105-7-95c-3-52-14-117-22-144-16-47-69-111-124-149l-25-18 81 5c81 4 170 33 195 62l12 14 38-35c22-19 43-35 48-35 11 0 21 35 21 74v29l50-47c27-25 54-46 59-46 6 0 11 34 13 77l3 77 50-53c48-50 110-91 138-91 10 0 8 15-9 68-13 37-24 77-24 90v22l39-19 38-20-33 77c-39 92-50 132-36 132 6 0 14-4 17-10 3-5 10-10 15-10 4 0-7 38-26 84l-34 84-14 134c-21 191-53 272-133 335-21 17-110 79-198 138s-169 115-179 124l-19 16 13-25zm-995-19c-49-12-87-37-139-90l-49-50 79 25c96 31 227 34 314 8 68-21 100-21 170 0 80 24 218 23 300-3 36-11 69-21 75-21 17 0-69 81-115 108l-44 26-81-2c-49-1-108-10-149-22l-68-22-77 20c-90 24-175 32-216 23zm75-185c-25-6-55-19-67-27l-22-15 57 4c57 3 95-6 197-46l50-20 75 31c59 24 91 31 147 31l73 1-23 17c-12 10-46 22-75 28l-53 12-75-18-75-18-64 17c-73 20-84 20-145 3zm-339-80c-7-8-43-35-81-61-100-68-140-133-140-228 0-53 4-61 68-150 18-26 35-60 38-77 10-50 24-45 24 8 0 32-9 70-26 106-34 74-43 156-19 179 19 20 57 22 88 6 12-7 49-40 82-74 35-36 72-65 90-69 17-4 40-14 53-22l22-14 1-58c1-31 5-70 9-87l8-30 1 25c0 14 8 62 17 107 20 101 13 142-31 192-46 50-95 64-199 56-51-4-92-3-109 4l-28 11 3 28 3 27 35-2c19-1 51-5 70-9l35-7-23 19-23 19 25 58c26 58 28 68 7 43zm84-228c16-34 40-44 69-28 30 16 45 7 30-18-17-26-75-27-107-2-26 20-35 49-20 63 11 12 18 8 28-15zm1020 207c30-68 30-86 4-107l-24-19 25 6c14 4 40 12 58 18 37 13 65 2 70-28 7-33-16-40-136-40h-117l-38-19c-46-22-87-88-86-137 0-19 8-77 18-129l19-95 1 70c2 100 13 118 91 146 20 7 62 41 95 76 47 50 68 65 98 70 75 12 95-41 56-147-44-119-49-142-40-174l8-31 11 40c6 22 34 71 62 109l50 69v46c0 97-43 168-138 233-26 17-60 43-75 57l-29 26 17-40zm-47-212c4-27-41-63-79-63-41 0-59 10-59 32 0 15 4 18 18 13 38-17 66-11 80 18 15 31 35 31 40 0zm-308 160c-16-25-33-62-36-81-11-60 2-154 36-247 17-49 50-142 73-205l41-115 6-100 6-100 8 48c14 83 2 184-40 312l-38 120-1 85v85l27 41 27 42-39-5-39-6-12 26c-9 21-9 39 3 87 8 33 13 60 11 60s-17-21-33-47zm-665-62l-20-10h21c36-1 107-30 133-54 13-12 32-41 42-63l19-42-15-102c-15-98-13-168 6-215 5-12 8 14 8 69 1 48 8 116 17 150 9 33 17 87 17 119 0 68-20 102-75 130-43 21-125 31-153 18zm1001-472c-22-74-17-104 29-184l35-60v31c0 17-7 51-16 77-8 25-14 58-12 74l3 28 28-40 29-40-7 40c-5 30-58 135-69 135-1 0-10-27-20-61zm-1121 6c-14-26-29-63-32-83l-5-37 20 31c43 67 55 43 27-50-8-27-15-63-14-80l1-31 40 83 41 83-18 64c-9 36-21 65-25 65-5 0-20-20-35-45zm-585-331c-38-61-54-140-47-238 7-99 39-167 143-302 42-55 87-118 101-141 14-24 27-43 28-43 12 0-30 101-74 177-85 148-91 202-36 344 22 58 35 108 35 138v46l-19-40c-11-22-32-53-47-70l-29-29-9 49c-5 28-10 74-10 103-1 28-2 52-4 52-1 0-16-21-32-46zm2313 4c0-58-14-158-23-158-12 0-47 44-69 85l-21 40v-43c0-25 15-81 35-133 24-63 35-107 35-145v-53l-75-146c-76-148-100-218-45-132 16 26 65 94 108 150s88 123 100 150c52 111 55 239 7 345-37 84-53 95-52 40zm-2003-79c0-41-14-106-52-236-16-57-1-103 61-183 31-39 55-84 63-112 7-31 15-44 20-36 15 25 8 86-22 183-16 54-30 112-30 129 1 65 65 163 136 207 19 12 33 23 30 26-8 9-113-26-126-42-18-22-30-19-30 8 0 12-11 40-25 62l-24 40-1-46zm1703 1c-12-25-24-53-27-63l-6-18-28 19c-26 19-110 47-118 40-2-3 19-21 46-42 27-20 62-58 79-84 46-71 48-110 12-226-31-100-39-169-21-196l10-15v23c0 36 28 93 69 142 73 87 80 124 45 234-14 44-29 115-33 156l-7 75-21-45zm-1353 21c0-22 58-75 112-102 33-17 61-29 63-27s-37 33-86 70-89 64-89 59zm-441-56c-15-27-43-81-63-119l-36-68v-58c0-40 7-69 23-98 22-42 128-174 134-169 9 10-23 129-48 179-38 75-38 126 1 223 29 74 35 115 22 145-5 11-14 2-33-35zm1431 40c-7-9-41-36-76-62s-62-49-60-51c3-2 32 11 66 29 56 30 100 69 100 90 0 14-16 10-30-6zm445-8c-11-27 1-94 30-162 32-77 32-129 0-189-29-55-58-148-53-176 2-15 15-5 61 49 121 145 127 223 27 386-23 38-46 78-50 89l-8 21-7-18zm-1002-19c27-10 55-22 62-28 10-8 22-7 46 5 18 10 47 22 65 29l33 11h-254l48-17zm-185-13c18-34 114-121 177-161 68-42 75-50 75-82 0-33-57-55-147-55-40 0-73-2-73-4s21-14 48-26l47-21 130-1c129 0 191 10 229 38l19 14h-69c-167-1-210 64-87 134 62 36 142 105 176 154l21 30-37-32c-28-25-46-32-74-31-37 1-73-27-73-58 0-13-58-34-95-34-48 0-95 21-101 45-9 35-30 48-72 47-29-1-44 5-71 31-21 20-30 25-23 12zm-418-71c-63-68-84-123-77-203l5-66 51-98c28-53 51-106 51-117s5-20 10-20c19 0 10 90-16 166l-26 75 4 92c3 68 11 108 30 155 14 34 22 62 18 62s-26-21-50-46zm1342-37c36-107 37-188 3-294-14-43-25-102-25-131 0-58 14-63 24-9 3 19 28 74 53 123l48 89v70c0 76-22 134-73 188-54 58-60 51-30-36zm-1168 46c12-24 35-41 89-67 39-19 90-37 112-41l40-6-113 60c-63 33-121 66-129 73l-16 13 17-32zm981-4c-16-11-70-41-120-66-69-35-82-44-55-40 59 9 150 47 186 79 52 46 45 64-11 27zm-1088-63c-23-67-21-91 10-156l26-55 7-110 7-110 26-52c15-28 30-54 34-56 5-3 6 31 4 74-4 94 15 161 64 230l34 47-44 11c-79 20-121 74-142 181l-9 45-17-49zm1205 2c-3-48-33-116-62-143-11-10-43-25-71-34l-51-17 26-31c15-17 36-53 48-80l23-48v-195l14 17c38 50 54 109 58 206l3 99 25 50c28 55 33 129 13 185-16 44-24 42-26-9zm-1091-39c20-38 111-71 207-75l87-4-105 29c-58 16-126 38-153 50l-47 20 11-20zm947-5c-32-14-97-36-145-49l-88-25 89 5c97 5 186 38 206 76 13 23 10 23-62-7zm-773-156c-70-38-125-140-125-230 0-32 2-58 5-58 2 0 19 9 37 20 41 25 58 25 58 2 0-28 11-34 31-16l18 16 6-36c8-41 11-42 37-19l18 16 6-31c7-36 19-40 46-15 14 13 18 13 18 2 0-8 4-20 9-28l9-15 16 13 15 12 16-30c18-36 23-37 40-14l13 17 29-46 29-46 12 27c7 14 19 35 28 46l15 20 13-17c18-24 22-23 36 12 13 31 24 37 35 20s23-11 29 16l7 26 19-17c22-20 40-13 40 16 0 20 24 26 35 9 10-16 22-3 29 31l6 32 20-18 19-17 7 26c7 31 19 32 62 6 18-11 35-20 39-20 3 0 3 29 1 65-7 86-47 167-101 206-50 36-81 40-49 7 26-28 42-70 42-109v-30l-22 7c-13 4-28 9-35 11-6 3-13-6-15-19-2-14-9-23-20-22-10 1-20-7-24-18-4-13-11-17-24-13s-20 0-25-15l-6-20-19 10c-15 8-21 6-29-7-8-14-14-16-28-7s-20 8-29-5c-9-11-16-12-25-5-15 12-73 11-101-1-13-5-18-2-18 9v16l-24-15-23-16-6 21-6 21-21-11-21-11-6 21c-4 15-11 19-25 14-14-4-21 0-25 15-4 16-11 20-24 16-14-5-19-1-19 14 0 29-17 35-45 17l-25-16v40c0 45 11 73 43 108 23 24 8 30-28 10z"/></g></svg></g></svg>