<svg xmlns="http://www.w3.org/2000/svg" xmlns:xlink="http://www.w3.org/1999/xlink" width="773" height="602"><g><svg xmlns="http://www.w3.org/2000/svg" xmlns:xlink="http://www.w3.org/1999/xlink" width="773" height="602"/><svg xmlns="http://www.w3.org/2000/svg" width="773" height="602" version="1.0"><g fill="#e8e8e8" transform="matrix(.1 0 0 -.1 0 602)"><path d="M0 3010V0h7730v6020H0V3010z"/></g></svg><svg xmlns="http://www.w3.org/2000/svg" width="773" height="602" version="1.0"><g fill="#a9a8a8" transform="matrix(.1 0 0 -.1 0 602)"><path d="M2885 5804c-393-86-677-403-715-800-14-151-14-3754 0-3894 42-400 327-718 718-797l87-18h1790l83 18c374 83 640 363 707 746l15 84v3812l-15 95c-54 356-290 627-640 737l-90 28-935 2-935 2-70-15zm128-71c-47-51-99-135-120-193-7-19-20-75-29-124s-25-123-36-165c-31-121-68-272-78-321l-10-45 51-156 52-157-68-112-67-113 6-36c32-188 67-463 63-492-3-20-26-109-52-197l-47-161 50-58 50-58 6-50c48-350 68-434 106-435h15l-14-9-15-9 13-15c6-9 14-28 17-43 3-16 8-31 12-34 17-12 42-61 37-70-3-6-2-10 3-10s9-6 9-12c1-23 12-70 18-76 3-3 8-2 12 2s1 12-7 17c-11 8-9 9 10 4 31-9 46-22 36-32-4-4-11-1-15 6-6 9-11 10-15 2-8-13 2-33 13-26 5 2 6-7 3-20l-4-25 23 4c13 3 26 5 29 6 3 2 8 2 12 1 4 0 11 14 16 31l8 33 29 2c21 1 25-1 17-9-15-15-16-38-2-38 6 0 10 6 10 14s5 18 12 22c6 4 8 3 5-2-3-6-2-16 2-23 6-9 10-5 15 13 3 14 11 26 16 26 14 0 12-18-2-23-7-2-9-8-5-13 5-5 14-2 21 8l12 16 24-19c14-10 21-19 15-19-5 0 1-7 14-14l23-13-16-6c-10-4-21 1-28 12s-18 17-27 13l-16-6 14 17c7 9 9 17 3 17-5 0-13-7-16-15-4-11 3-19 19-25 14-5 25-14 25-19 0-4 11-8 25-8 26 0 145-106 145-130 0-7 6-10 14-7 9 3 17-3 21-15 3-12 12-21 19-21s19-11 26-25 18-25 23-25c18 0 271-261 272-281 2-23 12-35 22-25 4 4 1 11-7 16l-15 10h17c19 0 34-40 25-64-4-10-1-13 9-9 7 3 14 9 14 15 0 5 16 26 36 47 19 22 41 47 48 56 8 11 18 15 26 10s11-3 8 6c-5 15 57 79 78 79 8 0 14 8 14 18s10 27 23 39c12 11 69 70 126 131 57 62 110 112 118 112s11 5 8 10c-4 6-1 9 7 8 7-2 12 3 11 9-2 7 13 19 32 27 23 10 33 20 29 29-3 8 2 17 11 21 9 3 14 2 11-3s7-14 23-19l29-10 15 16c17 18 17 18 18 60l1 27 14-35 14-35-3 33c-2 17 0 32 5 32 4 0 8-5 8-11s5-7 13-2c21 14 57 10 57-7v-15l10 15c6 10 6 16 0 18s-10 8-10 13c0 6 4 8 9 5s22 1 37 9c16 8 23 15 17 15-24 0-13 30 13 36l27 7-29 13c-16 7-22 13-14 13 34-2 49 2 65 17l16 16-18 14-18 13 22-6c29-7 34-35 8-50l-20-12h20c27 0 57 42 51 74-3 14 0 25 5 25s9 7 9 16 9 23 21 33c15 12 35 72 79 246 32 127 64 244 70 260l11 30 18-23 17-23-4 33c-3 25 2 38 17 52 26 24 26 27-3 106-14 36-46 132-71 215l-47 149 11 81c6 44 18 114 25 155 8 41 17 114 21 162l7 87-48 78c-27 43-61 95-76 117-17 23-26 47-23 60 2 11 14 64 26 117l22 96-32 139c-18 76-44 186-57 244-14 58-37 159-51 225-18 87-32 129-52 154-32 42-117 111-138 111-12 0-374-347-509-488l-41-43-139 1c-121 2-224-8-300-26l-22-6-64 99c-35 54-88 136-117 183-80 126-113 174-128 186-7 6-43 38-79 70-37 32-76 65-88 71-17 10 149 12 829 10l850-3 80-22c329-92 564-341 630-667l16-80-3-1985-3-1985-29-85c-38-112-74-183-137-266-130-173-310-285-524-329l-80-16-910 4-910 3-79 23c-85 24-194 75-266 124-63 43-141 118-134 128 3 5-1 9-9 9-26 0-135 160-129 189 2 8-1 10-9 5-9-5-11-1-7 14 4 12 3 20-2 17-10-6-22 24-14 36 3 5 1 9-4 9s-14 17-20 38c-6 20-17 55-24 77-10 31-13 465-16 2010l-2 1969 16 86c32 174 109 316 238 445 154 153 358 244 567 254l26 1-44-47zm177-64c56-45 106-91 112-103 9-19 44-74 135-212 30-45 68-135 125-297 11-32 17-68 14-81-3-12-29-70-57-127s-48-96-45-85c4 10 15 59 26 108s22 93 25 99c4 5-4 26-17 47-13 20-27 45-33 54-5 10-37 59-69 110-33 51-84 134-114 183-31 50-70 113-87 140-17 28-45 71-61 97-16 27-34 48-40 48-17 0-38-21-119-120-43-52-79-96-80-98-8-10 17 93 34 139 20 53 120 179 142 179 5 0 54-37 109-81zm1508-53c28-30 52-61 52-69s3-30 6-48l7-34-54 60c-72 80-99 105-115 105-13 0-54-60-166-240-36-58-89-143-118-190s-75-121-103-165l-50-80 32-128c18-71 30-131 27-135-3-3-6 0-6 6s-34 81-75 167c-41 85-75 162-75 169 0 8 24 63 54 123l54 108 204 201c112 111 212 206 223 212 26 14 40 5 103-62zm-1557-53l14-18-20 15c-11 8-22 16-24 17-2 2 0 3 6 3s17-8 24-17zm1439-1c0-4-9-13-20-20-22-13-27-3-8 16 14 14 28 16 28 4zm-23-57c-15-14-33-25-40-25s1 12 16 25c15 14 33 25 40 25s-1-12-16-25zm-1372-16c15-14-7-10-35 7l-25 15 25-7c14-3 29-10 35-15zm-45-15c0-2-9 0-20 6s-20 13-20 16c0 2 9 0 20-6s20-13 20-16zm1444 7c3-5-6-14-22-20-15-6-42-17-59-25-47-22-41-11 15 24 51 32 58 34 66 21zm-1449-39c-3-3-11 0-18 7-9 10-8 11 6 5 10-3 15-9 12-12zm1420-17c-22-14-47-25-55-25-9 0-21-5-28-12s-12-8-12-2c0 11 97 63 120 63 8 0-3-11-25-24zm35-14c0-13-16-22-56-31-41-10-35 6 10 26 37 16 46 17 46 5zm170-3c0-7 11-84 25-171s25-175 25-196c0-20-14-81-31-136l-31-99-15 19c-48 65-61 104-82 245-11 80-23 171-26 204-3 32-7 63-8 68-2 10 115 78 134 78 5 0 9-6 9-12zm-1770-57c0-13 2-13 9-3 4 8 19 12 32 10 31-4 42-57 12-59l-18-1 19-5 18-5-5-106c-4-59-6-108-7-110 0-2-4 0-10 3-5 3-10 1-10-4 0-6 3-11 8-11 4 0 8-16 9-35 2-19-1-35-6-35-16 0-61 27-55 33 4 3-6 4-22 1-32-6-40-11-31-20 4-4 13-1 21 5 10 8 16 9 21 1 3-5-1-13-9-16-12-5-13-9-3-18 18-19 47-27 44-14-1 7 8 13 21 14 16 1 22-4 21-20 0-11-3-15-6-8-8 20-23 14-23-9v-21l-14 11c-11 9-16 9-21 0-6-8-9-8-15 1-4 7-19 13-34 13l-26 2 16 12 16 11-29 16c-15 8-22 15-15 16 7 0 10 5 7 10-4 6-11 8-16 5-5-4-9-2-9 4 0 5 6 12 13 14 8 4 7 6-3 6-16 1-27 51-11 51 5 0 12 7 15 16l6 17-16-13-16-14 7 75c4 41 12 80 18 87 6 8 6 12-3 12-8 0-10 8-5 28 4 15 8 41 8 57v31l49-10c32-7 48-15 48-25zm1596 20c-6-10-66-33-66-26 0 3 15 11 33 19 40 18 39 18 33 7zm-1469-69c15-53 9-53-17-2-23 46-25 53-8 48 7-3 18-23 25-46zm58 1c4-21 9-47 11-58s10-54 19-95c8-41 15-77 15-80-1-3-14 20-30 50-27 52-46 120-42 147 2 6-2 14-8 18-5 3-10 17-10 31 0 17 6 24 19 24 14 0 21-10 26-37zm60 17c12 0 20-28 30-103 2-17 9-56 15-86 13-71 13-81-5-81-8 0-15 5-15 12 0 6-2 9-5 6-11-10 8-38 24-36 25 4 28-48 3-61l-19-10-33 162c-18 89-35 173-38 186l-5 24 17-6c10-4 24-7 31-7zm1339-5c-4-8-8-15-10-15s-4 7-4 15 4 15 10 15c5 0 7-7 4-15zm-1249-40c14-20 17-29 8-32-7-3-13-9-13-14 0-6 5-7 10-4 6 3 10-3 10-14 0-10-6-22-12-24-10-4-10-7 0-14 7-5 15-34 18-64 18-175 20-214 10-222-8-6-7-10 2-14 16-6 15-20-1-26-8-3-14 0-15 6-1 7-5 31-10 55-6 27-6 42 1 42 6 0 6 4 0 13-16 19-22 56-11 63 7 4 7 9 0 13-9 6-27 95-46 228l-6 41 17-2c9-2 26-15 38-31zm1204-7c-15-84-48-193-58-196-6-2-9-8-6-12 6-10-37-120-46-120-6 0 40 230 61 312 9 32 31 57 51 58 4 0 3-19-2-42zm-75-60c-8-35-19-71-25-82-7-13-7-16 0-11 8 4 8-1 2-17-4-13-11-44-15-70-4-27-11-48-16-48s-7-7-4-15c4-9 0-15-7-15-11 0-11-2 1-10 11-7 12-12 3-21-6-6-9-18-6-25 3-8 1-14-4-14s-9-8-10-17c-6-92-6-94-15-79-5 9-14 14-20 10s-6 1 1 14c6 11 8 28 5 36-3 9-3 24 1 34 4 9 7 29 6 44s1 32 4 38c4 6 9 39 11 73 3 34 10 65 17 69 7 5 8 8 1 8-8 0-8 18 0 65l11 66 25 13c45 25 48 21 34-46zm-88-25c-10-76-12-101-14-138-2-26-7-35-19-35h-18l14-9c17-11 9-110-10-121-8-5-8-10-1-14 12-7 5-37-12-48-6-4-5-13 5-24l14-17-15 5c-11 3-16 23-18 74l-3 69 18 14 18 14-17-6c-10-4-18-2-18 3 0 6 5 10 12 10 9 0 9 3 0 12-7 7-8 17-1 30 6 12 6 18-1 18-5 0-10 14-10 30 0 17 5 30 12 30 8 0 9 3 2 10-15 15-5 70 11 64 7-3 15 2 19 12 5 12 2 15-10 10l-17-6 14 17c14 19 40 43 47 43 2 0 1-21-2-47zm451 15c-3-7-5-2-5 12s2 19 5 13c2-7 2-19 0-25zm-1407-61c0-5-6-5-12-1-10 6-10 4-2-7 15-18 17-156 3-165-8-5-8-9 0-14 9-5 8-14-3-34l-14-28-2 48c-1 27-3 77-4 111 0 33-4 59-8 56-5-2-8 24-8 59v63l25-40c13-22 25-44 25-48zm-563-34l-1-108 47-119c26-65 47-126 47-134s-17-42-37-75l-37-61-19 45c-11 24-23 58-28 74-4 17-18 62-30 101l-21 71 37 156c21 87 39 157 40 157s2-48 2-107zm1980 45c-3-7-5-2-5 12s2 19 5 13c2-7 2-19 0-25zm-938-28l1-15-10 15c-5 8-9 24-9 35v20l9-20c5-11 9-27 9-35zm35 28c9-36 7-93-3-82-14 14-25 104-13 104 5 0 12-10 16-22zm36-45c0-81-8-78-16 6-5 42-3 61 5 61 7 0 11-24 11-67zm40 22c0-47-17-53-23-7-5 41-1 55 14 47 5-4 9-21 9-40zm-233 13c-3-8-6-5-6 6-1 11 2 17 5 13 3-3 4-12 1-19zm263 15c0-5-5-15-10-23l-10-15v23c0 12 5 22 10 22 6 0 10-3 10-7zm-306-45c3-15 2-30-4-33-5-3-10-2-10 3s-3 25-6 43c-8 41 10 29 20-13zm26 4c0-7-4-10-10-7-5 3-10 16-10 28v22l10-15c5-8 10-21 10-28zm-97-17c9-25 14-45 11-45-6 0-34 65-34 80 0 21 9 8 23-35zm31 28c3-10 8-36 11-58 7-47-7-31-30 35l-14 40h14c7 0 16-8 19-17zm1195-163c11-41 21-92 21-113 0-41-28-177-39-190-4-4-25 19-48 51l-41 58 31 115c22 80 31 135 30 184l-1 70 13-50c7-27 22-84 34-125zm-603 93c-2-15-8-29-14-31-8-2-9 5-1 27 13 38 19 39 15 4zm-816 7c0-5-6-10-12-10-8 0-9-3-3-8 14-10 13-84-1-89-7-2-11 17-12 57 0 45 3 60 14 60 8 0 14-4 14-10zm31-65c5 4 9 2 9-4 0-5-4-12-9-15-11-7-22 18-20 47 2 16 3 15 6-6 2-15 9-25 14-22zm-252-13c-1-10 1-24 4-32s8-32 12-53l6-39-14 14c-8 7-13 16-11 19s-3 27-11 53c-15 48-12 72 6 60 6-3 9-13 8-22zm-234 8c3-5 1-10-4-10-6 0-11 5-11 10 0 6 2 10 4 10 3 0 8-4 11-10zm1272-57c-7-83-6-83-16-58-5 11-5 25 0 31 6 7 4 16-6 24-18 15-20 34-2 24 7-5 6 0-3 11s-10 16-2 11c7-4 12-1 12 8s5 16 11 16c7 0 9-23 6-67zm-1071-5l4-32-16 16c-11 10-14 23-9 38 4 12 9 19 12 16s7-20 9-38zm101-1c4-42-5-77-18-77-6 0-9 6-6 14s1 28-5 44c-9 24-9 34 2 46 16 21 23 14 27-27zm738-63c33-42 81-99 106-128 48-54 89-110 89-121 0-4-11-4-25-1-15 4-25 2-25-4s-6-8-12-4c-7 4-4-2 6-14 26-30 17-35-21-11-21 14-30 26-27 37l6 17-12-17c-6-10-18-18-26-18s-12-4-9-10c3-5-1-10-10-10s-14 4-10 9c3 5 0 13-6 17-8 4-9 3-5-4s1-12-8-12-16 7-16 16c0 8-5 12-10 9-6-4-7-12-3-18 3-7-3-4-15 6-11 11-18 25-16 32 3 8-1 12-10 12-9-1-45 31-80 72l-65 75 16 30c9 17 34 57 56 89l40 57 16-14c9-8 43-50 76-92zm-305 6l52-91-15-22c-8-12-23-32-33-44-11-11-26-31-34-42-9-14-22-19-35-16-11 3-15 2-9-1 7-3 10-14 7-24-3-11-9-17-14-14s-9 1-9-5c0-7-9-7-25 1-18 8-22 14-13 19 22 14-1 23-28 10l-27-12-21 19c-12 11-26 18-33 15-6-2-14 1-18 6-6 10 10 35 120 191 26 36 52 73 58 83 7 9 15 17 18 17 4 0 30-41 59-90zm-590 44c86-75 167-148 252-226l97-90-26-39c-14-21-29-37-32-34-13 8-404 44-518 48l-41 1 10 21c29 54 152 262 163 275 7 8 20 30 29 48 18 35 23 34 66-4zm1575-115c44-66 90-137 102-157l22-36-52-19c-115-42-219-76-225-75-4 1-16-3-27-9-28-15-194-73-210-73-19 0-106 117-99 133 3 8 91 99 196 202l192 188 10-17c6-9 47-71 91-137zm-1242 126c-3-9-8-14-10-11-3 3-2 9 2 15 9 16 15 13 8-4zm-538-16c-4-5-1-9 4-9 6 0 11-5 11-11 0-7 8-18 18-26 10-9 11-11 2-7-29 15-58 48-53 61 3 7 9 10 14 7s7-10 4-15zm1493-11c3-16-26-33-37-22-3 4-1 9 6 11s9 11 6 20c-4 11-2 14 8 11 8-3 15-12 17-20zm-1413-9c3-4-4-7-15-6-10 1-22 7-24 13-5 13 31 7 39-7zm377-11c-8-8-9-4-5 13 4 13 8 18 11 10 2-7-1-18-6-23zm46 7c-3-3-9 2-12 12-6 14-5 15 5 6 7-7 10-15 7-18zm983-35c-7-3-9-14-6-22 4-9 1-19-6-24-8-4-10-3-5 4 4 7 2 12-3 12-6 0-10 5-8 12 3 19 21 36 31 31 4-3 3-9-3-13zm-1114-17c0-16-2-22-4-15-3 6-9 10-14 6-13-8-11 4 4 21 6 8 13 14 13 15 1 0 1-12 1-27zm86 12c-3-9-8-14-10-11-3 3-2 9 2 15 9 16 15 13 8-4zm869-17c-7-7-12-8-12-2s3 14 7 17c3 4 9 5 12 2 2-3-1-11-7-17zm198 18c0-3-4-8-10-11-5-3-10-1-10 4 0 6 5 11 10 11 6 0 10-2 10-4zm-1096-46c-5-5-10 3-11 18l-1 26 10-18c6-10 6-22 2-26zm973-26c-3-4-2-16 4-28l10-21-15 19c-14 17-13 36 1 36 4 0 3-3 0-6zm-512-250l14-199-45-88c-24-48-44-94-44-102 0-28-16-15-38 30l-22 46v199l44 123c24 67 50 142 57 166s14 40 16 34c2-5 10-99 18-209zm-90 61c-24-70-47-130-50-134-4-3-19 10-35 29l-28 34 41 55c78 109 111 151 114 147 2-1-17-60-42-131zm182-9c60-102 105-168 110-163 3 3-29 61-70 129s-79 134-86 148c-12 25 52-39 156-157l55-63-26-31c-30-36-29-31-26-131l2-77-31-45c-18-25-33-46-35-46s-28 44-58 98l-55 97-7 110c-4 61-9 148-12 195l-5 85 28-47c15-26 43-72 60-102zm223 3l15-11-22 5c-13 3-23 0-23-6s-3-8-6-4c-7 7 4 27 14 27 4 0 14-5 22-11zm-74-12c4-4 0-7-9-7s-18 4-21 9c-7 10 20 9 30-2zm693-85c-41-42-89-96-108-119-35-45-49-51-68-32-13 13 20 59 109 154 41 44 123 91 137 79 3-2-29-39-70-82zm-1164 12c33-36 62-78 65-93 3-14 3-72 0-129l-5-103-66 73c-36 40-80 90-99 111l-33 38 12 65c13 73 28 104 51 104 8 0 42-30 75-66zm500 56c3-5 1-10-4-10-6 0-11 5-11 10 0 6 2 10 4 10 3 0 8-4 11-10zm800-32c16-24 41-62 57-85 15-23 28-50 28-60v-18l-18 21c-9 12-39 47-66 78l-48 56 6 25c4 14 8 25 10 25s16-19 31-42zm-1892-61l98-93-21-19-21-19-69 69c-38 38-72 66-75 63s24-35 61-72l67-67-16-17-17-16-41 39c-51 50-72 90-66 124 3 14-1 33-8 41s-16 25-19 38c-15 46 30 21 127-71zm96 15l73-69-31-13-32-13-56 54c-31 30-70 66-86 82l-29 27h87l74-68zm86 16c51-45 54-54 24-63-14-5-31 0-53 16-42 31-96 81-96 88 0 4 18 5 40 3 29-3 52-15 85-44zm-373-45c-21-32-47-74-57-93s-20-30-22-23c-4 10 39 92 96 183l15 25 4-17c2-9-14-43-36-75zm452 48l27-28-16-7c-17-6-60 19-85 49l-12 15h29c19 0 39-10 57-29zm976-16c19-27 30-55 28-69-2-13-48-74-103-136l-100-111-7 38c-14 77-9 186 10 213 27 41 105 109 124 110 9 0 31-20 48-45zm450 39c0-7-130-164-135-164-11 0-35 13-35 20 0 17 142 150 160 150 6 0 10-3 10-6zm121-38c-16-60-152-199-173-178-6 6-7 16-2 25 15 26 176 198 181 193 2-2 0-20-6-40zm-1481 24l15-10-14-9c-13-8-61 12-61 25 0 8 46 3 60-6zm1230-60c-54-56-82-71-94-52s102 106 145 111c4 1-19-26-51-59zm342-33c-1-5 2-6 8-2 5 3 13-2 17-12s17-26 30-36c22-17 32-57 15-57-16 0-114 108-108 119 4 6 0 11-11 11h-18l15 10c10 6 11 10 3 10-7 0-13 10-13 22v23l33-40c17-22 31-43 29-48zm-1472 18v-55l25-22c14-12 25-28 25-36 0-9 3-13 6-10 10 10 96-90 88-103-5-9-2-10 9-6 10 3 17 2 17-2 0-5 14-22 30-38 29-27 41-51 20-38-5 3-10 2-10-3s-7-9-15-9-15 4-15 9c0 9-14 27-43 57-20 21-118 51-163 51-64-1-145-27-179-60-23-23-34-28-38-18-3 7-6 3-6-9-1-13-6-23-12-23-5 0-7 4-4 10s-1 7-9 4c-9-3-16-2-16 3s-18 29-40 53c-22 25-43 55-46 68-7 24 12 56 27 46 5-3 9 1 9 9 0 17 145 107 171 107 10 0 19 4 21 8 3 8 124 60 141 62 4 0 7-25 7-55zm-577 8c-9-7-17-21-18-30-1-10-23-52-48-93l-47-74v33c0 21 10 47 25 67 14 18 25 36 25 39 0 4 14 27 31 52 24 34 34 42 40 32 6-9 3-18-8-26zm1617-8c-25-26-55-34-48-12 5 12 45 37 62 37 5 0-1-11-14-25zm-60-5c0-5-5-10-11-10-5 0-7 5-4 10 3 6 8 10 11 10 2 0 4-4 4-10zm444-39c-5-6-34 20-34 30 0 5 8 1 18-8 10-10 17-20 16-22zm-1988-11c-23-6-36-50-14-50 8-1 5-6-7-16-11-8-19-17-18-19 2-3-15-33-37-67l-40-63v29c0 27 55 137 72 144 4 2 8 8 8 13s7 21 16 34c12 19 18 22 29 12l13-12-22-5zm1545 9c67-22 178-77 216-107l22-17-14-39c-8-21-17-42-22-45s-16-18-26-33c-10-16-25-28-33-28-11 0-14-5-10-16l6-17-15 13c-13 11-13 15-3 21l13 8-14 13c-8 7-11 8-8 2 4-7 0-17-8-24l-15-12v15c0 11-8 15-27 14s-27 2-25 11c1 8-2 11-7 7-6-3-29 4-52 15l-42 22-45-12c-70-17-117-46-153-92-18-24-39-49-48-55-8-7-12-13-8-13s3-9-3-20-16-20-23-19c-9 0-9 2 1 6 6 2 12 13 12 23s-6 20-12 23c-10 4-10 7 0 18l12 13v-14c0-7 3-11 6-8 3 4-2 20-10 37-21 41-20 51 7 51 16 0 18 3 9 9-11 6-5 18 25 48 21 21 67 73 102 114 76 87 99 109 115 109 7 0 42-9 77-21zm377-3c-2-12-10-29-19-37-8-8-31-29-51-47-62-58-54-17 9 48 32 32 59 59 61 59 1 1 1-10 0-23zm46-2c9-3 13-10 10-15s0-9 5-9c6 0 11 5 11 10 0 18 22 10 27-10 3-11 9-20 14-20 18 0 68-66 69-89v-25l-35 34c-20 19-34 39-31 46 2 6-2 11-9 11-15 0-83 53-84 66-1 9 3 9 23 1zm-1960-29c-7-16-24-21-24-6 0 8 7 13 27 20 1 1 0-6-3-14zm205-180c33-44 57-82 55-84s-50 38-107 90l-103 94 10 34 10 34 38-44c21-24 65-80 97-124zm1715 157c2-4-38-55-90-112-51-58-94-108-94-112 0-5-5-8-10-8-15 0 85 148 134 197 42 43 51 49 60 35zm-1899-22c4-6 1-9-7-8-7 2-12-3-10-10 1-8-2-11-7-8-13 8-24-29-16-54 5-15 3-18-8-14-9 3-16-3-20-15-3-13-1-19 5-15s5-2-1-14c-7-14-17-19-29-16-11 4-13 3-5-3 9-6 8-16-4-41-17-35-33-34-33 4 0 30 51 124 68 124 6 0 11 4 10 9-3 12 34 71 44 71 4 0 10-5 13-10zm2006-47c40-38 59-64 59-80v-24l-35 28c-19 15-33 33-31 40 3 7 0 10-7 7-7-2-18 5-25 16l-12 20h15c11 0 7 8-12 25-15 13-24 25-20 25 5 0 35-25 68-57zm-1010-62c-1-7 2-10 8-6 6 3 11 0 11-9 0-8 5-16 11-18 16-5 19-51 4-65-10-10-14-9-19 3-3 9-1 12 4 9 6-3 10-1 10 4 0 6-9 11-21 11-11 0-17-4-14-10 3-5-1-10-10-10-12 0-15 6-10 20 4 12 2 20-5 20-6 0-8-4-5-10 3-5-6-12-20-16-14-3-25-9-25-13 0-14-29-8-35 7-3 10 0 12 10 8 21-8 45 3 45 21v14l-16-16c-19-19-38-7-28 18 4 12 13 15 30 11 24-6 34 9 14 21-5 3-10 1-10-6 0-10-3-10-12-1s-6 17 12 37c13 14 20 25 16 25s-4 6 1 13c4 6 8 15 9 20 1 4 2 10 3 15 3 13 45-83 42-97zm923 77l6-23-104-104c-62-62-108-101-115-97-8 5 6 29 40 69 69 83 153 175 160 176 4 1 9-9 13-21zm-1761-141l69-64-17-7c-13-5-15-13-10-34l6-27-48 45c-86 81-153 149-153 157 0 5 3 18 6 30l6 23 37-30c20-16 67-58 104-93zm1781 68l6-24-116-116c-64-64-113-108-109-98 3 10 9 32 12 48 3 21 34 59 97 122 50 51 94 92 97 93 4 0 10-11 13-25zm79-31c27-27 37-45 37-68v-31l-34 35c-18 19-31 41-28 48 2 7-4 22-13 32-31 35-1 21 38-16zm-1430 10c24-9 21-50-5-68-51-36-128-2-128 56v31l58-6c32-4 66-9 75-13zm547-66v-83l-25 37c-14 20-25 42-25 49 0 12 39 79 46 79 2 0 4-37 4-82zm-1030-38c91-84 130-134 116-147-7-7-116 77-178 137l-57 55 6 28c3 15 7 27 9 25 1-2 48-46 104-98zm-152 53l1-28-10 18c-5 9-7 22-4 27 9 15 10 13 13-17zm881-28c0-5-9-26-19-45l-20-35 2 68 3 67 17-22c10-13 17-27 17-33zm1085-20c-27-22-72-63-101-92-53-53-91-79-100-69-3 2 48 57 112 122l118 116 10-18 10-18-49-41zm-484 37c0-34-16-56-53-76-31-15-84-7-98 16-15 24 77 87 129 88h22v-28zm-1507-19c-5-11-3-14 6-8l13 7-12-23c-7-13-21-32-31-42l-19-18v21c0 11 7 20 16 20 8 0 12 5 9 10-8 13 3 50 15 50 5 0 6-7 3-17zm447-13c0-10 58-40 77-40 9 0 11-5 7-12-6-10-5-10 7-1 18 15 74 10 97-9 9-7 13-8 9-1s5 15 23 21c16 6 29 8 27 4-1-4 2-8 7-9s12-7 16-13c5-8 9-7 13 5 4 9 3 13-3 10s-10 1-10 11c0 12 11 7 44-22l44-39-41-35c-22-19-65-56-95-82-31-27-62-48-70-48s-48 16-88 35-77 35-83 35c-14 0-22-16-36-74l-12-51-42 133c-24 74-41 135-39 137 1 2 30 16 63 32 56 28 85 32 85 13zm388-10c-1-16-3-30-4-30s-10 12-20 28l-17 27 16-14 17-14-6 17c-3 9-1 16 5 16s10-13 9-30zm196-1c-3-5-11-3-18 4-18 16-8 31 10 16 7-6 11-15 8-20zm1009-32c-46-50-114-100-125-89-6 6-18 8-27 5-19-6 41 52 90 86 19 14 41 32 49 42l15 18 8-21c5-14 2-27-10-41zm77-21c0-41-16-41-23-1-2 11-9 33-15 48-17 41-15 43 13 17 19-18 25-34 25-64zm-1994 12c35-34 64-65 64-69s-8-17-19-30l-18-23-57 59c-31 32-56 67-56 76 0 20 10 49 17 49 3 0 34-28 69-62zm1072-43l36-70 12-170c7-93 13-190 13-215l1-45-56 100c-30 55-84 154-119 220l-63 121 56 83 56 83 14-19c7-10 30-49 50-88zm484 61c4-6 6-17 3-24s0-10 5-7c6 3 10 13 10 21s2 14 4 14c5 0 76-41 76-43 0-1-14-47-30-102s-30-108-30-117c0-10-4-18-10-18-5 0-10 7-10 16 0 8-5 24-11 35l-10 20-67-36c-36-19-73-35-82-35-18 0-125 75-187 131l-42 38 20 6c10 4 19 11 19 16 0 6 4 8 8 5 8-5 57-17 77-18 6-1 27 2 48 6 30 6 37 4 31-5-4-8-3-10 5-5 6 4 18 4 24-1 7-4 4 0-7 10l-20 18 15 10c20 13 31 11 23-3-4-7-5-11-1-8 3 3 7 10 8 15 7 24 24 32 46 22 16-7 27-6 37 2 8 7 20 10 27 6 7-5 7 0-2 16-7 15-14 19-17 11-6-18-19-15-25 8l-5 19 32-6c17-3 34-11 38-17zm-718-45c36-58 44-88 28-106-5-6-28-55-52-110-62-144-110-242-110-225 0 30 40 356 46 375 13 41 46 125 49 125 2 0 20-26 39-59zm652 12c-3-3-12 2-20 10-12 11-13 16-3 20 13 4 33-21 23-30zm458 1c10-26 8-29-55-78-48-37-64-45-70-34-13 20-12 22 44 69 28 24 54 47 55 51 6 13 20 9 26-8zm-1934-130c0-5-5-16-10-24l-9-15-55 54-54 53 9 28 10 27 55-57c29-31 54-61 54-66zm-149 87c-6-10-7-21-4-25 3-3 1-6-5-6-10 0-11 21-3 48 1 1 6 2 11 2 7 0 7-6 1-19zm852-20c-5-3-9-17-10-31-1-53-8-80-20-84-7-3-13-16-14-28l-1-23-10 28c-5 15-14 27-19 27-13 0-11-14 4-29l12-14-19 7c-14 5-17 2-12-9 3-9 2-13-4-10-6 4-14-4-19-17-6-13-10-17-10-10-1 8-7 12-13 9-7-2-20 2-29 9l-16 14v-15c0-8 4-15 9-15 4 0 8-4 8-10 0-5-3-9-7-8-5 0-16-2-26-7-11-5-23-3-30 5-10 10-8 12 6 7 9-4 17-2 17 3 0 15-26 12-39-3-6-8-9-16-7-18 3-2-8-4-24-4-16-1-27 3-24 7 2 4-6 12-18 19l-23 12 15-18 15-19-30 21c-16 12-41 34-55 49-14 16-18 23-8 16l16-13 5 13c2 7-5 18-16 24s-16 14-11 16c10 6 137-51 142-63 2-4 16-4 32 1 16 4 31 6 34 2 3-3 6 2 6 11 0 19 179 169 193 160 5-3 5-8 0-12zm1255-13c2-8-23-35-56-60l-58-46-13 20c-7 11-11 21-9 22 2 2 27 22 57 45 54 42 74 47 79 19zm-1758-133c12-33 23-66 25-72 8-24 32-13 41 17l9 30 80-66c44-36 94-78 112-93l31-28 8-69c4-38 8-91 8-119l1-50-65-43-65-43-40 44c-55 59-118 136-188 226-67 88-69 90-123 156-22 28-44 55-48 62-8 14 11 54 61 130l35 53 48-38 48-37 22-60zm-277 75l48-50-11-20c-6-11-14-20-17-20-4 0-26 18-48 40l-41 41 4 29c2 17 7 30 11 30s28-23 54-50zm1872-21c19-33 35-65 35-71 0-14-76-106-200-242-31-34-91-101-135-151-44-49-85-96-92-103-9-10-24-5-72 23-36 21-61 43-61 52 0 10 10 56 21 104l22 87 34 36c19 19 60 57 90 83 31 26 66 58 79 71l23 24 12-41c7-23 15-41 19-41 3 0 18 39 31 87l25 86 55 28c30 16 59 29 66 29s28-27 48-61zm181 16c4-14 5-27 3-29-2-1-26-17-53-35-38-25-51-29-57-19-14 21-10 37 11 48 11 6 31 22 46 35 34 31 42 31 50 0zm-809-12c0-9-4-10-14-2-7 6-13 12-13 14 0 1 6 2 13 2 8 0 14-6 14-14zm-254-35c81-142 166-302 162-306-2-2-45 26-96 62s-98 66-104 66c-7 0-47-27-89-60s-76-58-76-56c0 6 64 152 88 201 11 22 28 58 38 80 31 68 45 70 77 13zm-992-84l-12-28-40 40-40 40 12 28 13 27 40-40 40-40-13-27zm2059 45c-51-40-80-60-80-55 0 2-3 11-6 19-7 20 85 82 100 67 8-8 4-17-14-31zm-7-61c-62-40-73-24-16 23l48 39 6-17c4-13-6-25-38-45zm-2104 11l24-31-15-31-15-31-25 40c-17 27-24 49-21 66 6 31 19 28 52-13zm1457 6c-9-9-16-13-16-8 0 12 22 34 28 28 2-2-3-11-12-20zm-86 5c0-5-5-10-11-10-5 0-7 5-4 10 3 6 8 10 11 10 2 0 4-4 4-10zm53-5c-3-9-8-14-10-11-3 3-2 9 2 15 9 16 15 13 8-4zm-618-72c-4-43-7-86-7-95 1-9-8-20-19-23-12-4-18-13-15-21 3-9-1-14-14-14h-20l18-18c13-14 21-16 32-8l15 11-14-17c-7-10-20-18-27-18-8 0-14-6-14-12 0-7-7-4-16 7l-15 20 6-27c5-19 3-28-5-28-6 0-8 5-5 10 3 6 2 10-4 10-5 0-11-6-14-12-2-7-8-1-12 13-9 34 29 173 58 214 23 33 70 85 76 85 2 0 1-35-4-77zm1208 45c9-18 42-73 73-123 96-153 115-187 109-193-8-8-27 20-125 182-50 82-90 146-90 141 0-11 104-197 152-270 37-58 44-85 23-91-9-3-59 78-155 249-18 32-34 56-37 53-4-4 43-92 134-251 38-65 44-85 24-85-10 0-54 69-125 198l-57 103 22 60c12 32 25 59 28 59 4 0 15-15 24-32zm-634-193c12-64 5-115-19-123-9-3-12 2-8 14 2 11-4 27-14 37-12 12-18 13-18 4 0-7 3-17 8-23 4-5-1-1-11 10s-15 26-13 33c4 8 1 11-5 8-6-4-8-14-5-22 4-8 1-11-5-8-6 4-8 13-5 20 3 8 1 28-4 47-4 18-11 75-13 127l-6 94 53-79c38-57 56-96 65-139zm755 179c-47-39-61-45-67-29-4 9 9 23 36 38 51 30 70 24 31-9zm-691-34c5 0 3 8-4 18l-14 17 21-18c12-9 28-15 37-12 8 4 17 2 20-2 3-5-13-9-36-8-41 1-87 21-87 38 0 5 12-1 26-12 15-12 31-21 37-21zm-1465-47l-11-14-25 24c-18 19-22 30-17 48l8 23 28-34c22-26 26-37 17-47zm119 48c-9-35-181-271-189-258-4 6-2 19 5 28 49 67 133 190 150 220 21 37 43 43 34 10zm2073 10c0-20-58-64-72-55-16 10-7 30 25 51 40 27 47 28 47 4zm-2124-19l-18-17 12 23c6 13 14 21 18 18 3-4-2-14-12-24zm1877 13c-3-9-8-14-10-11-3 3-2 9 2 15 9 16 15 13 8-4zm-1765-25c13-16 19-30 14-30-4 0-16 14-25 30-10 17-16 30-14 30s13-13 25-30zm1227 10c-3-5-14-10-23-9h-17l20 9c27 11 27 11 20 0zm520-38c-12-49-68-172-75-167-5 3-6-5-2-17 3-14 1-19-6-14-8 5-10 2-6-8 3-9 1-16-6-16-6 0-9-3-7-7 3-5-1-21-8-38-7-16-14-24-14-17-1 7-5 11-10 8s-7-16-3-29l5-22-14 11c-8 6-22 11-31 11-13 0-15-4-7-18 13-24 12-29-7-29-8 0-12-4-9-10 3-5 1-10-5-10s-9-4-6-9-1-11-9-14c-9-4-12-1-8 9 3 7 0 14-6 14-11 0-15-13-12-37 2-15-15-17-24-3-9 15-25 12-25-5 0-9-9-15-22-14-18 1-19 2-5 6 13 3 15 8 7 17-7 10-6 21 4 41 8 16 13 31 11 35-2 3 8 7 22 8 18 1 24-2 19-13-3-8-1-17 4-20 6-4 10 3 10 14 0 10 6 22 13 24 9 4 9 8-2 16-10 6-22 6-35-1l-21-11 15 17c8 10 15 25 16 34 3 20 23 31 43 25l16-5-17 15-18 14 26 19c14 10 32 32 40 47s19 25 25 22c5-4 8-3 7 2-4 12 38 63 52 63 6 0 9 4 6 9-3 4 3 16 13 25 13 11 21 14 26 7 12-20 25-11 16 11-5 14-4 27 3 34 17 18 28 5 21-24zm-1841-93c-32-46-64-90-71-97s-13-16-13-20-7-16-16-27l-15-20-8 14c-6 10 17 53 78 142l86 128 9-19c6-14-5-38-50-101zm2099 68l-27-27-9 17c-8 13-3 22 19 39 39 32 53 9 17-29zm-2218 13c14-15 16-23 7-32-15-15-42 7-42 33 0 25 12 24 35-1zm1124-37c36-25 91-64 121-87 30-22 56-41 58-42s-5-18-14-38c-14-27-20-33-31-25-7 6-19 9-27 6s-17 1-20 9-16 15-28 15c-17 1-18 2-5 6 9 2 17 11 17 19 0 17-17 19-22 2-3-9-12-7-33 6l-28 18 6-16 6-16-24 16c-14 9-23 20-20 24s-2 11-11 14c-8 3-13 2-10-3s-4-11-15-14c-12-3-18-10-14-16 3-7 0-8-9-5s-16 1-16-5-6-8-13-5c-8 3-20-2-27-11l-13-15 18 6c13 5 16 4 11-5-5-8-18-10-32-7-17 5-24 2-25-9-3-28-4-33-11-41-4-4-19 19-33 51-15 32-22 61-18 65s31 24 58 46c28 21 67 53 88 71 20 18 40 33 43 33 4 0 36-21 73-47zm-854 10c13-16 25-31 25-35s17-24 38-45c56-58 102-119 95-127-3-3-1-6 5-6 7 0 12-7 12-16 0-8 4-13 9-10 4 3 18-5 30-18l22-23-13-29c-16-37-29-46-45-32-9 7-13 7-13 0 0-12 29-24 41-16 5 3 9 1 9-5 0-16-24-19-38-4-8 7-17 11-22 8-4-3-25 11-46 30-20 19-42 36-48 38s-8 8-4 12 14 2 22-4l15-13-2 19c-1 15-7 18-26 15l-26-4 20 17 20 16-22-4c-26-6-29 2-10 22 7 8 7 11 1 8-16-9-36 17-28 37 3 9 2 16-3 16-14 0-33 47-27 65 4 8 2 15-4 15-12 0-43 86-34 94 11 11 23 6 47-21zm1809-133c17-30 40-70 53-89 13-18 23-43 23-55v-20l-14 14c-29 30-165 281-159 296 5 14 35-30 97-146zm184 109l13-41-18-13-17-13-22 32-22 31 21 23c11 12 23 22 26 22 4 0 12-18 19-41zm-2068 6c0-7-20-40-45-72-26-32-62-80-83-107-68-92-44-27 34 88 70 105 94 128 94 91zm-212-21c-10-10-28 6-28 24v16l17-17c9-9 14-19 11-23zm2038-69c20-38 54-99 76-134 24-40 35-68 29-74s-15 0-24 14c-88 143-137 239-137 267 0 24 13 6 56-73zm-2056 39c0-14-12-19-23-8-9 9 4 35 14 28 5-3 9-12 9-20zm206-86c-30-40-66-86-78-102l-24-28-12 15-12 15 77 104 78 104 13-18 13-18-55-72zm1814 26c0-3 28-51 61-105 42-67 58-104 52-110-10-10-22 8-120 187-36 68-48 123-13 66 11-18 20-35 20-38zm294 22c-3-9-10-16-15-16-14 0-11 28 4 33 16 6 19 3 11-17zm-2043-42c-3-6-35-48-71-92-49-62-66-78-72-67-6 10 13 42 64 109 56 73 74 91 79 78 4-9 4-22 0-28zm1737-26c18-35 48-91 68-126 27-47 34-66 25-75-6-6-12-9-13-6-20 31-128 251-128 258 0 26 18 6 48-51zm313 39c-10-9-11-8-5 6 3 10 9 15 12 12s0-11-7-18zm-1425-58c13-30 18-60 16-109l-3-66 45-60c38-51 114-124 152-147 7-4 23 3 38 14 14 11 30 17 36 14 5-3 10-2 10 4s20 31 45 57c63 64 76 93 85 190 8 95 30 140 58 125 10-5 37-30 59-54l41-44 7-89c10-140 9-168-4-160-5 3-8-2-7-12 1-11-5-16-16-14-9 1-19-2-23-8-3-6 0-7 9-4 21 8 20 2-1-22-25-27-59-52-49-36 5 8 1 12-11 12-23 0-48-36-30-43 9-4 9-6-1-6-7-1-15 6-18 14-4 8-13 15-21 15h-15l13-17 14-16-22 11c-12 7-23 17-26 24-3 10-7 10-18 1-15-12-69-6-69 8 0 5 8 6 18 3l17-6-19 12c-14 10-20 10-26 0-6-9-11-7-19 6-6 11-11 13-11 7 0-13-34-13-46 0-11 11-26 8-19-4 6-9-33-27-44-20-2 2-7-3-11-9-13-21-30 0-24 28 4 20 3 23-5 12l-10-15-9 24-9 24-6-17c-4-10 1-25 13-38 27-29 25-34-12-48-52-18-81-22-73-10 4 6 13 9 21 6 17-7 18 6 2 22-8 8-8 15 2 27 8 10 9 15 1 15-6 0-11-4-11-10 0-5-7-10-15-10s-15 7-15 15c0 19-16 20-23 1-4-9-15-13-29-10-18 3-17 1 6-10 20-9 25-15 15-19l-14-5 15-11c9-6 10-11 3-11-13 0-63 56-63 71 0 18-4 24-28 43l-25 19 6 91c8 140 23 192 69 242 22 24 46 44 53 44 6 0 20-19 31-41zm1148-132c37-75 45-115 12-65-30 46-114 226-109 232 7 7 34-40 97-167zm-1750 148c7-19-112-187-128-182-25 8-13 35 44 107 33 41 60 78 60 83 0 13 18 7 24-8zm691-15c3-5 1-10-4-10-6 0-11 5-11 10 0 6 2 10 4 10 3 0 8-4 11-10zm154-58l-1-57-8 30c-12 45-12 97 0 90 6-3 9-32 9-63zm-59 16c0-49-5-47-14 5-4 23-3 37 4 37 5 0 10-19 10-42zm89-21c0-38-3-47-9-32-12 29-12 98 0 90 6-3 10-30 9-58zm826-48c54-109 69-153 39-114-22 27-104 195-104 212 0 27 11 10 65-98zm-1687 47c-29-55-104-144-113-135-6 6-6 14 0 24 6 8 32 46 59 85 34 50 51 68 57 59 4-7 3-22-3-33zm747-2c8-55 0-70-9-19-4 20-10 43-13 51s-1 14 5 14c5 0 13-21 17-46zm52-21c-2-16-4-5-4 22 0 28 2 40 4 28 2-13 2-35 0-50zm92 40c0-16-4-37-9-48-6-15-9-8-9 28-1 26 4 47 9 47 6 0 10-12 9-27zm-175-20c4-16 10-37 13-48s2-16-3-12c-13 12-33 87-24 87 4 0 11-12 14-27zm197-33l-10-25v27c-1 14 2 35 6 45l8 18 3-20c1-12-2-32-7-45zm777-99c24-45 30-67 23-74-14-14-11-18-66 92-35 71-45 100-40 120l7 26 21-50c12-28 37-79 55-114zm-989 79c0-8-7-1-14 15-8 17-14 37-14 45s7 2 14-15c8-16 14-37 14-45zm242 43c-12-20-14-14-5 12 4 9 9 14 11 11 3-2 0-13-6-23zm-945-65c-40-66-72-102-80-89-4 6 17 46 46 88 34 49 54 71 56 60 2-9-8-36-22-59zm430 55c-9-30-26-156-26-198 0-27 10-57 33-94 17-29 37-62 43-72 6-11 13-17 16-14s13-4 23-15l18-20h-16c-10 0-17-8-17-17 0-11 3-14 8-7 12 18 40 23 52 9 9-10 7-14-7-18-10-2-2-2 17 0 19 3 32 1 27-3-4-4 7-14 24-21l31-13-23-20c-15-12-18-19-9-18 11 2 14-5 13-25-1-15 2-25 8-22 5 4 9 15 9 26 0 21 15 25 26 7 5-7 3-8-5-3-9 5-12-1-9-21 2-17 8-28 16-26 6 1 12-8 13-20 0-13 3-17 6-10 8 20 22 14 16-8-3-11-10-17-15-13-6 3-9 0-6-7 2-8 10-16 18-18 7-3 10 0 6 7-9 15 7 14 22-1 9-9 12-9 12 0 0 6-7 15-16 20-11 6-13 12-6 16 6 3 13 2 17-4 10-16 28-12 21 5-7 20 8 19 24-1l13-15-23-6-24-6 22-8c13-5 20-16 19-28-1-21-27-31-27-11 0 6 5 10 10 10 6 0 10 5 10 11 0 24-25 1-26-24-1-14 2-25 5-22 4 2 13 0 21-5l14-9-12-26c-7-14-8-24-3-20 6 3 10-35 10-100 0-58-1-105-3-105-1 0-34 37-72 82s-110 129-160 187c-49 59-113 136-141 172l-50 67-12 78c-6 44-14 93-16 109-31 205-33 230-22 237 7 3 30 20 52 37 46 35 59 38 51 14zm238-7c3-13 8-32 12-43 3-10-4-2-15 17-23 39-25 50-12 50 5 0 12-11 15-24zm302 12c-12-40-17-50-22-46-5 6 13 58 20 58 3 0 4-6 2-12zm939-83l-23-90-1 63c-1 50 4 69 21 92 12 16 23 29 24 27 2-1-8-43-21-92zm-655 53c32-21 50-40 50-53 0-17-24-273-34-368-3-28-60-105-176-237-36-41-75-87-87-102-11-15-47-57-79-95-33-37-71-81-86-97l-26-31-1 152-2 153 16-6c8-3 15-2 15 3 0 6 9 20 20 33 11 12 17 27 14 32-4 6-13-4-22-21-15-33-31-36-17-4 5 10 9 20 9 23 1 3 5 11 9 18 5 7 4 12-2 12s-11 5-11 11c0 8 6 7 17-2 9-8 25-13 36-11 13 3 17 0 12-9-5-8-4-10 3-5 7 4 12 3 12-3s7-8 17-4l16 6-24 10-24 10 23 4c12 3 22 9 22 14s-3 8-7 8c-18-3-73 14-73 23 0 5 9 7 19 3 45-14 61-14 61 1 0 10-10 14-32 13-18-1-40 0-48 2-9 3-14-2-12-11 2-8 0-11-4-7-16 16-11 35 9 41 12 3 23 3 26 1 2-3-2-5-10-5h-14l15-10c11-7 22-1 42 21 16 17 33 27 38 24 6-4 1-14-12-25-20-17-19-20 7-20 3 0 5 3 4 7 0 3 6 10 15 15s13 14 10 20c-4 7-2 8 5 4 17-11 39 17 36 47-2 15 2 30 7 34 6 3 8 2 5-3-3-6 3-15 14-22s19-8 19-2c0 5-4 10-10 10-5 0-10 5-10 10 0 6 7 10 15 10s15 5 15 11 7 9 15 6c8-4 17-1 21 5 4 7 3 8-4 4-24-15-11 7 29 47 62 62 72 95 65 197-4 47-9 97-12 113-3 15-3 27 0 27 4 0 29-15 56-32zm275 22c3-5 1-10-4-10-6 0-11 5-11 10 0 6 2 10 4 10 3 0 8-4 11-10zm-1736-125l-1-90-8 40c-5 22-11 72-15 110l-7 70 16-20c11-15 15-43 15-110zm1575 99c3-8 2-12-4-9s-10 10-10 16c0 14 7 11 14-7zm269-77c49-94 54-111 37-122-10-6-107 188-102 205 7 21 18 7 65-83zm-1387 68c-3-10 1-15 12-16h17l-20-9c-30-13-33-12-27 15 2 14 9 25 14 25 6 0 8-7 4-15zm731-7c-3-8-6-5-6 6-1 11 2 17 5 13 3-3 4-12 1-19zm-923 4c4-7-63-114-89-141l-14-15-7 17c-3 10 11 40 41 81 45 64 58 75 69 58zm830-11l19-7-28-22c-37-29-122-31-156-3l-24 19 40 7c22 4 45 8 50 10 18 6 80 4 99-4zm-1034-70c0-9-10-54-22-101l-22-85-8 35c-4 19-5 42-3 50 3 8 5 48 6 88l2 73 23-22c13-13 24-30 24-38zm1677-6c-3-7-53-49-111-93l-106-81v29c0 17 3 30 8 30 4 0 25 17 47 38s67 63 100 92l60 55 3-29c2-15 1-34-1-41zm338-17c1-40-5-102-13-138-13-61-28-96-29-68 0 7-3 63-7 123l-8 110 22 28c12 15 25 26 27 23 3-3 7-38 8-78zm-1625-58c3-3 22-19 43-34 33-26 49-56 29-56-11 0-103 56-167 101l-50 36-3 42-3 43 73-63c40-34 75-65 78-69zm1410-50c0-6-4-10-8-10-12 0-82 148-82 173 1 13 18-12 45-66 25-48 45-92 45-97zm-1620 87c-34-50-46-62-53-50-3 5 14 37 36 72 32 50 43 60 45 44 2-11-11-41-28-66zm217 61c2-17 0-19-7-8-5 8-6 18-4 22 8 12 10 10 11-14zm-355-129c-17-24-41-55-52-69l-21-25 7 30c4 17 13 50 20 75 8 25 14 56 14 70v25l31-32 31-31-30-43zm1048 95c0-1-14-13-32-26l-32-22 19 25c15 21 45 36 45 23zm-215-24c10-11 16-22 13-25s-11 1-18 10c-7 8-19 15-26 15-8 0-14 5-14 10 0 17 26 11 45-10zm1074-76c1-34 6-85 11-114 6-29 9-55 7-56-1-2-26 38-56 87l-52 90 12 17c7 9 24 30 38 45l25 28 8-18c3-10 7-46 7-79zm-1760 12c-16-27-24-34-30-24-5 7-3 21 5 33 7 11 19 31 27 45l14 25 3-21c2-12-7-38-19-58zm1557 6c13-30 23-60 22-64-4-11-58 87-63 114-7 34 16 7 41-50zm-71 16c-9-50-14-55-120-109-44-23-86-46-92-51-10-8-13-5-13 9 0 20 26 47 95 98 22 16 58 44 79 62 22 18 44 33 49 33s6-18 2-42zm-1237-97c23-12 42-29 42-37 0-9-5-14-12-11-19 9-181 73-200 80-13 5-18 17-18 47v41l73-49c39-27 91-59 115-71zm-303 29c-2-4-41-26-86-49-88-46-88-46-16 47l50 63 28-27c16-15 26-30 24-34zm1608-43c-9-14-42 53-42 83l1 25 23-49c13-28 21-54 18-59zm-1534 37c-22-27-34 2-13 33l19 28 3-23c2-13-2-30-9-38zm1689-48l38-74-87 31-88 30 41 48c22 27 44 46 49 43 4-2 25-38 47-78zm-230 14c-1-22-2-40-3-40-2 0-189-68-206-75-13-5-16-1-12 18 4 18 27 35 100 73 52 27 97 52 100 57 12 20 24 3 21-33zm-1235-41c43-21 63-49 35-49-29 0-187 23-196 29-8 5-17 58-13 83 1 8 105-29 174-63zm1287 28c0-4-6-14-13-21l-12-13v78l12-17c7-10 13-22 13-27zm-1526-9c20-23 36-50 36-61v-19l-52 8c-29 4-91 10-138 13l-85 6 90 47c50 25 95 47 102 47 6 1 28-18 47-41zm30 26c3-8 2-12-4-9s-10 10-10 16c0 14 7 11 14-7zm516-44c0-5-5-10-11-10-5 0-7 5-4 10 3 6 8 10 11 10 2 0 4-4 4-10zm250-10l25-8-25-2c-14-1-37-4-52-6-28-5-39 10-15 19 17 7 38 6 67-3zm869-26c42-14 80-29 85-34s-42-8-112-7c-66 1-124 5-128 10-11 11 48 68 65 62 7-3 48-17 90-31zm-199-11c0-16-3-38-6-51l-7-23-101 3c-62 2-99 7-97 13 3 8 181 82 204 84 4 1 7-11 7-26zm-1170-46c0-10-3-16-7-14-5 3-44-1-88-9-44-7-90-13-101-13l-22-1-4 40c-2 22 0 41 5 43 4 1 55-4 113-12l104-15v-19zm612 12c-57-51-172-65-248-30-71 32-68 67 5 50 51-12 149-10 196 5 22 7 49 10 59 8l19-5-31-28zm-889 9c13 1 17-8 17-38v-40l-50 20c-27 11-76 31-107 45l-58 26 90-7c50-4 98-6 108-6zm1695-29c-14-8-121-32-191-44l-37-6 4 23c3 13 5 26 5 30 1 5 53 7 117 6 63-1 109-5 102-9zm-1695-61c19-7 27-17 27-34 0-13-4-24-9-24-4 0-38 21-74 48-36 26-74 52-84 59s11 1 47-13 77-30 93-36zm947 52c0-5-4-10-9-10-6 0-13 5-16 10-3 6 1 10 9 10 9 0 16-4 16-10zm-670-19c0-16-189-141-214-141-3 0-6 27-6 59v59l67 8c37 4 78 10 92 15 36 10 61 11 61 0zm1098-10l63-1-2-52c-3-69-5-72-37-49-15 10-54 32-88 49-33 17-66 37-72 45l-12 14 42-2c24-2 71-3 106-4zm162-41c-66-35-70-36-70-10 0 13 9 22 28 26 15 3 32 7 37 9 6 2 21 4 35 4 20 0 13-6-30-29zm-1226 1l17-18-56-44c-30-24-74-59-97-77-22-18-41-31-42-30 0 2-13 17-28 34l-28 30 68 39c37 21 80 49 95 62 34 28 49 29 71 4zm336 9c0-5-7-7-15-4-8 4-15 8-15 10s7 4 15 4 15-4 15-10zm656-34c43-25 87-51 97-58l18-13-54-60-54-60-26 30c-14 17-35 41-47 55s-34 40-47 58l-26 32 19 23c15 18 35 36 40 37 0 0 36-20 80-44zm-1398 9c-3-3-9 2-12 12-6 14-5 15 5 6 7-7 10-15 7-18zm825 11c4-10 1-13-9-9-7 3-14 1-14-5 0-5-9-12-20-15-15-4-18-10-13-23l7-18-16 14-15 14 26 21c14 11 28 23 29 27 6 13 19 9 25-6zm902-36c3-5 1-10-4-10-6 0-11 5-11 10 0 6 2 10 4 10 3 0 8-4 11-10zm-1262-32l19-25-57-59c-31-32-64-69-72-81-8-13-21-23-27-23-13 0-92 77-85 83 55 47 185 137 193 134 5-2 18-15 29-29zm1177 11c0-6-4-7-10-4-5 3-10 11-10 16 0 6 5 7 10 4 6-3 10-11 10-16zm-700 1c0-5-4-10-10-10-5 0-10 5-10 10 0 6 5 10 10 10 6 0 10-4 10-10zm398-104c23-27 42-52 42-55s-18-26-40-51l-40-45-16 20c-8 11-36 52-60 92l-46 72 33 40 34 39 25-31c14-17 44-53 68-81zm-1246 90c12 0 14-4 8-10-7-7-17-7-30 2-10 6-27 9-37 6l-18-6 15 11c8 6 22 8 30 4 8-3 23-6 32-7zm1498-6c0-5-5-10-11-10-5 0-7 5-4 10 3 6 8 10 11 10 2 0 4-4 4-10zm103 0c6 0 1-7-12-16-17-13-25-14-34-5s-8 11 6 6c16-7 25 9 10 18-5 2-2 2 5 0 8-1 19-3 25-3zm-1610-57c-5-12-2-15 14-11 11 3 20 0 20-7 0-14-31-13-50 3-7 7-18 8-22 4-5-4-5-1-1 6s12 10 17 7c5-4 9 1 9 10s4 14 10 10c5-3 6-13 3-22zm71-8l16-25h-16c-10 0-14 3-11 6 3 4 2 15-4 25-14 28-4 23 15-6zm375-10c37-43 37-44-51-138l-63-68-39 40-39 40 22 28c32 41 123 133 131 133 5 0 22-16 39-35zm1077 5c9 0 12-4 9-10-4-6-13-5-25 2-10 7-16 17-13 22 4 6 8 5 11-2 2-7 10-12 18-12zm51 14c-3-3-12-4-19-1-8 3-5 6 6 6 11 1 17-2 13-5zm-428-102c28-46 51-87 51-91 0-8-74-91-82-91-3 0-26 45-52 100l-47 100 33 39c18 22 36 37 40 33s30-44 57-90zm-1159 64c0-2-7-6-15-10-8-3-15-1-15 4 0 6 7 10 15 10s15-2 15-4zm1433-51l-6-29-7 19c-4 11-3 26 3 33 14 17 16 12 10-23zm-1453 11c0-2-9-6-20-9s-18-1-14 4c5 9 34 13 34 5zm527-112c-20-44-39-91-42-106-4-16-11-25-16-22s-6 11-3 17c4 7 3 9-1 4-8-7-75 49-75 63 0 7 5 13 87 108l46 53 20-19 19-20-35-78zm569-30l38-85-49-49c-27-28-53-46-57-42-5 5-17 55-28 112l-20 103 26 40 27 41 12-18c7-9 30-55 51-102zm-476 9c-1-27-47-184-57-194-6-6-22 7-42 31l-32 40 42 105 42 105 23-34c13-19 24-43 24-53zm350 3c0-3 9-53 21-112l20-107-52-53c-29-30-54-52-55-51s-5 44-9 95c-4 52-8 105-10 118-1 16 10 41 32 69 29 38 53 57 53 41zm-305-30c13-19 16-50 14-150 0-69-4-126-8-126s-26 20-50 44l-44 45 15 38c9 21 21 68 28 106 7 37 16 67 21 67s16-11 24-24zm78-93l35-47v-119c1-131-2-135-52-73l-31 38v124c0 68 3 124 7 124 3 0 22-21 41-47zm136-94c1-49 4-96 8-105 4-10-9-31-38-60l-44-44-7 17c-3 10-7 63-7 119l-1 100 36 43c25 29 39 39 44 31 4-7 8-52 9-101zM2666 3364c-8-21-8-24 3-24 5 0 11 9 14 20 6 24-8 27-17 4zm2415-84c0-8 4-24 9-35l9-20v20c0 11-4 27-9 35l-10 15 1-15zm-2451-37c0-22 2-25 10-13 13 20 13 40 0 40-5 0-10-12-10-27zm-22-89c-5-4-8-16-8-28 0-14 3-17 11-9 6 6 9 19 7 28-1 9-6 13-10 9zm2502-3c0-16 12-41 20-41 4 0 5 11 2 25-4 23-22 36-22 16zm-2535-114c-4-10-5-21-1-24 10-10 18 4 13 24l-4 18-8-18zm2575-34c0-13 5-23 10-23 13 0 13 11 0 30l-10 15v-22zm-2604-68c-3-8-1-15 4-15 6 0 10 7 10 15s-2 15-4 15-6-7-10-15zm2634-42c0-13 5-23 10-23 13 0 13 11 0 30l-10 15v-22zm-2668-72c-6-17-7-33-2-36 9-5 25 53 17 61-3 3-9-9-15-25zm2688-28c0-5 5-15 10-23l10-15v23c0 12-4 22-10 22-5 0-10-3-10-7zm-2720-89c0-8 5-12 10-9 6 3 10 10 10 16 0 5-4 9-10 9-5 0-10-7-10-16zm2291-28l-12-14 20 5c12 3 18 9 15 14-7 12-10 11-23-5zm459-3c0-5 5-15 10-23l10-15v23c0 12-4 22-10 22-5 0-10-3-10-7zm-460-23c-8-5-12-11-10-14 3-2 14 2 24 10 22 15 10 19-14 4zm-2309-18c-13-25-14-32-2-32 9 0 23 41 16 48-2 2-8-5-14-16zm2310-21c-7-12-7-22-2-26 5-3 13 4 16 16 9 28-1 36-14 10zm-35-16c4-8 8-15 10-15s4 7 4 15-4 15-10 15c-5 0-7-7-4-15zm514-2c0-5 5-15 10-23l10-15v23c0 12-4 22-10 22-5 0-10-3-10-7zm-550-14c0-5 5-7 10-4 6 3 10 8 10 11 0 2-4 4-10 4-5 0-10-5-10-11zm-1588-11c4-24-13-58-29-58-9 0-25-8-36-17-11-10-17-12-13-5 4 6 2 12-3 12-16 0-13-26 4-40 15-12 55-5 55 11 0 5-7 9-16 9-8 0-12 5-9 10 4 7 13 6 26-1 16-8 20-7 18 3-3 25 1 38 12 38 5 0 8-4 4-9-10-18 13-21 26-3 7 9 10 14 5 10-13-11-34 14-28 34 2 10-1 18-7 18-7 0-11-6-9-12zm1524-1c3-10 9-15 12-12s0 11-7 18c-10 9-11 8-5-6zm63-31c14-14 26-24 29-22 7 8-8 25-31 37l-22 12 24-27zm-2197 2c2-6 10-14 16-16 7-2 10 2 6 12-7 18-28 22-22 4zm699-12c-1-14-4-16-14-8s-16 6-25-9c-12-18-3-27 12-11 11 10 30 9 38-2 4-6 10-7 15-3 4 5 3 11-3 15s-14 14-17 22c-4 11-6 10-6-4zm1434-7c-4-6-5-12-2-15 2-3 7 2 10 11 7 17 1 20-8 4zm-180-34c1-19-3-35-8-35-6 0-8-2-5-5s13-3 22 1c12 5 14 10 6 19s-7 14 2 18c10 4 10 8-2 21l-16 16 1-35zm110 25c3-5 11-10 16-10 6 0 7 5 4 10-3 6-11 10-16 10-6 0-7-4-4-10zm650-11c-11-17 1-21 15-4 8 9 8 15 2 15s-14-5-17-11zm-709-8l-20-8 17-6c8-3 21 1 27 9 13 15 6 17-24 5zm-1390-17c-24-17-16-27 12-17 13 5 18 13 14 20-5 8-12 8-26-3zm1601 10c-4-4-7-14-7-23 0-11 3-12 11-4 6 6 10 16 7 23-2 6-7 8-11 4zm-1502-13c-3-6 8-8 26-6 43 6 50 15 11 15-17 0-33-4-37-9zm95-1c0-5 5-10 10-10 6 0 10 5 10 10 0 6-4 10-10 10-5 0-10-4-10-10zm-133-20c3-11 11-24 18-30 9-8 11-4 8 14-3 14-11 27-18 30-8 3-11-2-8-14zm1220 9c7-7 15-10 18-7s-2 9-12 12c-14 6-15 5-6-5zm-1132-9c-3-5-2-10 4-10 5 0 13 5 16 10 3 6 2 10-4 10-5 0-13-4-16-10zm1405 0c-9-6-10-10-3-10 6 0 15 5 18 10 8 12 4 12-15 0zm-1610-10c-8-5-12-12-9-15 8-8 39 5 39 16s-11 11-30-1zm101 0c0-8 4-22 9-30 12-18 12-2 0 25-6 13-9 15-9 5zm189 1c0-5 7-12 16-15l17-6-13 15c-14 17-20 19-20 6zm1170 5c0-2 7-7 16-10 8-3 12-2 9 4-6 10-25 14-25 6zm-1437-30l-22-21 13-17c13-18 52-26 42-10-3 5 6 15 19 22s22 17 19 22-14 2-24-7l-18-16-5 15c-3 8-1 16 6 19 6 2 7 6 2 9-6 3-20-4-32-16zm13-33c-10-10-19 5-10 18l8 13 4-13c2-7 1-15-2-18zm2064 26c0-5 5-7 10-4 6 3 10 8 10 11 0 2-4 4-10 4-5 0-10-5-10-11zm-1800-8c0-9 30-24 36-18 2 1-6 8-16 15-11 7-20 8-20 3zm-196-22c-5-9-2-10 9-6 9 3 18 2 21-4 2-5 3-4 2 3-3 17-23 21-32 7zm116 1c0-5 5-10 10-10 6 0 10 5 10 10 0 6-4 10-10 10-5 0-10-4-10-10zm-650-39c0-5 5-13 10-16 6-3 10-2 10 4 0 5-4 13-10 16-5 3-10 2-10-4zm755-1c3-5 8-10 11-10 2 0 4 5 4 10 0 6-5 10-11 10-5 0-7-4-4-10zm1276 3c0-6-4-20-7-30-5-14-4-15 5-7 7 7 11 20 8 30-3 11-5 14-6 7zm444-13c-3-5-1-10 4-10 6 0 11 5 11 10 0 6-2 10-4 10-3 0-8-4-11-10zm-1690-10c3-5 11-10 16-10 6 0 7 5 4 10-3 6-11 10-16 10-6 0-7-4-4-10zm-265-11c0-5 5-7 10-4 6 3 10 8 10 11 0 2-4 4-10 4-5 0-10-5-10-11zm320-19c0-5 5-10 10-10 6 0 10 5 10 10 0 6-4 10-10 10-5 0-10-4-10-10zm-180-10c0-5 5-10 11-10 5 0 7 5 4 10-3 6-8 10-11 10-2 0-4-4-4-10zm40-20c0-5 5-10 11-10 5 0 7 5 4 10-3 6-8 10-11 10-2 0-4-4-4-10zm-200-40c6-11 12-20 14-20s2 9-1 20-9 20-15 20c-5 0-4-9 2-20zm405 10c3-5 8-10 11-10 2 0 4 5 4 10 0 6-5 10-11 10-5 0-7-4-4-10zm1505-1c0-5 5-7 10-4 6 3 10 8 10 11 0 2-4 4-10 4-5 0-10-5-10-11zm-2330-20c7-11 14-19 16-16 7 7-7 37-17 37-6 0-5-9 1-21zm1454 10c-3-6-1-16 4-21 8-8 11-5 9 11-1 24-3 25-13 10zm241 1c-3-5-1-10 4-10 6 0 11 5 11 10 0 6-2 10-4 10-3 0-8-4-11-10zm202-17c-4-3-7-11-7-17s5-5 12 2c6 6 9 14 7 17-3 3-9 2-12-2zm-1427-37c7-7 13-7 20 0 6 6 3 10-10 10s-16-4-10-10zm1000-6c0-5 5-10 11-10 5 0 7 5 4 10-3 6-8 10-11 10-2 0-4-4-4-10zm-930-21c0-5 5-7 10-4 6 3 10 8 10 11 0 2-4 4-10 4-5 0-10-5-10-11zm405-9c-3-5-1-10 4-10 6 0 11 5 11 10 0 6-2 10-4 10-3 0-8-4-11-10zm1322 3c-4-3-7-11-7-17s5-5 12 2c6 6 9 14 7 17-3 3-9 2-12-2zm-2207-12c0-5 5-13 10-16 6-3 10-2 10 4 0 5-4 13-10 16-5 3-10 2-10-4zm400-12c7-11 14-19 16-16 7 7-7 37-17 37-6 0-5-9 1-21zm1387-26c-4-3-7-11-7-17s5-5 12 2c6 6 9 14 7 17-3 3-9 2-12-2zm365-33c-18-29-15-36 8-15 20 18 26 35 12 35-4 0-13-9-20-20zm-2102-5c0-15 18-40 24-34 3 3-1 14-9 25-8 10-14 15-15 9zm1529-27c-19-16-61-52-94-79s-69-58-80-68-36-26-55-36c-61-31-74-38-102-54l-28-16-17 13c-10 7-26 15-35 18-10 4-18 10-18 15s-5 9-11 9c-8 0-8-4 0-14 18-22-4-28-23-7-10 11-14 25-10 36 6 14 4 17-8 12-11-4-27 7-50 36-18 23-44 53-58 67-13 14-23 31-22 38 2 9-3 12-16 8-11-4-24 0-32 9l-12 15-60-55c-32-30-62-54-66-54-20 3-30-3-40-26-6-14-18-25-27-25-8 0-15-5-15-10 0-6-7-13-16-17-9-3-34-25-56-49s-45-42-51-40c-7 1-8 1-4-2 4-2 2-11-5-20-10-11-10-16-1-19 7-2 9-11 6-19s0-14 7-14c6 0 9-4 5-9-3-5-1-12 5-16 5-3 17-31 26-61 12-41 20-54 31-50 8 3 18 6 23 6s8 9 7 20-8 20-15 20c-9 0-12-6-8-16 3-8 2-13-3-10s-11 15-14 26c-4 15 0 20 14 20 13 0 19 6 17 18s4 17 19 17c12 0 25 4 28 7 4 4 14 4 23 1 13-4 14-3 3 5-7 5-22 7-32 5-15-4-18-1-13 11 3 9 13 16 22 16 8 0 12 3 8 7-3 4 16 30 45 59l51 51 12 54 12 54 12-91c16-119 15-169-3-187-8-8-12-17-10-19 7-7-17-118-25-118-3 0-5-13-2-30 3-19 0-30-7-30s-9-4-6-10c3-5 1-10-5-10-7 0-9 8-5 20 8 24-3 26-19 4l-12-15-1 20c-1 12 4 21 13 21 8 0 14 4 14 10 0 5-6 7-14 4s-26 2-39 11l-25 16-5-18-5-18-1 22c0 12-10 27-21 33-24 13-46 4-31-13 5-7 12-29 16-49 4-21 11-36 15-33 4 2 12-20 19-50 7-29 19-59 27-66 9-7 13-21 10-32-2-11-1-27 4-36 19-32 70-151 76-176 3-14 11-25 16-25 6 0 8-6 5-13-8-20 21-80 36-74 7 3 13-3 13-13s-5-16-11-12c-7 4-7 1 0-9 11-14 48-106 60-146 3-13 11-23 17-23 5 0 8-6 5-14s1-17 8-20c9-3 12-12 9-21-4-9 0-23 8-33 9-9 23-39 33-67 9-27 20-57 23-65s6-19 7-25c5-40 67-116 83-100 4 3 0 10-7 14-10 7-7 20 17 62 16 30 37 77 46 104 9 28 26 66 38 85s21 43 19 53c-1 10 3 24 9 32 7 8 8 20 4 26-4 8-3 9 4 5s12-1 12 6c0 19 23 68 32 68 4 0 10 20 14 45 3 25 10 45 15 45s9 7 9 15c0 9-6 12-15 9-11-5-13-2-9 10 4 9 9 14 12 12 10-11 31 16 25 31-4 11-2 14 5 9 11-7 13-3 16 32 1 7 7 16 14 21 7 4 14 18 15 29 1 12 5 22 9 22s5 7 1 16c-3 8 4 29 17 46 12 16 22 45 23 64s6 34 13 34c6 0 14 7 17 14 4 9 1 13-6 10-7-2-18 6-26 18l-14 23 17-14c9-8 19-11 23-8 3 4-5 16-18 27-16 13-18 18-6 14 23-8 22 2-4 34l-21 27 17 3c13 3 14 7 4 18-9 11-9 14 2 14 7 0 3 10-12 26l-24 25 20-7c11-4 35-22 54-41 38-37 49-40 57-18 9 23-15 48-33 34l-13-12 6 17c5 12 2 16-7 14-8-2-16 2-19 7-2 6-14 18-27 29-14 10-22 25-19 33s1 11-4 8c-6-3-10 3-10 14 0 12-4 21-10 21-5 0-10-8-10-17v-17l-16 16-17 16 48 71c25 39 50 69 54 66 4-2 25 27 47 65 21 38 42 66 47 61 6-6 15-66 17-118 0-7 5-13 11-13 12 0 11 14-11 132l-13 66 22 35 22 36 52-27c29-14 59-32 68-39l17-14 5 16c4 9 1 15-9 15-8 0-17 7-20 15-4 8-13 15-20 15-8 0-32 9-53 19l-37 20-35-31zm-553-141c98-117 142-162 150-155 3 4-1 14-10 23-19 19-21 35-5 35 13 0 63-40 158-128l68-63-2-70c-2-39-6-73-9-76-3-4-6 3-6 15s-4 22-10 22c-5 0-10-12-10-26 0-15-4-23-11-19-6 4-10 1-8-6 1-8 1-23 0-34l-2-20-9 22-9 22-33-4c-24-3-29-2-18 5l15 10h-22c-12 0-25 5-29 12s-3 8 4 4c8-5 10-2 6 8-3 9-11 14-17 13-7-1-11 4-9 11 1 6-2 11-7 10-4-2-33 23-63 55-43 45-57 67-61 98-3 22-8 43-11 46-12 13-15-4-7-35 5-18 7-32 4-32s-34 21-68 46l-63 47-12 66c-7 36-14 74-16 84-2 9-10 24-18 33-21 20-20 30 5 65l20 29 23-15c13-9 54-53 92-98zm529 85c-6-4-11-19-12-34-2-31-30-78-47-77-7 0-6 2 2 6 22 9 13 25-10 18-18-5-19-4-8 4 8 5 11 13 7 17s9 25 30 46c20 21 39 35 42 32s1-8-4-12zm-90-72c-3-5-16-15-28-21l-22-10 25 20c28 23 34 26 25 11zm-566-92c14-80 32-107 110-161 55-38 144-125 196-192 21-27 50-60 63-71l25-22-11-31c-6-18-7-31-2-31s7-7 4-15c-4-10-14-13-29-9l-23 6v-52c0-35-5-57-17-70s-14-20-6-20c7 0 10-4 7-9-4-5-1-11 6-13 15-5 3-38-14-38-9 0-8 3 2 10l15 10h-18c-10 0-16 4-12 9 3 5 0 13-6 16-5 4-8 13-5 20 3 8-1 19-9 25-10 9-14 7-17-7s-8-10-21 16c-20 40-22 50-5 33 23-23 29-12 9 14-24 31-28 52-6 34 19-16 19-1 0 24-17 23-20 40-5 31 6-3 10-2 10 4 0 5-5 13-11 17-8 4-7 9 2 15l14 8-16 13c-9 7-20 31-25 53l-7 40-8-50c-4-27-10-58-14-67-4-11-3-18 4-18s7-8 1-26c-13-33-13-54 0-34 11 17 13 10 4-14-3-8-12-12-20-9s-14 0-14-6 9-11 20-11h21l-11-21c-8-15-8-24 0-34 7-8 7-16 2-19-11-7-22 16-22 44 0 9-8 24-17 31l-16 14 6-32 7-33h-35l14-9c8-5 11-16 8-26-4-9-11-14-16-11-14 9-20 56-7 57 7 0 6 3-1 6-7 2-13 11-13 19 0 9-4 13-9 9-13-7-24 12-29 50-2 16-5 37-6 45s-13 38-26 65l-24 50-8-45c-12-64-12-72-5-100 4-16 2-14-8 8-8 17-24 41-36 53-11 11-18 28-15 37 2 9 10 44 16 77s21 94 32 135c21 76 20 172-1 248-9 30-5 46 9 37 4-2 12-37 19-77zm495 18c-3-7-16-13-30-13h-24l17 13c23 17 44 18 37 0zm27-20c17 10 30-6 19-26-7-12-17-16-31-13-12 4-25 0-30-8l-9-14v14c0 7-6 11-14 8s-17 1-20 9c-3 9-10 12-16 9-6-4-7 1-3 11l6 16 9-16c11-20 48-12 62 13 7 11 11 12 14 3 2-7 8-10 13-6zm-1-61c0-2-9-9-20-15-12-6-20-7-20-1 0 5 8 12 18 14 9 3 18 5 20 6 1 0 2-1 2-4zm-685-284c-8-14-25-14-25 0 0 5 5 7 10 4 6-3 10-1 10 6s3 10 6 6c3-3 3-10-1-16zm62-203c-3-8-6-5-6 6-1 11 2 17 5 13 3-3 4-12 1-19zm491-20c-5-15-23-11-26 6-2 11 2 14 13 10 9-4 14-11 13-16zm119-3c0-8-4-12-9-9s-6 10-3 15c9 13 12 11 12-6zm-107-35c0-5-2-10-4-10-3 0-8 5-11 10-3 6-1 10 4 10 6 0 11-4 11-10zm-346-17c3-10 9-24 12-31 4-8 0-10-9-6-8 3-17 16-20 30-5 28 8 33 17 7zm-56-28c-3-3-9 2-12 12-6 14-5 15 5 6 7-7 10-15 7-18zm258-42c-4-4-11-1-16 7-16 25-11 35 7 17 9-9 13-20 9-24zm-299-15c-3-8-6-5-6 6-1 11 2 17 5 13 3-3 4-12 1-19zm73-42c0-3-4-8-10-11-5-3-10-1-10 4 0 6 5 11 10 11 6 0 10-2 10-4zm160-37c0-6-4-7-10-4-5 3-10 11-10 16 0 6 5 7 10 4 6-3 10-11 10-16zm68-34c-3-3-9 2-12 12-6 14-5 15 5 6 7-7 10-15 7-18zm-70 730c-3-14-1-28 3-31 5-3 9 9 9 25 0 38-6 40-12 6zm142-147c0-4 4-8 9-8 6 0 12 4 15 8 3 5-1 9-9 9s-15-4-15-9zm30-109c0-5 5-7 10-4 6 3 10 8 10 11 0 2-4 4-10 4-5 0-10-5-10-11zm155 321c3-5 8-10 11-10 2 0 4 5 4 10 0 6-5 10-11 10-5 0-7-4-4-10zm-950 250c3-5 8-10 11-10 2 0 4 5 4 10 0 6-5 10-11 10-5 0-7-4-4-10zm865-10c0-5 5-10 11-10 5 0 7 5 4 10-3 6-8 10-11 10-2 0-4-4-4-10zm35-40c-3-5-1-10 4-10 6 0 11 5 11 10 0 6-2 10-4 10-3 0-8-4-11-10zm721-26c-4-9-4-19-1-22 2-3 7 3 11 12s4 19 1 22c-2 3-7-3-11-12zm-1976-1c0-4 5-15 10-23l10-15v17c0 9-4 20-10 23-5 3-10 3-10-2zm366-18c4-8 8-15 10-15s4 7 4 15-4 15-10 15c-5 0-7-7-4-15zm139-55c3-5 8-10 11-10 2 0 4 5 4 10 0 6-5 10-11 10-5 0-7-4-4-10zm-455-6c0-5 7-18 15-28l15-20v16c0 8-7 21-15 28s-15 9-15 4zm395-4c3-5 8-10 11-10 2 0 4 5 4 10 0 6-5 10-11 10-5 0-7-4-4-10zm1127-32c-15-42-8-48 12-9 18 34 19 41 8 41-4 0-13-14-20-32zm335 5c-4-3-7-11-7-17s5-5 12 2c6 6 9 14 7 17-3 3-9 2-12-2zm-1417-33c0-5 5-10 11-10 5 0 7 5 4 10-3 6-8 10-11 10-2 0-4-4-4-10zm-360-68c0-5 7-15 15-22s15-8 15-2c0 5-7 15-15 22s-15 8-15 2zm1230-2c0-5 5-10 10-10 6 0 10 5 10 10 0 6-4 10-10 10-5 0-10-4-10-10zm175-1c-4-6-5-12-2-15 2-3 7 2 10 11 7 17 1 20-8 4zm-870-9c-3-5-1-10 4-10 6 0 11 5 11 10 0 6-2 10-4 10-3 0-8-4-11-10zm830 0c-3-5-1-10 4-10 6 0 11 5 11 10 0 6-2 10-4 10-3 0-8-4-11-10zm335-5c-7-9-11-18-8-20 3-3 11 1 18 10s11 18 8 20c-3 3-11-1-18-10zm-461-10c-15-15 6-76 37-106 34-33 61-34 31-1-20 22-22 36-4 29 23-9 40 8 24 22-12 9-18 8-30-4-16-16-36-20-38-7-2 23-11 67-13 69-1 2-5 1-7-2zm21-4c0-6 5-13 10-16 6-3 10 1 10 9 0 9-4 16-10 16-5 0-10-4-10-9zm-1184-95c3-9 11-16 16-16 13 0 5 23-10 28-7 2-10-2-6-12zm464 3c0-5 5-7 10-4 6 3 10 8 10 11 0 2-4 4-10 4-5 0-10-5-10-11zm810-8c-6-12-7-21-1-21 10 0 24 30 17 37-2 3-9-5-16-16zm-848 1c-14-9-6-42 10-42 6 0 7 8 4 17-4 9-1 20 6 25 7 4 9 8 3 8-5 0-16-4-23-8zm713-12c3-5 8-10 11-10 2 0 4 5 4 10 0 6-5 10-11 10-5 0-7-4-4-10zm396-16l-12-29 16 17c10 9 16 21 13 28-2 7-10-1-17-16zm-1153 1c-8-8 15-55 27-55 6 0 17 5 25 11l15 11-17-6c-12-3-22 3-31 20-7 13-16 22-19 19zm83-11c0-11 3-14 6-6 3 7 2 16-1 19-3 4-6-2-5-13zm734-14c3-5 8-10 11-10 2 0 4 5 4 10 0 6-5 10-11 10-5 0-7-4-4-10zm-830-20c3-5 8-10 11-10 2 0 4 5 4 10 0 6-5 10-11 10-5 0-7-4-4-10zm850 1c-3-5-1-12 5-16 5-3 10 1 10 9 0 18-6 21-15 7zm-1155-32c7-11 14-18 17-15 8 8-5 36-17 36-7 0-7-6 0-21zm396 6c-3-8-1-15 3-15 5 0 11 7 15 15 3 8 1 15-3 15-5 0-11-7-15-15zm-351-64c-3-5-1-12 5-16 5-3 10 1 10 9 0 18-6 21-15 7zm1335-13l-12-23 18 17c10 10 15 20 12 24-4 3-12-5-18-18zm-1290-74c0-5 7-18 15-28l15-20v16c0 8-7 21-15 28s-15 9-15 4zm1207-51c-11-13-17-26-15-29 7-7 40 34 37 44-2 6-12-1-22-15zm-1156-28c0-14 28-50 34-43 3 3-3 16-14 29s-20 20-20 14zm-1016-15c3-5 10-10 16-10 5 0 9 5 9 10 0 6-7 10-16 10-8 0-12-4-9-10zm2097-70c-18-29-15-36 8-15 20 18 26 35 12 35-4 0-13-9-20-20zm-985-67c-3-4 1-17 9-28 10-13 14-15 14-4 0 20-16 43-23 32zm928-24c-11-17 1-21 15-4 8 9 8 15 2 15s-14-5-17-11zm-42-71c-20-26-26-41-15-34 12 7 36 46 29 46-3 0-9-6-14-12zm-828-8c3-5 8-10 11-10 2 0 4 5 4 10 0 6-5 10-11 10-5 0-7-4-4-10zm772-77c-4-3-7-11-7-17s5-5 12 2c6 6 9 14 7 17-3 3-9 2-12-2zm-717-8c0-15 18-40 24-34 3 3-1 14-9 25-8 10-14 15-15 9zm-1215-55c-3-5-1-10 4-10 6 0 11 5 11 10 0 6-2 10-4 10-3 0-8-4-11-10zm1878-15c-9-25 4-29 17-6 7 15 7 21 0 21-6 0-13-7-17-15zm-623-3c0-5 7-15 15-22s15-8 15-2c0 5-7 15-15 22s-15 8-15 2zm-1138-47c0-16 2-22 5-12 2 9 2 23 0 30-3 6-5-1-5-18zm1191-40c19-37 46-73 47-62 0 14-28 63-46 78l-17 14 16-30zm513-4c-10-11-16-25-14-32s12 0 22 16c21 32 16 43-8 16zm-1666-87c0-8 5-12 10-9 6 4 8 11 5 16-9 14-15 11-15-7zm1592-29c-13-29-5-33 14-7 15 20 18 32 6 32-5 0-14-11-20-25zm-366 1c3-9 11-16 16-16 13 0 5 23-10 28-7 2-10-2-6-12zm34-40c0-16 31-66 41-66 6 0 0 15-12 33-29 42-29 41-29 33zm273-51c-9-25 4-29 17-6 7 15 7 21 0 21-6 0-13-7-17-15zm-223-44c0-5 7-14 15-21 16-14 18-10 9 14-6 17-24 22-24 7zm177-30c-19-33-22-45-7-36 14 9 42 65 32 65-4 0-15-13-25-29zm-137-25c0-4 16-32 35-62l36-56 14 12c15 12 11 35-4 26-9-6-52 40-45 47 2 2-5 12-16 22s-20 15-20 11zm-890 4844c0-5 5-10 11-10 5 0 7 5 4 10-3 6-8 10-11 10-2 0-4-4-4-10zm110-119c0-6 4-13 10-16s7 1 4 9c-7 18-14 21-14 7zm-95-130c-3-5-1-12 5-16 5-3 10 1 10 9 0 18-6 21-15 7zm1395 70c0-6 4-13 10-16s7 1 4 9c-7 18-14 21-14 7zm-10-222c0-5 5-7 10-4 6 3 10 8 10 11 0 2-4 4-10 4-5 0-10-5-10-11zm-914 144c-6-14-5-15 5-6 7 7 10 15 7 18s-9-2-12-12zm719-353c3-5 8-10 11-10 2 0 4 5 4 10 0 6-5 10-11 10-5 0-7-4-4-10zm-30-10c3-5 8-10 11-10 2 0 4 5 4 10 0 6-5 10-11 10-5 0-7-4-4-10zm10-30c3-6 1-10-5-10s-8-4-5-10c3-5 11-10 16-10 6 0 8 4 5 9-4 5-1 11 6 13 7 3 5 7-6 11-10 4-15 3-11-3zm-538 13c-12-11-8-23 8-23 8 0 15 7 15 15 0 16-12 20-23 8zm83-23c0-5 5-10 11-10 5 0 7 5 4 10-3 6-8 10-11 10-2 0-4-4-4-10zm617-347c-4-3-7-11-7-17s5-5 12 2c6 6 9 14 7 17-3 3-9 2-12-2zm-422-103c-3-6 1-7 9-4 18 7 21 14 7 14-6 0-13-4-16-10zm43-47c7-3 16-2 19 1 4 3-2 6-13 5-11 0-14-3-6-6zm-583-113c3-5 8-10 11-10 2 0 4 5 4 10 0 6-5 10-11 10-5 0-7-4-4-10zm91-32c-20-28-21-43-2-26 8 7 12 15 10 17s4 10 14 17c9 8 12 14 5 14-6 0-19-10-27-22zm115 19c2-1 13-9 24-17l20-15-14 18c-7 9-18 17-24 17s-8-1-6-3zm-66-27c3-5 8-10 11-10 2 0 4 5 4 10 0 6-5 10-11 10-5 0-7-4-4-10zm207-140c-7-11-8-20-3-20 9 0 24 30 18 36-1 2-8-6-15-16zm-67-30c3-5 8-10 11-10 2 0 4 5 4 10 0 6-5 10-11 10-5 0-7-4-4-10zm-12-35c0-8 4-12 9-9 4 3 8 9 8 15 0 5-4 9-8 9-5 0-9-7-9-15zm-239-11c3-9 6-17 6-20 0-2 7-1 15 2l14 6-14 14c-18 19-29 18-21-2zm206 6c0-5 5-10 11-10 5 0 7 5 4 10-3 6-8 10-11 10-2 0-4-4-4-10zm-139-37c7-10 15-20 16-22 2-2 3 3 3 11 0 9-7 19-16 22l-17 6 14-17zm449 86c-7-11-10-23-7-25 2-2 9 7 15 21 14 30 7 33-8 4zm50-59c0-5 5-10 11-10 5 0 7 5 4 10-3 6-8 10-11 10-2 0-4-4-4-10zm735-350c3-5 8-10 11-10 2 0 4 5 4 10 0 6-5 10-11 10-5 0-7-4-4-10zm-65-21c0-5 5-7 10-4 6 3 10 8 10 11 0 2-4 4-10 4-5 0-10-5-10-11zm-45-59c-3-5 0-7 9-4 8 3 16-2 19-13l5-18 1 23c1 22-22 31-34 12zm-43-68c-8-5-10-16-6-27 5-12 4-16-3-12-6 4-13 0-17-8-6-16 9-21 19-5 3 5 12 7 20 3 8-3 15 0 15 6s-5 11-11 11-9 9-6 20 4 20 4 20c-1 0-8-4-15-8zm48-3c0-5 5-7 10-4 6 3 10 8 10 11 0 2-4 4-10 4-5 0-10-5-10-11zm-724 210c6-11 44-12 44-1 0 4-11 8-25 8-14 1-22-2-19-7zm123-6l-14-18 20 15c11 8 22 16 24 17 2 2 0 3-6 3s-17-8-24-17zm-879 97c0-5 5-10 11-10 5 0 7 5 4 10-3 6-8 10-11 10-2 0-4-4-4-10zm110-190l-25-8 20-1c11 0 27 4 35 9 18 11 5 11-30 0zm50-40c-8-5-10-10-5-10 6 0 17 5 25 10s11 10 5 10c-5 0-17-5-25-10zm9-31c-11-7-10-9 7-9 11 0 25-5 31-11 16-16 36-2 21 15-14 15-40 17-59 5zm-26-34c-7-8-9-16-4-19s12 1 15 10c8 22 4 25-11 9zm24-20c-4-8-2-17 3-20 6-4 10 3 10 14 0 25-6 27-13 6zm1823 285c-8-5-12-12-9-15 4-3 12 1 19 10 14 17 11 19-10 5zm-880-350c0-5 7-10 15-10s15 5 15 10c0 6-7 10-15 10s-15-4-15-10zm-538-32c6-18 28-21 28-4 0 9-7 16-16 16s-14-5-12-12zm483-39c-4-6-5-13-2-16 7-7 27 6 27 18s-17 12-25-2zm-548-25c-8-8 1-24 14-24 5 0 9 7 9 15 0 15-12 20-23 9zm633-10c0-9 5-14 12-12 18 6 21 28 4 28-9 0-16-7-16-16zm-670-18c0-8 4-17 9-20 5-4 7 3 4 14-6 23-13 26-13 6zm140-21c0-9 5-15 11-13s11 8 11 13-5 11-11 13-11-4-11-13zm352-14c2-7 7-12 11-12 12 1 9 15-3 20-7 2-11-2-8-8zm-447-11c3-5 8-10 11-10 2 0 4 5 4 10 0 6-5 10-11 10-5 0-7-4-4-10zm551 3c1-2-2-17-6-33-11-38 0-46 17-13l14 27-14 12c-8 6-13 9-11 7zm-166-23c0-5 5-10 10-10 6 0 10 5 10 10 0 6-4 10-10 10-5 0-10-4-10-10zm76-6l-20-14h16c9 0 20 5 23 11 11 17 2 18-19 3zm-456-4c0-5 5-10 10-10 6 0 10 5 10 10 0 6-4 10-10 10-5 0-10-4-10-10zm134-31c-3-6-1-16 4-21 8-8 11-5 9 11-1 24-3 25-13 10zm296 1c0-5 5-10 11-10 5 0 7 5 4 10-3 6-8 10-11 10-2 0-4-4-4-10zm-270-20c0-5 5-10 10-10 6 0 10 5 10 10 0 6-4 10-10 10-5 0-10-4-10-10zm-89-136c0-11 3-14 6-6 3 7 2 16-1 19-3 4-6-2-5-13zm44-64c3-5 8-10 11-10 2 0 4 5 4 10 0 6-5 10-11 10-5 0-7-4-4-10zm35-54c0-2 7-7 16-10 8-3 12-2 9 4-6 10-25 14-25 6zm90-76c0-5 5-10 11-10 5 0 7 5 4 10-3 6-8 10-11 10-2 0-4-4-4-10zm-65-21c-4-6-5-12-2-15 2-3 7 2 10 11 7 17 1 20-8 4zm25 1c0-5 5-10 11-10 5 0 7 5 4 10-3 6-8 10-11 10-2 0-4-4-4-10zm440 309c0-5 5-7 10-4 6 3 10 8 10 11 0 2-4 4-10 4-5 0-10-5-10-11zm-50-30c0-5 5-7 10-4 6 3 10 8 10 11 0 2-4 4-10 4-5 0-10-5-10-11zm30-19c0-5 5-10 11-10 5 0 7 5 4 10-3 6-8 10-11 10-2 0-4-4-4-10zm-130-190c-9-6-10-10-3-10 6 0 15 5 18 10 8 12 4 12-15 0z"/></g></svg><svg xmlns="http://www.w3.org/2000/svg" width="773" height="602" version="1.0"><g fill="#524d4d" transform="matrix(.1 0 0 -.1 0 602)"><path d="M2945 5809c-89-13-221-56-295-96-70-38-210-140-210-153 0-25 27-16 83 27 133 105 248 156 407 183 45 8 353 10 980 8l915-4 60-18c98-28 238-101 317-164 185-149 294-353 319-595 6-66 9-775 7-2012l-4-1910-22-82c-37-140-113-283-195-371l-31-32 13-13 13-12 42 47c96 109 180 288 206 440 7 44 10 671 8 2048l-3 1985-29 85c-48 143-91 222-184 338l-34 43-15-13-16-13 7 21 7 22-63 50c-106 84-220 139-368 179l-65 17-895 2c-492 1-922-2-955-7zm86-64c-57-49-121-160-141-248-11-45-47-194-80-332-33-137-60-261-60-275s22-90 49-170l49-145-31-55c-17-30-48-82-69-115s-36-65-34-72c3-6 10-49 16-95s17-121 24-168c8-47 19-119 26-161l11-76-20-69c-10-38-33-117-50-175s-31-114-31-123 21-39 46-66l45-49 19-128c11-70 25-169 31-219 12-92 31-131 73-147 10-4 20-16 23-27s10-20 15-20 6 5 3 10c-3 6-2 10 4 10 5 0 9-9 8-20s-6-20-12-20c-20 0-36 17-30 32 4 9 0 18-9 21-19 8-19 8-5-32l11-31h29c16 0 29 5 29 10 0 6 6 10 13 10 18 0 63-39 59-52-1-5 2-7 8-3 14 9 71-27 66-42-3-7 1-10 8-7 13 5 73-64 68-79-1-5 2-6 7-3 5 4 31-17 58-45 26-29 110-113 186-188 77-75 206-202 287-283l148-147 119 122c66 67 153 158 193 202 110 119 294 300 303 297 5-1 6 1 3 6s15 27 39 50c25 23 45 48 45 56s14 17 30 21c17 4 30 10 30 15 0 7 65 50 76 50 3 0 2-6-1-12-4-7 0-5 9 6 9 12 23 17 36 13 11-3 18-1 14 4-3 5 2 9 11 9s14 4 10 9c-7 12 31 25 46 15 7-4 9-3 6 3-3 5 7 19 22 31 22 16 33 36 44 84 27 116 99 392 107 414 5 11 25 39 44 60 20 21 36 45 36 51 0 7-15 59-34 115-19 57-50 153-69 215l-36 111 25 149c13 81 27 191 31 243l6 96-53 84c-29 47-61 96-71 109-24 30-24 54 2 154 30 116 35 81-62 492-11 44-32 143-49 220l-30 140-66 63c-36 34-73 62-81 62-23 0-52-26-309-279l-241-238-169-6c-93-4-200-13-237-20l-69-14-55 86c-31 47-95 149-144 226l-87 140-97 83c-106 90-126 97-174 57zm159-68c86-69 130-126 247-317 25-41 64-101 85-132 22-32 36-63 32-70-4-6-3-8 3-5 16 10 87-109 89-151 2-35-40-122-58-122-5 0-8-6-8-12-1-15-59-82-66-76-2 3 5 15 15 27 11 13 17 29 14 38-4 9-16-8-33-47-33-75-48-93-46-53 1 15 5 34 10 42 6 10 5 12-2 7-7-4-12-1-12 9 0 9 5 13 10 10 6-3 10-2 10 4 0 5 3 18 6 28l6 18-11-15c-8-12-11-4-12 35l-1 50-8-30c-4-16-8-53-9-82 0-28-6-55-13-59-8-5-9 0-5 15 3 14 1 21-6 18-6-2-11-14-11-28 0-17 5-23 17-21 11 2 15-2 11-13-3-8-11-12-16-9-6 4-14 0-19-7-6-10-9-8-9 9 0 12-4 22-10 22-5 0-10-5-10-12 0-6-8-3-20 7-11 10-17 21-15 25 3 5 1 19-4 32l-10 23v-23l-1-23-25 18c-13 10-25 27-25 38-1 12-4 15-7 7-8-20-53 26-46 47 3 11 2 12-4 3-7-9-14-7-31 8-18 17-20 25-12 40 6 11 15 20 20 20 6 0 10 7 10 15s5 24 12 34l11 18-22 32c-13 17-30 53-40 79-9 26-24 58-33 72s-27 47-39 73l-24 48-6-23c-3-13-7-89-8-168-4-213-5-232-24-267-18-34-31-45-21-18 4 8 1 15-4 15-6 0-9-10-7-21 2-12 0-30-6-40l-10-19-21 20c-12 11-26 20-30 20-5 0-7 4-4 9 4 5 3 11-2 13-4 1-22 46-40 98l-32 95 10 135c5 74 12 150 16 169l5 33 32-7c18-3 52-10 77-15 83-16 105-23 111-32 3-5 9 0 12 11 3 13 1 19-5 14-7-3-8-1-4 5 11 18 39 15 32-4-4-12-1-14 14-9l20 6-7-18-7-18 15 11c11 9 30 5 81-16 37-15 65-23 61-16-35 60-87 126-98 126-8 0-15 5-15 11 0 5 5 7 10 4 6-3 10-2 10 2 0 9-61 35-68 29-2-3 6-9 17-16 22-11 30-52 9-46-7 3-26 7-41 11l-28 6 13-15c7-8 15-12 17-10 5 5 64-27 58-32-2-3-30 5-61 16l-56 21v70l19-11c11-5 26-10 33-10 7 1-2 7-19 15l-33 14 9 23c4 13 6 29 3 37-3 10 1 12 14 8l19-7-15 12c-17 14-15 62 2 52 6-4 5 2-1 15-8 14-17 19-25 14-13-8-125-135-178-203-15-19-28-30-28-25 0 27 40 155 60 194 32 63 117 151 138 143 10-3 55-37 102-75zm1502-45l55-58 12-53c6-30 10-55 8-57-5-6-22 11-86 84-60 67-91 86-106 62-3-5-1-10 5-10 7 0 10-32 9-89-1-49 2-94 5-100 4-5-6-17-21-26-22-13-23-15-5-10 13 4 22 2 22-5 0-6-10-14-22-19-71-28-82-34-70-38 7-3 19 1 27 7l15 12v-28l1-29 16 35 16 35 5-19c2-10-12-51-32-90s-36-77-36-84-18-58-40-114l-41-102 11-26c8-18 8-35 1-53-7-17-7-27-1-27s10 10 10 22c0 15 3 19 10 12 13-13 3-44-14-44-6 0-22-16-36-34-14-19-28-32-32-30s-15-9-24-26c-12-20-26-30-42-30-15 0-21 4-16 12s2 9-9 5c-10-4-17-2-17 5s-4 7-14-1c-11-9-16-9-22 0-4 8-3 9 4 5s12-2 12 4c0 7 7 10 15 6 8-3 15-1 15 4 0 6-4 10-10 10-5 0-10 6-10 14 0 7-11 16-25 18-24 5-34-5-16-16 5-3 7-15 4-26s2-32 12-46c12-19 13-25 3-22-7 2-26 29-42 59-16 31-39 60-50 65-12 5-22 18-24 29s-8 25-14 30c-6 6-7 3-2-10 4-12-8-3-29 20-20 22-36 43-37 47 0 4-8 14-17 24-9 9-18 28-20 43-1 14-4 35-5 46-2 12 4 21 16 23l19 4-5-26c-5-27-1-31 17-18 13 9 17 64 4 57-11-7-11 22 0 49l8 20 6-18c4-9 11-15 17-11 12 7 52 96 46 102-8 9 29 49 246 266 161 161 224 217 241 217 16 0 42-19 79-58zm72-229c3-16 17-104 31-197l27-169-33-119c-18-65-36-118-40-118-3 0-23 25-43 55l-36 55-30 207c-16 115-30 215-30 223 0 13 120 89 142 90 3 0 9-12 12-27zm-1504-26l11-22-15 19c-8 10-19 15-25 11-7-3-8 0-5 9 7 19 20 13 34-17zm-150 8c0-2-6-5-13-8-8-3-14 1-14 8s6 11 14 8c7-3 13-6 13-8zm1755-348l47-197-23-100c-12-55-25-100-29-100-12 0-90 119-90 137 0 10 14 70 32 133l31 114-11 91c-7 49-14 110-17 135l-5 45 9-30c5-16 30-119 56-228zm-2016 118c-10-108-10-110 52-281l48-134-35-65c-20-36-39-67-44-70-17-10-100 239-100 299 0 42 77 353 85 344 2-2-1-43-6-93zm996-12c13-16 25-22 25-15s-7 15-15 18c-39 16-6 24 85 23 106-1 119-9 80-44-11-10-20-22-20-27 0-20-43-66-57-61l-15 6 10-20c7-12 7-25 1-34-12-19-11-38 1-19l11 15 30-35c17-19 84-102 150-184l120-149-43-39c-24-22-51-47-60-55-11-10-18-12-18-5s-5 12-11 12c-5 0-7-4-4-10 3-5 0-10-9-10-16 0-51 36-200 203-46 52-66 83-62 93 4 11 2 15-7 11-10-4-17 18-26 85-7 49-15 87-18 84-3-2 0-45 7-95l12-91-21-32c-11-18-31-44-44-58s-27-33-33-42c-19-34-98-118-111-118-16 0-17 16 0 24 6 4 2 4-11 2-22-4-45 11-112 71-14 13-19 23-12 23 6 0 11 3 10 8-2 5 151 230 198 291 2 2 11-2 20-10l17-14-13 25c-7 14-17 32-22 40-4 8-16 31-25 50-10 19-23 42-31 52-19 23-5 29 102 44 50 6 92 12 94 13s14-11 27-26zm-175-143c0-5-4-10-10-10-5 0-10 5-10 10 0 6 5 10 10 10 6 0 10-4 10-10zm-497-101c34-29 124-108 199-177l138-124-24-29c-13-15-26-33-28-40-3-9-37-7-133 5-72 8-200 21-285 27s-156 12-158 14c-10 10 208 375 224 375 3 0 33-23 67-51zm1571-124c69-104 109-172 102-176-6-3-69-26-141-49-71-24-139-47-150-51-77-33-191-69-215-69-23 0-35 9-59 43-16 24-36 49-45 56-9 8-16 18-16 24 0 15 392 398 403 394 5-1 60-79 121-172zm-580-11c3-8 2-12-4-9s-10 10-10 16c0 14 7 11 14-7zm-188-154c60-69 113-128 118-132 5-3-5-23-23-43l-32-37 3-87c1-47-1-92-5-98-5-8-4-13 3-13s10-33 9-97l-1-97-15 19c-8 11-23 37-34 58l-20 39 13 16 13 17-17-13-17-13-22 43c-12 24-37 69-56 101l-36 59-48-102c-27-56-49-105-49-111 0-5-5-9-11-9-5 0-8-3-6-7 3-5-6-28-19-53l-23-45-2 40c-1 22-2 49-2 60 1 11 1 36 1 55s0 87 1 151l1 115-35 41c-19 23-35 44-35 48 0 14 161 223 176 229 9 4 23 1 30-5l14-12-6 19-7 19 15-15c8-8 64-71 124-140zm300 65c0-14-4-25-8-25s-7 11-6 25c3 33 16 33 14 0zm570-117c-3-13-15-63-26-111l-22-88 17-57c10-31 24-74 31-96 11-29 12-41 3-52-9-12-9-13 3-9 16 6 27-26 31-87 1-14 6-26 11-25 8 2 33-57 39-96 2-12 9-35 15-50 7-16 12-32 12-36 0-5 24-81 53-169 39-117 51-164 43-172s-7-11 3-8c19 4 33-48 17-62-16-13-31 3-84 95-22 39-54 89-71 112-16 23-42 63-56 90-15 26-35 62-45 78-10 17-29 49-41 73-35 65-40 67-105 38-31-15-60-24-63-21-5 5 9 69 24 107 5 13 0 21-19 29-14 7-26 18-26 26s23 50 51 94c28 43 49 86 46 94-10 24-110 84-207 125l-93 38 22 11c11 7 21 10 21 8 0-3 30 7 68 20 37 14 85 31 107 37 22 7 53 18 68 24 16 7 34 12 41 12s39 11 72 25c32 13 60 24 62 25 1 0 0-10-2-22zm91-77l63-97-12-87-12-87-30 27-31 28 32-35 33-36-9-31c-5-17-7-34-4-36 2-3-1-42-8-87-12-88-18-89-43-8-8 24-17 52-22 63l-8 20 17-14c10-8 20-12 23-9 2 3-6 12-20 21s-27 30-31 49c-4 18-9 42-12 53l-6 20 24-20c13-11 9-3-10 18-19 20-32 40-28 43 4 4 2 12-3 19-22 26-22 144-1 130 5-2 6 7 3 20-2 14-1 33 3 42 10 22 12 31 13 66 1 15 5 27 10 26 4 0 35-44 69-98zm-1329 15l72-74v-132c0-72-4-130-9-128-11 4-177 185-197 214l-14 21 14 67c12 59 37 106 55 106 4 0 39-33 79-74zm-433 34c44-6 98-12 120-15s55-5 73-5c17 0 32-4 32-10 0-5-7-10-16-10s-54-18-101-40l-86-40-16 12-16 12 12-13c9-11-1-22-50-55-34-22-66-40-70-38-5 1-6-2-3-6 3-5-3-17-14-27s-20-21-20-25 29-47 65-95 65-91 65-95c0-5-9-15-21-24-22-15-23-52 0-109 6-16 11-30 11-33 0-11-21-1-56 27-22 17-48 36-59 42l-20 10 12-14 12-15-28-44c-15-25-48-79-72-120s-46-77-49-80c-4-3-9-12-13-20s-18-33-32-55-28-47-32-55c-16-36-65-100-73-95-4 3-6-4-3-15s0-20-6-20c-14 0-14 3 0 74 9 44 15 56 27 51l15-5-12 14c-8 10-9 21-3 33 5 10 14 45 21 77 7 33 21 79 31 102s16 45 13 48c-12 12 13 6 27-6 8-7 7-4-3 8-19 23-14 89 6 77 6-3 7-1 3 5-6 10 22 123 70 287 25 87 27 119 10 153-9 18-21 53-26 80-5 26-12 57-16 70l-7 23 109-5c60-4 145-11 189-16zm-290-105l17-59-17-28-16-28 16 6c8 3 15 10 15 15s4 9 9 9c11 0 6-42-8-67-5-11-12-35-14-54-8-60-28-133-42-156-11-16-12-23-2-26 7-3 5-6-5-6-9-1-20-5-23-11s1-7 9-4c9 3 16 5 16 3-1-2-9-33-19-69l-19-65-7 28c-4 15-5 36-2 47s0 20-5 20c-6 0-8 14-5 34 3 18 1 38-5 44s-9 30-7 55 1 43-2 41c-12-7-17 50-7 70 7 12 7 16 0 12-17-10-26 52-10 71 9 12 9 15 1 9-27-16-12 37 33 117 26 45 52 88 58 96l11 14 7-29c3-16 14-56 23-89zm1350 78c27-30 55-83 55-105 0-7-26-40-58-74-31-33-81-86-111-118-29-31-55-56-57-54-1 2-4 57-5 123l-3 120 66 68c36 37 71 67 77 67 5 0 22-12 36-27zm-791-66l-6-54 80-84c44-46 99-106 121-134l42-50-3-49-2-49-19 24c-11 13-32 47-48 75-39 68-94 94-204 94-84 0-121-14-178-69l-49-46-35 40c-53 60-93 116-93 132s106 95 175 131c49 25 203 90 218 91 4 1 4-23 1-52zm981-53c54-17 189-86 218-111 9-9 17-23 17-31 0-17-41-91-78-139l-24-32-101 50-101 51-52-11c-63-14-123-56-153-105-13-20-26-36-30-36s-13-16-20-35-16-35-21-35c-13 0-22 68-10 90 7 13 7 20 1 20-22 0-1 65 32 99 52 54 101 109 165 183l57 67 25-5c14-3 48-12 75-20zm-555-93c0-4 21-45 46-90 25-44 44-88 40-96-3-9 0-15 8-15 7 0 33-39 58-87l46-88 11-170c6-93 14-195 16-225l4-55-12 16c-6 9-14 16-17 15s-30 17-60 39c-127 92-164 113-180 105-8-4-46-33-85-64-82-66-100-70-91-23 3 17 13 106 22 197l16 165 30 78c19 50 34 77 42 74 9-4 11 2 8 18-2 15 11 56 37 109 23 47 41 90 41 95 0 6 5 11 10 11 6 0 10-4 10-9zm-380-110c35-10 38-44 6-76-14-14-35-25-46-25-33 0-75 26-88 55-22 49-17 55 46 54 31-1 68-4 82-8zm850-68c0-43-5-52-40-76-32-22-72-21-101 2l-24 20 31 31c28 28 89 58 122 60 7 0 12-14 12-37zm-1040-38c48-33 162-49 202-29 38 20 46 18 94-18 50-38 53-50 18-72-14-10-49-39-79-66s-65-56-79-65l-25-17-85 40c-96 45-96 45-117-36-7-29-16-49-20-45-3 5-23 61-43 125-20 65-39 124-42 131-3 9 16 24 58 45 34 18 67 32 72 32 6 0 26-11 46-25zm1266-36c24-13 44-30 44-38 0-9-14-61-30-116s-30-108-30-117c0-31-18-19-24 17-4 19-11 37-16 40-6 4-41-11-80-31l-69-38-53 36c-68 45-178 136-178 147 0 5 13 14 30 21 23 9 40 10 78 0l49-11 47 25c49 26 85 62 86 85 0 20 89 8 146-20zm-881-79c3-5 1-10-5-10s-10-6-8-12c1-7-1-42-6-77l-7-63-36-37c-19-20-40-35-45-33-5 1-7-2-3-7 3-6-3-15-14-21-12-6-18-16-15-25 4-8 1-15-5-15s-11-9-11-19c0-13-8-21-22-23-24-4-30 0-176 125l-79 67 5 25c2 14 8 25 12 25 5 0 45-16 89-36l81-37 56 49c152 132 175 147 189 124zm-583-52c35-25 52-44 64-78 37-97 44-111 54-105 5 3 10 15 10 25 0 40 24 29 130-60l109-91 6-32c17-104 24-201 15-212-13-16-125-85-138-85-12 0-107 113-267 315-65 83-124 157-132 166l-14 17 51 86c29 47 55 86 58 86s27-15 54-32zm1668-48c26-43 39-74 34-82-13-21-153-186-215-253-30-33-71-78-90-100-73-84-132-145-142-145-5 0-36 16-69 36l-59 36 6 32c4 17 16 66 27 109l21 79 110 99c60 54 113 96 118 94 4-3 10-19 14-35 4-17 10-30 13-30 4 0 18 39 31 86l24 86 61 28c34 16 64 29 67 29 4 1 26-30 49-69zm-626 28c11-10 25-18 31-18 17 0 57-45 48-54-4-4-1-5 7-2 19 7 70-33 52-41-6-2-9-9-6-15 4-7 9-6 14 1 5 9 15 7 38-6l32-18 22 14c62 39 108 62 108 53 0-18-146-156-181-172-24-11-50-55-56-94-6-33-13-31-13 3 0 39-11 62-57 119-38 46-38 61-3 42l22-12-4 13c-3 8-15 14-29 14-13 0-29 9-36 20-16 27-16 35 2 35 17 0 18 2 9 24-3 9-14 16-23 16l-16-1 18-13 18-14-17-6c-9-4-18-5-20-3s-6 33-8 69l-6 66 18-2c9 0 26-9 36-18zm-488-165c-3-21-8-78-12-128-4-49-8-92-9-95-4-26-102-113-115-105-19 12-10 120 14 193 23 67 96 172 119 172 5 0 6-17 3-37zm1283-137c56-90 101-168 101-173 0-6-28-40-62-77-35-36-90-96-123-132-129-144-158-173-168-167-6 3-7 1-3-5 7-11-53-79-66-74-4 1-7-3-5-9 1-6-4-14-11-16-9-4-11 4-6 29 3 18 6 57 6 86 0 28 3 52 7 52s5 15 3 32l-5 33 18-15 18-15-17 33c-18 34-13 89 5 61 12-20 11-2-2 22-8 16-7 25 4 37 8 9 36 73 62 142s51 130 55 135c4 6 13 31 21 58 7 26 17 47 21 47s7 4 6 8c-5 14 25 81 33 76 4-2 53-78 108-168zm-784 88c28-42 55-93 62-113 15-47 16-133 2-165l-12-25-36 35c-20 18-39 34-42 34-4 0-12 51-18 113-15 150-18 197-11 197 3 0 28-35 55-76zm-1230 46c-3-5-2-10 3-10 9 0 35-76 32-94-1-5 2-12 7-15s23-44 40-91c68-188 83-223 100-242 14-16 18-39 20-111 1-51 5-112 8-136 5-34 4-42-7-38-7 2-12 10-10 16 1 7-1 10-6 7-10-6-82 77-82 94 0 6-4 9-9 5-12-7-33 29-23 40 4 5 2 6-4 2-13-8-67 49-59 63 3 6 0 7-9 4s-16-2-16 3-18 29-40 53c-23 26-38 52-36 62 2 9-1 15-8 12-11-4-86 67-86 81 0 4 21 37 46 73 26 37 38 60 29 52l-18-15 12 23c7 12 16 20 21 17s12 0 16 6c4 8 3 9-4 5-16-9-15 0 2 27 7 12 25 43 40 70 15 26 31 47 37 47s7-4 4-10zm1855-22c0-4-53-141-88-228-53-132-79-175-126-213-25-21-69-60-98-87s-58-50-65-50c-6 0-14-6-16-12-3-7-6-3-6 10-1 14 3 21 10 16 8-4 8 0 0 15-9 16-9 21 0 21 8 0 8 4 1 13-13 15-1 77 22 112 9 13 31 41 50 62 151 168 283 318 291 329 8 12 25 19 25 12zm-1745-84c70-88 99-123 186-224 92-106 145-187 107-164-7 4-8 3-4-5 4-6 12-9 17-6 13 8 11-32-2-57-8-15-8-19 0-14 6 4 11 2 11-3 0-6-6-11-12-12-7 0-3-5 10-11 12-6 22-18 22-26v-14l-17 13c-10 8-43 34-73 59s-65 54-79 65c-102 83-98 77-161 263-21 63-41 116-44 119-3 4-6 13-6 22s-7 28-14 44c-25 47-3 29 59-49zm1044-159l14-14-17-45c-20-53-29-61-48-43-21 20-71 50-64 38 9-14 4-14-28 2-14 8-24 16-21 18 4 5-6 7-67 12-21 2-36 1-33-1 9-9-56-43-67-36-7 5-8 2-3-6 6-10 3-12-12-8-14 4-20 1-19-10 0-8-5-17-12-19-12-5-62 87-62 114 0 7 45 49 100 93l100 79 113-80c61-45 118-87 126-94zm-561 144c-2-6-8-10-13-10s-11 4-13 10 4 11 13 11 15-5 13-11zm135-215c22-44 25-59 16-70-20-24-1-104 37-156 42-56 140-148 159-148 8 0 48 29 88 65 86 74 106 113 111 213 3 60 30 143 45 142 3-1 32-25 64-53l57-53 10-84c5-47 10-107 10-134v-48l-71-70-71-70-44 7c-24 3-75 17-114 31-38 13-77 24-86 24s-56-18-105-40-100-40-114-40c-35 0-106 68-141 134l-28 54 13 94c20 145 28 168 77 216 24 23 48 42 52 42s20-25 35-56zm237 11c17-9 30-20 30-26s4-7 10-4c12 7 80-23 80-36 0-5 3-8 8-8 25 4 32-4 32-42v-40l-22 7c-13 4-25 9-28 13-3 3-18 7-34 8l-29 2 18-13 18-13-39-27c-44-29-87-33-139-12-42 18-44 31-7 44 21 8 23 11 7 11-11 0-40-11-64-24-24-14-45-24-46-23-1 2-5 22-8 45l-5 43 36 22c21 12 39 26 40 30 2 4 8 8 14 8 5 0 22 9 38 20 15 11 30 17 34 13 3-3 6-1 6 5 0 16 15 15 50-3zm-414-183c-10-78-12-122-5-147 16-59 116-175 164-191 11-4 34-17 50-29 45-34 89-54 132-61 21-3 41-11 45-18 6-8 8-7 8 2 0 7 6 12 13 11 6-1 19 0 27 4 8 3 31 10 50 16s56 31 83 55c26 25 56 47 66 51 28 9 131 115 146 150 9 22 10 54 5 120-5 50-9 102-9 117l-1 26 60-35 60-36-5-46c-3-25-12-120-20-210l-15-165-62-75c-34-42-94-113-133-157-38-45-94-110-124-145-101-120-131-150-145-142-16 9-284 323-374 437-34 44-64 89-67 100-6 26-55 379-55 394 0 11 111 94 117 88 2-2-3-53-11-114zm1494 5c-13-51-27-96-31-102-5-5-9-20-9-34s-12-62-26-107l-26-82-17 6-16 6 14-17 13-17-43-1c-33-2-37-3-15-6l29-5-127-64c-71-36-130-63-133-61-2 3 0 37 6 77l10 71 38 47c66 82 164 195 214 247 73 76 98 104 116 132 26 40 27 11 3-90zm-2060-17c40-47 89-103 109-125s56-64 80-94l45-53 3-82c2-44 5-91 7-103 5-33-9-29-83 25-36 27-83 59-104 71-20 13-35 27-31 32 3 5 2 8-3 7-4-1-22 7-40 18l-32 20 14 27c8 15 10 25 5 22-19-11-41 85-55 235-3 36-9 76-12 90l-5 25 15-15c8-8 47-53 87-100zm1673-43c-10-11-12-17-6-13 9 5 12-6 12-44-1-27-4-50-8-50-3 0-6-33-7-73 0-82-14-280-19-285-2-2-14 1-27 8l-23 11 18-14c9-8 17-17 17-21 0-16-314-335-323-329-6 3-7 1-3-6 8-12-220-248-235-244-5 2-9-3-9-10s-20-32-44-56l-45-44-55 53c-31 29-56 60-56 67 0 8-4 12-8 9-14-8-114 85-108 101 4 8 1 11-5 7-14-8-89 65-83 81 3 7-1 12-9 12-16-2-193 163-189 176 1 4-2 7-6 7-10 0-36 23-71 62l-24 27 14 18 14 18-18-14-18-14-31 31-31 31 14 18 14 18-18-14c-9-8-20-11-23-8s-7 60-9 127c-3 66-6 124-8 128-3 4-8 51-11 105l-7 99 13-8c10-6 10-5 2 7-12 15-24 99-14 99 4 0 44-32 91-71 46-39 96-81 110-94 20-16 29-35 34-74l7-53-30 16c-47 24-53 18-7-7 41-22 43-26 48-106 1-20 12-46 25-60 39-44 48-54 101-121 28-36 65-80 81-98 17-18 30-40 30-48s4-13 9-9c5 3 19-7 31-22 45-59 76-96 90-112 33-36 88-107 91-119 3-7 37 25 79 74 41 48 82 95 90 104s37 45 64 81c79 102 238 279 251 279 8 0 10 10 7 27-3 18 1 31 14 41l19 15-19-7-18-6 6 42c3 24 9 68 12 98l5 55 72 66c40 36 90 82 112 102l40 36 3-41c2-28-2-46-15-61zm-573 2c0-5-5-9-12-9s-27-15-46-32l-35-33 13 25c20 39 51 69 66 63 8-3 14-9 14-14zm-224-21c46-53 47-60 2-27-26 19-47 37-48 42 0 15 27 6 46-15zm139-203l30-13-80-1h-80l19 14c24 18 71 19 111 0zm114-34c10-7 4-16-29-40-55-40-111-55-175-46-49 6-135 47-135 65 0 15 34 20 75 10 54-13 110-11 165 4 56 17 81 18 99 7zm-919 2684c0-2 10-10 23-16l22-12-14 16c-13 16-31 23-31 12zm40-45c0-5 5-10 11-10 5 0 7 5 4 10-3 6-8 10-11 10-2 0-4-4-4-10zm26-45c4-8 8-15 10-15s4 7 4 15-4 15-10 15c-5 0-7-7-4-15zm75-201c0-11 3-14 6-6 3 7 2 16-1 19-3 4-6-2-5-13zm149-164c0-5 4-10 9-10 12 0 42-48 44-70 1-10 5-17 9-14s16-12 27-33 20-33 21-26c0 15-92 163-102 163-5 0-8-4-8-10zm131 3c0-5 4-17 9-28l9-20v28c1 15-3 27-9 27-5 0-10-3-9-7zm40-109c0-11 3-14 6-6 3 7 2 16-1 19-3 4-6-2-5-13zm-126-14c-3-5-1-10 4-10 6 0 11 5 11 10 0 6-2 10-4 10-3 0-8-4-11-10zm121-50c-10-22-15-46-13-53 3-6 6-1 6 12 1 14 6 21 14 18s13 7 14 29c2 19 2 34 0 34s-11-18-21-40zm-115 14c0-11 3-14 6-6 3 7 2 16-1 19-3 4-6-2-5-13zm-88-64c0-25 2-35 4-22 2 12 2 32 0 45-2 12-4 2-4-23zm-348 0c-3-6 1-7 9-4 18 7 21 14 7 14-6 0-13-4-16-10zm455-16c0-8 5-12 10-9 6 3 10 10 10 16 0 5-4 9-10 9-5 0-10-7-10-16zm66-19c4-8 8-15 10-15s4 7 4 15-4 15-10 15c-5 0-7-7-4-15zm-586-25c0-5 5-10 11-10 5 0 7 5 4 10-3 6-8 10-11 10-2 0-4-4-4-10zm418-45c2-19 9-35 14-35 6 0 7 7 4 16s-6 24-6 35c0 10-4 19-8 19s-6-16-4-35zm37 25c-3-5-2-10 4-10 5 0 13 5 16 10 3 6 2 10-4 10-5 0-13-4-16-10zm1135 745c-7-9-10-18-7-21s10 4 17 15c13 25 8 27-10 6zm-110-181c0-8 5-12 10-9 6 3 10 10 10 16 0 5-4 9-10 9-5 0-10-7-10-16zm-15-34c-3-5-1-10 4-10 6 0 11 5 11 10 0 6-2 10-4 10-3 0-8-4-11-10zm8-23c-44-17-49-25-27-43l19-15-22 11-23 11-20-33-20-33 20-3c11-2 29 6 42 17 12 12 28 21 35 21 8 0 12 4 8 9-3 5 0 13 6 17 6 3 15 1 19-6 5-8 10-9 14-1 4 6-7 14-26 19l-33 9 23 7c12 4 22 12 22 17s-1 9-2 8c-2 0-17-6-35-12zm-235-328l-37-59 9-22 9-23v23c1 16 5 21 14 16 9-6 9-5 0 7-9 11-8 18 2 33 8 10 18 15 24 12 6-4 8 2 6 14-2 11 3 24 13 29 11 7 14 13 7 19-7 7-23-11-47-49zm-156-39c0-14 2-19 5-12 2 6 2 18 0 25-3 6-5 1-5-13zm28-9c0-5 5-13 10-16 6-3 10-2 10 4 0 5-4 13-10 16-5 3-10 2-10-4zm140-30c0-6 5-13 10-16 6-3 10 1 10 9 0 9-4 16-10 16-5 0-10-4-10-9zm-25-30c-3-8-2-17 3-19 6-2 8-11 5-21-7-27 9-32 31-10l19 19h-15c-9 0-21 7-28 15-8 9-9 15-2 15 6 0 14-4 17-10 7-12 25-13 25-2 0 4-11 12-24 18l-25 12-6-17zm-105 2c0-4 5-15 10-23l10-15v17c0 9-4 20-10 23-5 3-10 3-10-2zm301-69c0-11 3-14 6-6 3 7 2 16-1 19-3 4-6-2-5-13zm-163-8c-22-16-22-22-3-30 18-7 45 2 45 15 0 6-9 5-20-1-14-7-20-7-20 0 0 5 6 10 14 10s18 5 21 10c9 14-17 12-37-4zm90-94c3-17 7-20 13-10 13 19 11 35-4 35-9 0-12-9-9-25zm-543 388c-3-5-1-10 4-10 6 0 11 5 11 10 0 6-2 10-4 10-3 0-8-4-11-10zm-35-34c0-9 5-16 10-16 6 0 10 4 10 9 0 6-4 13-10 16-5 3-10-1-10-9zm185-147c-4-6-5-12-2-15 2-3 7 2 10 11 7 17 1 20-8 4zm-196-24c17-34 31-51 31-39 0 7-9 22-21 35-16 19-18 20-10 4zm41-62c0-15 19-37 26-31 3 4-1 14-10 23s-16 13-16 8zm-40-713c6-11 13-20 16-20 2 0 0 9-6 20s-13 20-16 20c-2 0 0-9 6-20zm1120 186c0-2 7-9 15-16l15-13-6 17c-5 14-24 23-24 12zm105-16c10-11 20-20 23-20s-3 9-13 20-20 20-23 20 3-9 13-20zm-1865-194c0-2 8-10 18-17l17-14-14 18c-13 16-21 21-21 13zm-264 217c-6-14-5-15 5-6 7 7 10 15 7 18s-9-2-12-12zm9-203c-3-5-1-10 4-10 6 0 11 5 11 10 0 6-2 10-4 10-3 0-8-4-11-10zm1041-76l-6-16-18 12c-9 7-4 1 11-14 31-29 16-37-16-8-11 9-17 11-13 5 4-7 2-13-4-13s-14 10-19 22c-5 14-10 18-15 10-4-7 7-37 24-67 18-31 29-62 27-70-3-7 1-16 9-19 12-4 14-1 9 14-5 14 7 40 39 87 25 37 43 69 40 72s-9-1-13-8c-5-7-14-10-20-7-6 4-11 0-11-8 0-9-5-16-11-16s-8 9-4 20c8 24 0 27-9 4zm-50-179c-3-8-1-15 4-15 6 0 10 7 10 15s-2 15-4 15-6-7-10-15zm-328-183c9-10 19-17 21-16 6 5-20 34-30 34-5 0-1-8 9-18zm-35-27c0-8 4-15 9-15 4 0 8 7 8 15s-4 15-8 15c-5 0-9-7-9-15zm717 155c0-5 7-7 15-4 8 4 15 8 15 10s-7 4-15 4-15-4-15-10zm1-37c0-10 3-13 5-8 2 6 21 9 42 7 47-5 40 3-10 12l-38 7 1-18zm248-30l-14-18 20 15c11 8 22 16 24 17 2 2 0 3-6 3s-17-8-24-17zm-879-653c0-5 5-10 11-10 5 0 7 5 4 10-3 6-8 10-11 10-2 0-4-4-4-10zm635 0c-3-5-1-10 4-10 6 0 11 5 11 10 0 6-2 10-4 10-3 0-8-4-11-10zm-535-40c0-5 5-10 11-10 5 0 7 5 4 10-3 6-8 10-11 10-2 0-4-4-4-10zm171 254c0-11 3-14 6-6 3 7 2 16-1 19-3 4-6-2-5-13zm29-44c0-5 5-10 11-10 5 0 7 5 4 10-3 6-8 10-11 10-2 0-4-4-4-10zm970-289c0-6 4-13 10-16s7 1 4 9c-7 18-14 21-14 7zm-132-118c7-3 16-2 19 1 4 3-2 6-13 5-11 0-14-3-6-6zm-259 170l-14-18 18 14c16 13 21 21 13 21-2 0-10-8-17-17zm-19-83c-9-6-10-10-3-10 6 0 15 5 18 10 8 12 4 12-15 0zm-40-324c0-2 8-10 18-17l17-14-14 18c-13 16-21 21-21 13zm-886-198l-19-23 23 19c21 18 27 26 19 26-2 0-12-10-23-22zM2365 5478c-94-119-162-274-185-418-13-87-14-3908 0-4002 21-148 108-335 206-446 32-36 45-44 54-35 10 9 0 27-43 80-71 89-109 157-149 273l-33 95-3 2006-2 2005 24 95c30 119 80 222 156 321l59 76-13 12c-11 9-26-4-71-62zm2458-2699c-2-23 3-25 10-4 4 8 3 16-1 19s-9-4-9-15zm-1823-29c0-5 5-10 11-10 5 0 7 5 4 10-3 6-8 10-11 10-2 0-4-4-4-10zm-25-30c4-6 11-8 16-5 14 9 11 15-7 15-8 0-12-5-9-10zm65-11c0-5 5-7 10-4 6 3 10 8 10 11 0 2-4 4-10 4-5 0-10-5-10-11zm-50-29c0-5 5-10 11-10 5 0 7 5 4 10-3 6-8 10-11 10-2 0-4-4-4-10zm125-20c3-5 8-10 11-10 2 0 4 5 4 10 0 6-5 10-11 10-5 0-7-4-4-10zm-60-90c3-5 8-10 11-10 2 0 4 5 4 10 0 6-5 10-11 10-5 0-7-4-4-10zm1295-555c-7-9-11-18-8-20 3-3 11 1 18 10s11 18 8 20c-3 3-11-1-18-10zm-728-56c-29-27-62-49-72-49s-21-9-25-20c-3-10-27-35-53-54-62-45-86-72-73-81 6-3 11 0 11 7 0 8 9 21 20 30l19 17 11-17 12-17-6 18c-3 11 0 20 9 23 8 4 12 10 9 15-10 16 9 9 22-8l13-18 1 23c0 15 6 22 20 22s20-7 20-22v-23l10 15 10 15 1-15c0-8 5-2 9 13 5 16 6 35 3 43-4 10 2 17 16 21 11 3 21 11 21 17s12 29 26 49c14 21 24 40 22 42-1 2-27-19-56-46zm-71-86l14-18-17 14c-17 13-22 21-14 21 2 0 10-8 17-17zm931 111c10-10 20-16 22-13 3 3-5 11-17 18l-22 13 17-18zm-297-104c-3-6 1-7 9-4 18 7 21 14 7 14-6 0-13-4-16-10zm-23-29l-14-8 16-6c10-4 16-1 16 8 0 17-1 17-18 6zm28 1c0-5 7-9 15-9s12 4 9 9c-3 4-9 8-15 8-5 0-9-4-9-8zm-345-22c10-11 20-20 23-20s-3 9-13 20-20 20-23 20 3-9 13-20zm423 1c-13-18-27-19-60-6-11 4-18 3-18-4s7-14 15-17c8-4 15-12 15-20 0-27 25-13 47 26 22 42 23 53 1 21zm-735-33c-3-7-1-8 5-4 18 11 14-10-4-25-12-10-20-10-35-1-10 7-19 8-19 3s9-13 21-16l20-7-13-16c-7-10 6-1 29 18s42 38 42 41c2 12-39 17-46 7zm532 2c-3-5 1-10 9-10 9 0 16 5 16 10 0 6-4 10-9 10-6 0-13-4-16-10zm-195-2c0-2 15-17 33-34 17-16 26-22 20-14-20 22-15 33 12 28l25-5-11 13c-8 10-16 11-31 3-14-7-23-7-34 2-8 6-14 9-14 7zm141-27l-34-18 27-19c15-10 40-30 57-42 28-23 34-20 30 14-2 14 47 6 56-9 3-5 1-7-5-4-30 19-63-27-35-48 21-16 45-2 36 21-3 8-2 14 3 13 23-4 26 3 9 21-10 11-27 20-37 20-12 0-17 4-12 13s4 9-6 0-19-9-41 3c-19 9-29 11-29 4 0-6-5-8-11-5-7 5-2 16 12 31 27 28 25 29-20 5zm-556-11c3-5 8-10 11-10 2 0 4 5 4 10 0 6-5 10-11 10-5 0-7-4-4-10zm186-16c0-11 3-14 6-6 3 7 2 16-1 19-3 4-6-2-5-13zm-284-12c-22-24-22-34 0-30 9 2 17 13 18 26 2 27 2 27-18 4zm113-2c0-5 5-10 11-10 5 0 7 5 4 10-3 6-8 10-11 10-2 0-4-4-4-10zm706-17c-6-14-5-15 5-6 7 7 10 15 7 18s-9-2-12-12zm-732-15c-5-8 0-9 14-6 12 4 20 2 16-3-3-5-12-9-20-9s-14-4-14-8c0-5-11-15-25-22-16-9-25-22-25-37v-24l50 53c27 29 50 56 50 61 0 12-38 8-46-5zm208-8c0-14 2-19 5-12 2 6 2 18 0 25-3 6-5 1-5-13zm-284-4l-18-13 15-19 14-19-3 20c-2 11 1 26 7 33 12 15 7 15-15-2zm37 5c-3-5-2-12 3-15s9 1 9 9c0 17-3 19-12 6zm770-74c-6-14-10-15-21-6-8 7-14 7-14 1 0-5 7-15 16-22 11-10 14-24 9-57-3-27-2-43 5-43 6 0 10-17 9-37-1-21 3-57 8-80l11-43h-14c-8 0-17 0-21-1-4 0-9 5-12 12-2 7 1 9 8 5 17-11 13 10-4 24-9 7-15 22-14 34 3 37-1 56-12 56-8 0-10-15-6-47 4-30 3-40-3-28l-8 20-8-19-7-19-8 21c-5 12-14 22-20 22-7 0-9-3-6-7 4-3 2-12-4-19-7-8-7-14 1-19 5-3 10-24 10-46 0-21 4-39 9-39s9-29 9-65c-1-41-5-64-12-63-6 2-11-2-11-7s6-9 12-7c8 2 10-3 7-13-4-9-13-14-20-11-17 7-18-6-2-22 10-10 15-7 25 10 16 30 17 1 1-33l-12-25-17 17c-9 9-19 25-21 34l-3 16-20-15-20-14-1-61c0-34 4-61 10-61 5 0 1-7-10-15l-19-14 18-1c9 0 17-4 17-10 0-12-10-13-29-1-7 5-10 14-6 20 4 7 2 18-5 26-9 10-9 19 0 35l12 22-19 21-18 20 18-6 18-7-16 22c-8 13-15 36-15 53 0 23-3 27-10 15l-10-15-10 15c-7 11-10 11-10 2 0-7 7-15 15-18 17-7 20-49 5-59-5-3-10-11-10-16 0-6 5-7 10-4 7 4 9-10 8-39-2-25-6-46-9-46-9 0-19 27-19 48v17l10-15c15-23 12-6-5 26-20 39-19 55 2 47l17-7-14 16c-8 9-17 15-20 13s-6 10-7 26 3 29 9 29c7 0 6 5-2 15-15 18-31 10-23-11 3-9 0-20-8-25l-14-9 14-9 13-9-13-5-14-5 14-10c18-13 25-72 8-72-7-1-5-6 6-14 21-16 23-40 2-33-8 4-17 2-20-3-4-6 5-14 19-20 26-9 38-50 15-50-5 0-7 4-4 10 3 5-8 22-25 37l-30 28-4 100c-2 55-9 111-15 125l-11 25 4-92c2-51 2-93 0-93-7 0-38 66-36 77 1 6-2 14-8 18-5 3-10 23-10 43 0 28-3 33-12 24-7-7-11-31-9-55l3-42-21 24c-14 16-20 36-19 62l1 39 14-11c20-17 16-5-8 22-11 13-16 25-10 27 14 5 14 32 1 32-5 0-10 7-10 16 0 11 6 14 18 10l17-6-17 13c-9 7-20 26-24 42l-7 29-14-39c-9-27-10-41-3-43 7-3 7-9-2-20-10-12-10-14 0-8 7 4 12 2 12-8 0-8 3-23 7-33l6-18-23 20-23 20 12-22c8-15 8-23 1-23-5 0-10 6-11 13-2 46-11 72-28 91-12 12-21 32-21 45 0 14-5 21-12 18-7-2-12-10-10-16 2-8-3-9-16-2-11 6-24 6-33 0-22-14-33-11-19 6 9 10 9 15 1 15-6 0-11 7-11 15s-4 23-9 33c-5 9-13 26-17 37l-8 20-4-33c-2-18 1-39 6-45 5-7 12-25 16-42 4-16 15-39 24-49 9-11 11-16 4-12s-3-9 8-29c11-19 20-48 21-63 0-15 3-20 6-12 9 30 27 60 34 60 12 0 6-74-8-95-18-27-16-36 5-28l17 7-14-17c-19-24 2-21 30 4 17 14 20 22 12 25-15 7-17 44-3 44 6 0 10-6 10-14s5-16 11-18c9-3 9-9 0-25-6-12-7-24-2-27 9-6 21-76 13-76-3 0-11 8-18 18-16 20-18 46-4 37 6-3 10-2 10 3 0 17-28 21-34 6-3-9-12-12-18-9-7 4-2-3 12-14 17-14 20-21 10-21h-15l13-9c8-4 13-11 13-15-4-30 2-56 18-74 10-12 21-19 24-16 3 4 0 13-8 21s-15 26-14 41v27l8-20 8-20 6 20c4 14 6 11 5-10 0-16 1-34 3-40 1-5 3-23 4-40 1-16 3-38 4-48l1-18 21 12c16 8 24 8 33-1 8-10 7-11-4-8-16 5-40-14-40-31 0-15 17-14 23 2 2 6 3-4 2-23-2-24 4-45 21-66 13-17 21-34 17-37-3-3 4-21 15-39 19-32 37-85 34-100-1-5 3-8 9-8 5 0 8-4 5-9-4-5-1-22 6-38 6-15 12-30 12-33 5-24 31-70 40-70 14 0 67 100 71 135 1 15 7 30 12 34 5 3 15 25 23 49 8 26 19 42 29 42 12 1 10 6-9 23-26 24-36 47-21 47 5 0 11-9 14-20 12-46 33-14 29 42-1 11 3 15 12 12 11-4 13 0 9 15-3 12-1 21 6 21 6 0 11 8 11 18 0 13-2 14-9 4-6-10-10-8-14 10-10 34-8 58 3 58 6 0 8-11 4-25-4-15-2-25 5-25 6 0 11 5 11 11 0 8 6 7 17-2l17-14-17 25c-21 30-22 44-2 36 9-3 15 0 15 9 0 8-4 15-10 15-5 0-1 14 10 32 10 17 17 35 14 40-3 4-1 8 5 8 5 0 12-6 14-12 3-7 6-3 6 9 1 12-5 24-11 26-7 3-2 6 11 6 17 1 21 4 13 14-5 6-13 27-17 44l-7 33 16-6c9-3 16-17 16-30s5-24 10-24c6 0 10 14 10 30 0 17 5 30 10 30 6 0 3 11-6 25-10 15-12 25-5 25 6 0 11-5 11-12 0-6 3-9 6-6 3 4-2 20-10 37-9 16-16 38-16 47v18l20-22c12-12 17-28 13-38l-6-16 21 18c14 12 18 20 11 25-7 4-7 9-1 13 5 3 7 18 4 32-4 21-2 25 9 19l14-9-12 15c-7 9-15 33-18 55-2 21-8 52-11 69l-7 30 19-15 19-15-11 15c-6 8-11 22-11 30-1 8-4 24-9 35l-8 20 17-14c23-18 33-8 12 12-8 9-19 33-24 54-6 30-10 34-16 20zm-35-279c0-6-6-5-15 2-8 7-15 14-15 16s7 1 15-2c8-4 15-11 15-16zm-525-59c1-56-17-43-20 14-1 35 1 45 9 37 6-6 11-29 11-51zm517 31c-9-6-7-43 3-60 6-10 3-10-11-2-19 11-28 62-11 62 5 0 3 7-4 17l-14 16 22-14c12-7 19-16 15-19zm68-32c0-13-23-5-28 10-2 7 2 10 12 6 9-3 16-11 16-16zm-63-86c-3-14 1-26 9-29s11-9 8-15c-10-15-35 13-29 33 3 9 1 20-5 24-5 3-10 13-10 22v15l16-13c9-8 14-22 11-37zm-466-10c-9-3-9-8 0-18 9-11 9-18 1-26-13-13-13-11-18 40l-2 33 15-13c10-8 11-14 4-16zm29-104c0-18-17-7-29 19l-13 28 21-19c12-11 21-23 21-28zm20 27c0-8-2-15-4-15s-6 7-10 15c-3 8-1 15 4 15 6 0 10-7 10-15zm30-34c0-6-5-13-10-16-6-4-7-13-1-23 5-10 7-35 4-56-3-26-2-36 6-32 6 4 11 1 11-8 0-33-19-24-26 11-4 21-9 32-12 25-3-10-7-10-18-1-20 16-17 28 5 22l18-5-3 38c-1 21 0 42 2 46 7 11 24 10 24-1zm40-22c0-6-4-7-10-4-5 3-10 11-10 16 0 6 5 7 10 4 6-3 10-11 10-16zm-94 0c3-6 0-17-7-25l-14-13-1 24c-2 26 10 33 22 14zm384-46c0-7-5-13-11-13-5 0-7-4-4-10 3-5 2-10-3-10-6 0-10 10-10 23 0 12-3 33-7 47l-7 25 21-25c11-14 21-31 21-37zm-54 10c-10-10-19 5-10 18l8 13 4-13c2-7 1-15-2-18zm-215-11c-5-2-7-11-4-21s0-22-7-26c-15-9-18-5-24 27-3 20-1 25 10 21 9-3 14 2 14 13v19l10-15c5-8 5-16 1-18zm223-48c3-8 2-12-4-9s-10 10-10 16c0 14 7 11 14-7zm-316-24l12-20h-12c-22 0-41 17-34 29 10 16 20 14 34-9zm229 3c-1-10-6-23-9-28-4-6-3-17 3-25 5-8 8-22 8-30s-7-2-14 15c-7 16-11 35-9 42 11 37 14 43 19 43 3 0 4-8 2-17zm-86-25v-23l9 20 9 20v-17c1-10 7-18 15-18 14 0 26-29 26-62 0-10-4-18-9-18-4 0-7 10-4 23 2 16-5 27-29 42-32 20-50 55-29 55 6 0 11-10 12-22zm144-47c-6-21-25-29-25-11 0 6 5 10 11 10 8 0 9 4 0 13-12 16-2 32 12 18 5-5 6-18 2-30zm-240-29c-8-8-26 39-19 50 5 8 11 1 16-17 4-16 6-31 3-33zm55-2c-4-8-5-21-3-27 3-7-1-13-7-13-10 0-10-4 0-15 10-12 10-15 0-15-7 0-10-7-6-16 3-8 2-12-3-9-6 3-9 13-9 23 1 9-2 32-6 50-5 21-4 32 4 32 6 0 8-4 5-10-3-5-1-10 5-10 8 0 9 11 5 33l-7 32 15-20c9-12 12-26 7-35zm73 17c10 9 8-19-2-35-6-10-12-7-24 12-23 34-22 54 1 33 10-10 22-14 25-10zm-151-46l3-40-17 16c-13 12-15 20-7 34 5 11 7 25 3 31s-3 8 3 5c6-4 13-25 15-46zm281 24c-7-21-13-19-13 6 0 11 4 18 10 14 5-3 7-12 3-20zm-160-51c-8-21-20-8-20 23v27l13-18c7-10 10-24 7-32zm60 6c3-11 1-18-3-15-5 3-10-1-13-7-2-7-4-1-4 15-1 31 12 36 20 7zm-156-12c-3-8-6-5-6 6-1 11 2 17 5 13 3-3 4-12 1-19zm133-39c0-14-17-10-23 5-4 10-1 13 9 9 7-3 14-9 14-14zm-62-14c0-27-12-33-24-13-4 6-2 14 4 16 7 2 10 8 6 13-3 5-1 9 4 9s10-11 10-25zm52-27c0-6-6-5-15 2-8 7-15 14-15 16s7 1 15-2c8-4 15-11 15-16zm80 12c0-5-4-10-10-10-5 0-10 5-10 10 0 6 5 10 10 10 6 0 10-4 10-10zm-150-41c0-6-4-7-10-4-5 3-10 11-10 16 0 6 5 7 10 4 6-3 10-11 10-16zm150 11c0-5-4-10-10-10-5 0-10 5-10 10 0 6 5 10 10 10 6 0 10-4 10-10zm-94-15c9-8 11-15 6-15s-15 7-22 15-9 15-6 15c4 0 14-7 22-15zm64 5c0-5-5-10-11-10-5 0-7 5-4 10 3 6 8 10 11 10 2 0 4-4 4-10zm-27-24c3-8 0-17-7-19-10-4-12 1-9 14 6 23 9 24 16 5zm372 974c10-11 20-20 23-20s-3 9-13 20-20 20-23 20 3-9 13-20zm-10-140c10-11 20-20 23-20s-3 9-13 20-20 20-23 20 3-9 13-20zm-275-54c0-2 8-10 18-17l17-14-14 18c-13 16-21 21-21 13zm-138-99c2-56 7-97 13-97s9 27 8 65c0 36 3 63 7 60 8-5-16 52-27 65-3 3-3-39-1-93zm300 73c7-10 14-18 15-16 6 6-9 36-18 36-5 0-4-9 3-20zm-151-157c-1-23-5-53-11-67-6-17-6-26 0-26s10 6 11 13c0 6 5 1 11-13l10-25 8 20c4 11 3 25-2 32s-8 16-6 20c3 4-1 26-8 48l-12 40-1-42zm-455-18c4-8 8-15 10-15s4 7 4 15-4 15-10 15c-5 0-7-7-4-15zm294-145c13-23 20-26 20-6 0 8-7 16-15 20l-15 6 10-20zM2445 569c-10-16 29-52 119-112 106-70 200-110 319-136l97-21h1759l101 20c111 21 245 78 346 148 80 54 111 89 96 104-9 9-19 5-44-19-78-73-190-136-318-179l-85-29-935-3-935-3-94 22c-112 25-260 97-350 170-67 54-67 54-76 38z"/></g></svg></g></svg>